<svg width="20" height="20" viewBox="0 0 20 20" fill="none" xmlns="http://www.w3.org/2000/svg">
<g clip-path="url(#clip0_775_2594)">
<path d="M8.3067 6.87642C8.01739 6.58714 7.67985 6.34908 7.31218 6.16828V0.717048C7.31218 0.602539 7.26999 0.491044 7.18862 0.412695C7.10424 0.331334 6.99575 0.286133 6.88424 0.286133H4.39796C4.15987 0.286133 3.967 0.47899 3.967 0.717048V1.94049L3.96398 6.15924C2.68016 6.79205 1.86646 8.08781 1.86646 9.54026L1.85742 18.6045C1.85742 19.1379 2.29139 19.5688 2.82481 19.5688L8.44231 19.5718C8.97272 19.5718 9.40669 19.1409 9.40669 18.6076L9.41272 9.54629C9.41272 8.53981 9.01793 7.5906 8.3067 6.87642ZM4.82891 1.15098H6.45027V1.50957H4.82891V1.15098ZM4.82891 2.37441H6.45027V2.72999H4.82891V2.37441ZM4.82891 3.59484H6.45027V5.87296C5.84754 5.75243 5.27192 5.78557 4.8259 5.87598L4.82891 3.59484ZM8.54177 18.6076C8.54177 18.6648 8.49656 18.707 8.44231 18.707L2.82481 18.704C2.76755 18.704 2.72235 18.6618 2.72235 18.6045L2.72536 17.5047H8.54478V18.6076H8.54177ZM8.54177 16.6428H2.72536V13.6596L8.54478 13.6626L8.54177 16.6428ZM8.54478 12.7977L2.72536 12.7947L2.72838 9.54327C2.72838 8.34696 3.44563 7.28624 4.55768 6.84328C4.73549 6.77095 5.15439 6.65644 5.66069 6.65644C5.99521 6.65644 6.36288 6.70466 6.72452 6.84629C7.08917 6.99395 7.41766 7.2079 7.69794 7.48513C8.24643 8.03658 8.55081 8.76883 8.55081 9.54629L8.54478 12.7977Z" fill="black"/>
<path d="M6.45046 1.15088H4.8291V1.50947H6.45046V1.15088Z" fill="#E1E1E1"/>
<path d="M6.45046 2.37451H4.8291V2.73009H6.45046V2.37451Z" fill="#E1E1E1"/>
<path d="M6.4505 3.59473V5.87285C5.84776 5.75232 5.27215 5.78546 4.82612 5.87586L4.82913 3.59473H6.4505ZM8.54802 9.54618L8.545 12.7976L2.72559 12.7946L2.7286 9.54316C2.7286 8.34685 3.44586 7.28613 4.5579 6.84316C4.73571 6.77084 5.15461 6.65633 5.66091 6.65633C5.99543 6.65633 6.3631 6.70455 6.72474 6.84618C7.0894 6.99383 7.41789 7.20778 7.69816 7.48502C8.24665 8.03647 8.54802 8.76872 8.54802 9.54618Z" fill="#E1E1E1"/>
<path d="M8.545 13.6627L8.54199 16.6429H2.72559V13.6597L8.545 13.6627Z" fill="#ECECEC"/>
<path d="M8.5411 17.5049V18.6078C8.5411 18.665 8.49589 18.7072 8.44165 18.7072L2.82414 18.7042C2.76688 18.7042 2.72168 18.662 2.72168 18.6048L2.72469 17.5049H8.5411Z" fill="#ECECEC"/>
<path d="M18.0047 10.7515V7.54224C18.0047 7.30419 17.8088 7.11133 17.5737 7.11133H11.1546C10.9165 7.11133 10.7236 7.30419 10.7236 7.54224V10.7515C10.7236 12.6138 12.128 14.1506 13.9332 14.3676V18.0228H12.2516C12.0135 18.0228 11.8206 18.2187 11.8206 18.4537C11.8206 18.6918 12.0135 18.8847 12.2516 18.8847H16.4707C16.7088 18.8847 16.9017 18.6918 16.9017 18.4537C16.9017 18.2187 16.7088 18.0228 16.4707 18.0228H14.7951V14.3676C16.6003 14.1506 18.0047 12.6138 18.0047 10.7515ZM14.3642 13.5299C12.8302 13.5299 11.5855 12.2823 11.5855 10.7515V7.97316H17.1428V10.7515C17.1398 12.2823 15.8951 13.5299 14.3642 13.5299Z" fill="black"/>
<path d="M17.1393 7.97314V10.7515C17.1393 12.2823 15.8916 13.5298 14.3606 13.5298C12.8267 13.5298 11.582 12.2823 11.582 10.7515V7.97314H17.1393Z" fill="#ECECEC"/>
</g>
<defs>
<clipPath id="clip0_775_2594">
<rect width="19.2876" height="19.2857" fill="white" transform="translate(0.287109 0.286133)"/>
</clipPath>
</defs>
</svg>
