<svg width="20" height="20" viewBox="0 0 20 20" fill="none" xmlns="http://www.w3.org/2000/svg">
<g clip-path="url(#clip0_775_2611)">
<path d="M12.7677 6.02326C12.2035 4.75379 12.0282 3.39489 11.9784 2.85891L12.0642 2.7841L12.0829 2.76651C12.087 2.7624 12.0911 2.75823 12.0952 2.75401L12.099 2.74977C12.1804 2.6633 12.2253 2.55077 12.2259 2.42891V1.13697C12.2259 0.878416 12.0155 0.667969 11.7569 0.667969H8.10603C7.98162 0.668081 7.86234 0.717516 7.77434 0.805435C7.68633 0.893354 7.63678 1.01258 7.63656 1.13697V2.43314C7.63752 2.55466 7.68562 2.67106 7.77072 2.75782L7.77793 2.76503L7.79828 2.78389L7.88412 2.8587C7.83367 3.39595 7.65669 4.75803 7.09523 6.02347C6.31843 7.77105 6.20801 8.45093 6.20801 10.0442V17.9819C6.20829 18.3021 6.33558 18.609 6.56196 18.8355C6.78833 19.0619 7.09529 19.1893 7.41549 19.1897H12.4464C12.7666 19.1894 13.0737 19.062 13.3001 18.8356C13.5266 18.6091 13.6539 18.3021 13.6543 17.9819V10.044C13.6543 8.45093 13.5438 7.77105 12.7677 6.02326ZM11.7488 1.13697L11.7512 2.42361C11.7497 2.42528 11.7481 2.42691 11.7465 2.42848L11.574 2.57874C11.546 2.60323 11.5241 2.63391 11.51 2.66835C11.496 2.70278 11.4901 2.74002 11.493 2.77711C11.515 3.06364 11.5922 3.81917 11.8188 4.70992C11.7916 4.72742 11.7683 4.75028 11.7503 4.7771C11.7287 4.80932 11.2067 5.56591 10.1134 5.01998C9.23403 4.58001 8.44939 4.71352 8.00408 4.86251C8.16761 4.25056 8.28319 3.62679 8.34977 2.99688H10.9773C11.0406 2.99688 11.1012 2.97176 11.1459 2.92705C11.1907 2.88234 11.2158 2.82169 11.2158 2.75846C11.2158 2.69522 11.1907 2.63458 11.1459 2.58987C11.1012 2.54515 11.0406 2.52004 10.9773 2.52004H8.22154L8.11345 2.42573L8.10603 1.1446L11.7488 1.13697ZM13.1774 17.9817C13.1772 18.1755 13.1001 18.3613 12.963 18.4983C12.826 18.6353 12.6402 18.7124 12.4464 18.7126H7.41549C7.22174 18.7124 7.03601 18.6352 6.89904 18.4982C6.76208 18.3612 6.68507 18.1754 6.6849 17.9817V10.044C6.6849 8.5304 6.79024 7.8838 7.53101 6.21675C7.64142 5.96633 7.73988 5.71081 7.82604 5.45104C7.83791 5.44659 7.8502 5.44553 7.86144 5.43896C7.89959 5.41671 8.80971 4.90151 9.89977 5.44638C10.2531 5.62313 10.5731 5.69243 10.8557 5.69243C11.271 5.69474 11.6709 5.53535 11.9707 5.24801C12.0722 5.57765 12.1927 5.90111 12.3317 6.21675C13.072 7.88338 13.1774 8.53019 13.1774 10.0438V17.9817Z" fill="black"/>
<path d="M9.93336 14.0737C10.0512 14.0737 10.1705 14.0648 10.2875 14.0472C11.2882 13.8984 12.0582 13.049 12.0406 12.0993L12.0361 12.0362C12.034 11.9923 12.0305 11.9486 12.0255 11.905C11.9889 11.6 11.8937 11.2847 11.7254 10.9127C11.4802 10.3738 11.1521 9.83822 10.6612 9.17551C10.4988 8.95561 10.3295 8.74095 10.1534 8.53188C10.0885 8.45473 10.0126 8.41553 9.92743 8.41553C9.86745 8.41553 9.77906 8.43608 9.69979 8.53315C9.32252 8.9941 9.03087 9.3849 8.78162 9.76299C8.5046 10.1837 8.15933 10.7497 7.94569 11.3963C7.77125 11.9217 7.7774 12.3933 7.96434 12.8383C8.27993 13.5888 9.05271 14.0737 9.93336 14.0737ZM8.39884 11.546C8.55187 11.0827 8.79285 10.6137 9.1803 10.0249C9.38844 9.70894 9.629 9.38215 9.92891 9.00809C10.0487 9.15589 10.1651 9.30632 10.2782 9.45929C10.7483 10.0936 11.0605 10.6029 11.2911 11.1096C11.4384 11.4353 11.5215 11.706 11.552 11.9618C11.5563 11.9957 11.5578 12.03 11.5599 12.0643L11.5641 12.1222C11.577 12.8226 10.9855 13.4608 10.2172 13.5752C10.1233 13.5892 10.0275 13.5964 9.93336 13.5964C9.24537 13.5964 8.64512 13.2262 8.40435 12.6531C8.26425 12.3195 8.26234 11.9573 8.39884 11.546Z" fill="black"/>
<path d="M9.39806 13.1818C9.45723 13.1972 9.52006 13.1893 9.57358 13.1598C9.62711 13.1302 9.66724 13.0812 9.6857 13.023C9.70416 12.9647 9.69954 12.9015 9.6728 12.8465C9.64606 12.7915 9.59923 12.7489 9.54197 12.7275C9.26919 12.6412 9.08903 12.4066 9.10366 12.1574C9.10731 12.0942 9.08573 12.0323 9.04368 11.985C9.00163 11.9378 8.94254 11.9093 8.87941 11.9056C8.81639 11.9023 8.75462 11.9241 8.70748 11.966C8.66035 12.008 8.63166 12.0668 8.62762 12.1298C8.60028 12.5969 8.91714 13.0297 9.39806 13.1818Z" fill="black"/>
<path d="M10.0061 13.3711C10.0676 13.3711 10.129 13.3457 10.1757 13.3012C10.2195 13.2559 10.2438 13.1953 10.2434 13.1323C10.243 13.0693 10.2179 13.0089 10.1735 12.9642C10.0845 12.8752 9.92556 12.8752 9.83654 12.9642C9.79204 13.0087 9.7666 13.0702 9.7666 13.1338C9.76716 13.1969 9.79264 13.2573 9.8375 13.3017C9.88235 13.3462 9.94295 13.3711 10.0061 13.3711Z" fill="black"/>
<path d="M7.28448 17.7362C7.22632 17.7605 7.1801 17.8067 7.15594 17.8649C7.13177 17.9231 7.13161 17.9884 7.1555 18.0467C7.17938 18.105 7.22537 18.1515 7.28341 18.176C7.34145 18.2005 7.40683 18.201 7.46527 18.1775C7.4746 18.1735 8.42117 17.793 9.9256 17.793C11.4226 17.793 12.3166 18.173 12.3255 18.1771C12.3542 18.1895 12.3851 18.1962 12.4164 18.1968C12.4478 18.1973 12.4789 18.1916 12.508 18.1801C12.5371 18.1686 12.5637 18.1515 12.5862 18.1297C12.6086 18.1079 12.6266 18.0818 12.639 18.0531C12.6641 17.9951 12.6651 17.9295 12.6419 17.8707C12.6186 17.8119 12.573 17.7648 12.515 17.7396C12.4752 17.7225 11.5205 17.3164 9.9256 17.3164C8.32706 17.316 7.32623 17.7191 7.28448 17.7362Z" fill="black"/>
</g>
<defs>
<clipPath id="clip0_775_2611">
<rect width="19.2875" height="19.2857" fill="white" transform="translate(0.287109 0.285645)"/>
</clipPath>
</defs>
</svg>
