<svg width="20" height="20" viewBox="0 0 20 20" fill="none" xmlns="http://www.w3.org/2000/svg">
<g clip-path="url(#clip0_775_2620)">
<path fill-rule="evenodd" clip-rule="evenodd" d="M9.87231 5.50089C9.89092 4.54406 10.3122 3.56953 10.7274 2.73316L10.7308 2.72668C10.7415 2.70576 10.7556 2.68679 10.7727 2.67056L10.7737 2.66958C10.7826 2.66159 10.7826 2.66159 10.792 2.65421L10.793 2.65346C10.8057 2.64487 10.8057 2.64487 10.8189 2.63741L10.8199 2.63688C10.8335 2.63063 10.8334 2.63063 10.8474 2.62543L10.8478 2.62528C10.8586 2.62212 10.8585 2.62212 10.8695 2.61963L10.87 2.61948C10.8826 2.61745 10.8826 2.61745 10.8952 2.61624H10.8957C10.8957 2.61624 10.9133 2.61609 10.9221 2.61647H10.9226L10.9365 2.61812L10.9503 2.62076C10.9503 2.62076 10.967 2.62551 10.9751 2.62837C10.9751 2.62837 10.9918 2.63568 11 2.63982C11 2.63982 11.0126 2.64766 11.0188 2.6518C11.0188 2.6518 11.0348 2.66483 11.0425 2.67184C11.0425 2.67184 11.0571 2.68804 11.0636 2.69677C11.2219 3.44583 10.7267 5.20189 10.6005 5.58429C11.7724 4.75191 12.9772 3.9404 14.2589 3.28393L14.2672 3.27987C14.2848 3.27241 14.2786 3.27459 14.3026 3.26721L14.3042 3.26676C14.3161 3.26412 14.3161 3.26412 14.328 3.26224L14.3294 3.26209L14.3427 3.26088C14.3473 3.26081 14.3519 3.2605 14.3565 3.26058C14.3678 3.26111 14.3678 3.26111 14.3791 3.26231C14.3791 3.26231 14.398 3.26593 14.4072 3.26834C14.4072 3.26834 14.4297 3.2764 14.4405 3.28152C14.4405 3.28152 14.4629 3.29493 14.4733 3.30284C14.4733 3.30284 14.494 3.3222 14.5032 3.33298C14.5032 3.33298 14.5187 3.35573 14.5251 3.36793C14.5251 3.36793 14.5344 3.39053 14.5379 3.40229C14.5379 3.40229 14.5419 3.42232 14.5434 3.43249C14.5434 3.43249 14.5442 3.44779 14.5442 3.4554V3.456C14.5434 3.46971 14.5434 3.46971 14.5416 3.48327L14.5414 3.48463C14.482 3.77549 13.99 4.1188 13.797 4.28544C12.8353 5.11608 12.7254 5.28483 11.6652 5.99237C11.2533 6.26727 10.9581 6.46307 10.4445 6.31993C10.4243 6.3215 10.4039 6.32031 10.384 6.31639L10.3837 6.31624C10.3724 6.3133 10.3724 6.31353 10.3614 6.30968L10.3519 6.32091L10.3485 6.32475C10.3236 6.5555 10.2998 6.7864 10.2771 7.01738C11.8394 6.35074 13.43 5.70482 15.0647 5.23564L15.0735 5.23322C15.0971 5.22803 15.0944 5.22855 15.1109 5.22727C15.1237 5.2269 15.1237 5.22667 15.1364 5.22682C15.1502 5.22818 15.1501 5.2284 15.1638 5.23044C15.1638 5.23044 15.1809 5.23473 15.1894 5.23729C15.1894 5.23729 15.2108 5.24641 15.2212 5.25168C15.2212 5.25168 15.2436 5.26645 15.2539 5.27504C15.2539 5.27504 15.2775 5.30012 15.2874 5.31406C15.2874 5.31406 15.303 5.34359 15.3087 5.35918C15.3087 5.35918 15.3156 5.38864 15.3173 5.40363C15.3173 5.40363 15.3171 5.43015 15.3159 5.44333L15.3159 5.44386C15.3137 5.45644 15.3137 5.45644 15.3107 5.46887L15.3105 5.4694C15.1563 5.95644 14.4121 6.10176 14.055 6.29063C12.8564 6.92472 11.6321 7.88931 10.1949 7.91763C10.186 8.02323 10.1773 8.12885 10.1689 8.23449C12.254 7.64522 14.3687 7.08616 16.5079 6.7296L16.5168 6.72825C16.5301 6.72674 16.5301 6.72681 16.5435 6.72599L16.5607 6.72629C16.5842 6.72862 16.5758 6.72712 16.6045 6.73397C16.6045 6.73397 16.6221 6.74007 16.6306 6.74361C16.6306 6.74361 16.653 6.75589 16.6637 6.7629C16.6637 6.7629 16.6898 6.78565 16.701 6.79861C16.701 6.79861 16.7226 6.83266 16.7305 6.85112C16.7305 6.85112 16.7404 6.89135 16.7421 6.91184V6.91229C16.7416 6.93979 16.7413 6.93783 16.7373 6.95892L16.7372 6.95945C16.7321 6.9776 16.7321 6.9776 16.7251 6.99516L16.7248 6.99576C16.6063 7.23465 15.9529 7.3918 15.7542 7.46623C14.1309 8.0741 11.9688 9.2256 10.1093 9.05722C10.1033 9.14853 10.0976 9.23984 10.0921 9.33122C12.5216 8.97029 14.9844 8.66292 17.4409 8.56604C17.4512 8.56582 17.4511 8.56589 17.4615 8.56597C17.4873 8.56755 17.5105 8.57275 17.5348 8.58141C17.5348 8.58141 17.5518 8.58955 17.56 8.59407C17.56 8.59407 17.5816 8.60943 17.5917 8.61787C17.5917 8.61787 17.6166 8.64597 17.6267 8.66172C17.6267 8.66172 17.6442 8.70157 17.6493 8.72266C17.6493 8.72266 17.6523 8.76658 17.6499 8.78835L17.6498 8.78881C17.6434 8.81834 17.6435 8.81615 17.6344 8.83792L17.6341 8.83845C17.626 8.85382 17.626 8.85382 17.6165 8.86829L17.6161 8.86881C17.5207 8.99206 17.3317 8.99907 17.1818 9.04178C16.8134 9.14672 16.4388 9.22959 16.0644 9.31088C14.0924 9.73901 13.5853 9.83611 11.5859 10.11C11.1515 10.1695 10.4802 10.2565 10.0531 10.0663C10.0378 10.3977 10.026 10.7293 10.0184 11.061C12.327 10.4643 14.6647 9.89985 17.0243 9.54329L17.0333 9.542C17.0463 9.54072 17.0462 9.5408 17.0593 9.54012L17.0762 9.5405C17.099 9.54283 17.0908 9.5414 17.119 9.54803C17.119 9.54803 17.137 9.55428 17.1458 9.55798C17.1458 9.55798 17.1691 9.57086 17.1801 9.57817C17.1801 9.57817 17.2084 9.60386 17.2203 9.61862C17.2203 9.61862 17.2418 9.65629 17.2491 9.67663C17.2491 9.67663 17.2566 9.71859 17.2567 9.73976V9.74021C17.2545 9.76387 17.2555 9.76191 17.2471 9.79106L17.2469 9.79159C17.2405 9.80809 17.2405 9.80809 17.2325 9.82398L17.2322 9.82451C17.1469 9.96426 16.8773 10.0264 16.7446 10.0733C16.297 10.2318 15.8515 10.3965 15.4024 10.5511C13.8626 11.0814 11.7364 12.0718 10.0087 11.8831C10.0086 12.1649 10.0121 12.4468 10.0201 12.7285L10.0241 12.7303L10.0266 12.7315C12.0761 12.2327 14.1673 11.7878 16.2651 11.5484L16.2742 11.5475C16.2878 11.5467 16.2877 11.5468 16.3013 11.5467L16.3191 11.5481C16.3425 11.5519 16.3341 11.5499 16.3627 11.5586C16.3627 11.5586 16.38 11.566 16.3884 11.5701C16.3884 11.5701 16.4088 11.5829 16.4185 11.5901C16.4185 11.5901 16.4406 11.6112 16.4502 11.6229C16.4502 11.6229 16.4707 11.6567 16.4781 11.675C16.4781 11.675 16.4872 11.7134 16.4886 11.733V11.7334C16.4879 11.7547 16.4879 11.7547 16.4848 11.7759L16.4847 11.7764C16.4797 11.7953 16.4797 11.7953 16.4728 11.8137L16.4725 11.8143C16.2661 12.2404 15.5329 12.2602 15.1826 12.3584C13.2793 12.8923 13.3116 12.9676 11.3928 13.4085C11.0403 13.4895 10.4123 13.61 10.0561 13.4264L10.0505 13.4291C10.0665 13.7012 10.0882 13.9786 10.1163 14.2476C10.1822 14.2291 10.248 14.2107 10.3138 14.1925C11.7414 13.7984 13.1933 13.4261 14.6623 13.2212L14.6708 13.2202C14.684 13.2192 14.6839 13.2193 14.6971 13.219L14.7061 13.2195C14.7166 13.2203 14.7166 13.2203 14.727 13.2217C14.727 13.2217 14.7549 13.2285 14.7684 13.2333C14.7684 13.2333 14.7846 13.2407 14.7925 13.2449C14.7925 13.2449 14.8086 13.2553 14.8163 13.2611C14.8163 13.2611 14.8368 13.2798 14.8458 13.2902C14.8458 13.2902 14.861 13.3118 14.8674 13.3234C14.8674 13.3234 14.8789 13.3509 14.8829 13.3653C14.8829 13.3653 14.8873 13.3906 14.8881 13.4034L14.8882 13.4038C14.8879 13.4217 14.8879 13.4217 14.886 13.4395L14.886 13.4399C14.8831 13.4542 14.8831 13.4542 14.8792 13.4682L14.879 13.4688C14.7286 13.8949 14.017 13.9632 13.6992 14.0793C12.573 14.4909 11.4652 15.0799 10.2346 15.106C10.3452 15.7343 10.4998 16.4168 10.883 16.9421C11.0443 17.655 10.2727 16.7745 10.268 16.7657C10.0268 16.3168 9.93387 15.5885 9.85084 15.0964C8.53439 15.2655 7.3021 14.5149 6.14047 14.0659C5.83255 13.9468 5.13466 13.886 4.99226 13.4656L4.99211 13.4651C4.98812 13.4496 4.98819 13.4496 4.98548 13.4337V13.4333C4.98412 13.4154 4.98412 13.4154 4.98442 13.3975L4.9845 13.397C4.98646 13.3783 4.98578 13.3799 4.99166 13.3566L4.99181 13.3562C5.00077 13.3298 5.00047 13.3318 5.01087 13.3126L5.01109 13.3122C5.02157 13.2961 5.02021 13.2972 5.03648 13.2788L5.03679 13.2785C5.05012 13.2659 5.05012 13.2659 5.06466 13.2546L5.06504 13.2543C5.0774 13.2463 5.07732 13.2463 5.0902 13.2394L5.09073 13.2391C5.12358 13.2241 5.13933 13.2213 5.1727 13.219L5.18853 13.2193C5.18853 13.2193 5.25332 13.2273 5.28564 13.2319C6.78947 13.4499 8.27597 13.8327 9.73715 14.2424C9.71206 13.9966 9.6927 13.7503 9.67763 13.5037C8.12958 13.5658 6.63999 12.936 5.21203 12.4538C4.84188 12.3289 4.47421 12.1967 4.10503 12.0686C3.97024 12.0219 3.74105 11.9697 3.64891 11.8386L3.64861 11.838C3.64198 11.8264 3.64198 11.8265 3.63618 11.8144L3.63595 11.8139C3.6294 11.7967 3.6294 11.7967 3.6245 11.779L3.62442 11.7785C3.61953 11.7513 3.6202 11.7531 3.62005 11.7314V11.7309C3.62224 11.7046 3.62111 11.7068 3.63068 11.6744L3.63083 11.674C3.64055 11.6503 3.63889 11.652 3.65697 11.6248L3.65727 11.6244C3.67091 11.6075 3.66918 11.6086 3.6899 11.5903L3.69035 11.59C3.70489 11.5792 3.70489 11.5792 3.72049 11.5699L3.72094 11.5696C3.74957 11.5557 3.77571 11.5492 3.80728 11.5467L3.82242 11.5468C3.82242 11.5468 3.90183 11.555 3.94146 11.5596C5.85884 11.7871 7.76138 12.1914 9.64064 12.6271C9.63446 12.3735 9.63197 11.8661 9.63197 11.8661C9.32548 11.9337 9.00272 11.884 8.6905 11.8517C7.14953 11.6919 5.64419 11.0755 4.2023 10.5748C3.75778 10.4205 3.31582 10.259 2.87153 10.1042C2.70676 10.0467 2.43967 9.99326 2.31679 9.84606L2.31626 9.84545C2.3091 9.83521 2.3091 9.83521 2.30255 9.82451L2.30225 9.82398C2.29426 9.80809 2.29426 9.80809 2.28786 9.79159L2.28763 9.79106C2.27964 9.76326 2.28055 9.76515 2.27814 9.74262V9.74217C2.27799 9.71226 2.27678 9.71467 2.28537 9.67738L2.28552 9.67693C2.29599 9.64785 2.29388 9.64981 2.31573 9.61681L2.31596 9.61644C2.33148 9.59775 2.32952 9.59881 2.35348 9.57899L2.35393 9.57869C2.37058 9.56747 2.37058 9.56754 2.38836 9.5582L2.38897 9.5579C2.41636 9.54639 2.44574 9.54035 2.47546 9.54012L2.48992 9.54087C2.48992 9.54087 2.5844 9.55451 2.63164 9.56174C4.99241 9.92945 7.33065 10.4889 9.64086 11.0935C9.64742 10.7933 9.65744 10.4933 9.67025 10.1935C9.29022 10.2843 8.88842 10.2686 8.4989 10.2373C6.86737 10.1063 5.52553 9.77976 3.93408 9.42335C3.54102 9.33536 3.14713 9.24925 2.75837 9.14386C2.58945 9.09813 2.38912 9.09158 2.26292 8.97044L2.26239 8.96984C2.2541 8.96057 2.2541 8.96057 2.24649 8.9507L2.24612 8.95017C2.23617 8.93488 2.23617 8.93488 2.22766 8.91861L2.22743 8.91816C2.21884 8.89714 2.21892 8.89917 2.21282 8.87092L2.21274 8.87047C2.2086 8.83371 2.2095 8.83619 2.21274 8.80749L2.21282 8.80711C2.21975 8.77705 2.21786 8.77916 2.23564 8.74398L2.23587 8.74353C2.25358 8.71626 2.25275 8.71844 2.27053 8.70014L2.2709 8.69976C2.2856 8.68748 2.2856 8.68748 2.30142 8.67671L2.30195 8.67641C2.33389 8.65863 2.36486 8.65004 2.40125 8.64785C2.41149 8.64778 2.41149 8.6477 2.42174 8.64793C4.85905 8.74391 7.2984 9.0506 9.7104 9.40422C9.71545 9.31818 9.72065 9.23215 9.72615 9.14612C8.08241 9.28737 6.34314 8.3936 4.89454 7.83507C4.49387 7.68055 4.09486 7.52197 3.69412 7.36754C3.54358 7.30953 3.2893 7.24798 3.18533 7.10115L3.18495 7.10055C3.17802 7.08865 3.17802 7.08865 3.17192 7.07629L3.17169 7.07569C3.16536 7.05957 3.16536 7.05957 3.16054 7.04292L3.16047 7.04247C3.15482 7.01331 3.15565 7.01527 3.15534 6.99207L3.15542 6.99162C3.15836 6.95711 3.15873 6.9596 3.16665 6.93376L3.1668 6.93331C3.17742 6.90822 3.17554 6.90995 3.19565 6.8814L3.19588 6.88102C3.2114 6.86302 3.20952 6.86407 3.23325 6.84509L3.23362 6.84479C3.24945 6.83447 3.24945 6.83447 3.26625 6.82573L3.26678 6.8255C3.29601 6.81337 3.32253 6.8084 3.35395 6.80787L3.36879 6.80878C3.36879 6.80878 3.45332 6.82211 3.49559 6.82927C5.61684 7.19291 7.71482 7.74421 9.78341 8.33198C9.7966 8.16149 9.81053 7.99109 9.82507 7.82068L9.82492 7.8206C9.50186 7.88622 9.03353 7.74474 8.74362 7.62631C7.22095 7.00412 7.26503 6.94122 5.78365 6.20874C5.39617 6.01716 4.74988 5.864 4.53591 5.40958L4.53561 5.40898C4.53169 5.39858 4.53169 5.39858 4.5283 5.38804L4.52815 5.38744C4.52476 5.37357 4.52476 5.37357 4.52243 5.35949V5.35896C4.52099 5.34223 4.52099 5.34223 4.52115 5.32536L4.52122 5.32491C4.52333 5.30276 4.52243 5.30457 4.52996 5.27722L4.53011 5.27684C4.54028 5.24942 4.53991 5.25146 4.55158 5.23172L4.55181 5.23134C4.56846 5.20799 4.56763 5.20987 4.58368 5.19413L4.58398 5.19382C4.59882 5.18147 4.59717 5.18215 4.61826 5.16934L4.61864 5.16911C4.63333 5.16173 4.63333 5.16173 4.64855 5.1557L4.64908 5.15548C4.67145 5.14855 4.67989 5.14523 4.71086 5.14486L4.72766 5.14538C4.74431 5.14667 4.74145 5.14614 4.7651 5.15134C4.79825 5.16023 4.8311 5.17017 4.86403 5.17974C6.58054 5.6829 8.2551 6.3628 9.89266 7.07833C9.91232 6.87507 9.93281 6.6719 9.95421 6.46887C8.74987 6.35232 7.69968 5.07615 6.91024 4.36733C6.7038 4.18193 6.26908 3.88194 6.17212 3.59235L6.17159 3.5907C6.16842 3.5791 6.16842 3.5791 6.16594 3.56734L6.16571 3.56599C6.16383 3.55198 6.16383 3.55198 6.163 3.53789V3.53729C6.16315 3.52493 6.16315 3.52501 6.16405 3.51265L6.16413 3.51212C6.16616 3.49826 6.16616 3.49826 6.16925 3.48463L6.16933 3.48417C6.17415 3.46828 6.17332 3.46956 6.18191 3.4502L6.18214 3.44982C6.19088 3.43325 6.18967 3.43445 6.20376 3.41524L6.20406 3.41487C6.21928 3.39694 6.21838 3.39837 6.23216 3.38609L6.23254 3.38586C6.2519 3.37102 6.2507 3.3723 6.2675 3.36304L6.26788 3.36281C6.28309 3.35603 6.28309 3.35603 6.29884 3.35053L6.29937 3.35038C6.31323 3.34684 6.31323 3.34684 6.32732 3.34435L6.32785 3.34428C6.33953 3.343 6.33953 3.343 6.3512 3.34247C6.35572 3.34239 6.36032 3.3427 6.36484 3.34277L6.37787 3.34398C6.37787 3.34398 6.42022 3.35324 6.44003 3.36176C6.45736 3.37019 6.47439 3.37916 6.49149 3.3879C7.6712 3.99773 8.78581 4.74068 9.87231 5.50089ZM6.6488 13.8651C7.33374 14.1356 7.79559 14.2988 8.50154 14.5088C8.88481 14.6229 9.30054 14.736 9.70588 14.7295H9.70619C9.70131 14.7003 9.69591 14.6712 9.68999 14.6423L9.68652 14.6264L9.68479 14.6188C9.61675 14.5995 9.54857 14.5806 9.48046 14.5617C8.54072 14.3018 7.59427 14.0638 6.64052 13.8611C6.64052 13.8611 6.64594 13.864 6.6488 13.8651ZM13.1894 13.8701C12.2064 14.0803 11.2309 14.3271 10.2629 14.5977L10.2465 14.6023C10.242 14.6437 10.2414 14.6854 10.2448 14.7269L10.245 14.7289C11.2007 14.694 12.4027 14.1887 13.206 13.872L13.2357 13.8603L13.1894 13.8701ZM10.2917 13.1105C10.6229 13.1795 11.0914 13.0929 11.4115 13.022C12.736 12.7288 13.1847 12.6088 14.4765 12.1945L14.49 12.1901L14.4694 12.1937C13.0694 12.4372 11.6734 12.7285 10.2901 13.0557C10.2921 13.0739 10.2927 13.0922 10.2917 13.1105ZM9.65307 13.0167L9.59234 13.0026C8.34167 12.7128 6.91499 12.416 5.65911 12.1971C5.65911 12.1971 5.6234 12.1917 5.63206 12.1945C6.44222 12.4544 7.26563 12.6716 8.08746 12.8919C8.53371 13.0116 9.19085 13.1453 9.65774 13.1275C9.65608 13.0906 9.65458 13.0537 9.65307 13.0167ZM10.0407 11.5077C10.421 11.5534 10.9329 11.446 11.2971 11.357C12.847 10.9785 13.3374 10.839 14.8523 10.3384L14.9257 10.314L14.9862 10.2938L14.9795 10.2951C13.3264 10.6319 11.6776 11.0183 10.0442 11.4435C10.0451 11.465 10.0439 11.4865 10.0407 11.5077ZM9.50028 11.4459C7.87266 11.0214 6.22817 10.6366 4.58134 10.3005C4.58134 10.3005 4.59935 10.3107 4.60907 10.314C6.14085 10.8224 6.6372 10.9637 8.20417 11.3498C8.57952 11.4423 9.10933 11.5583 9.50201 11.5067C9.49959 11.4865 9.49901 11.4662 9.50028 11.4459ZM4.59287 9.18183C6.19359 9.52234 6.45194 9.55602 8.07126 9.79061C8.57394 9.86338 9.14007 9.98723 9.6423 9.80974L9.64644 9.80824L9.64855 9.80741L9.64373 9.78059L9.64282 9.77502C9.56914 9.76424 9.49545 9.7537 9.42177 9.74315C7.88758 9.52581 6.10265 9.31133 4.56846 9.17188C4.56846 9.17188 4.58428 9.17995 4.59287 9.18183ZM15.2942 9.09C13.6002 9.24398 11.9051 9.44784 10.2211 9.69298L10.2198 9.6932L10.2148 9.7213C10.6633 9.85073 11.3066 9.77358 11.7559 9.71279C13.192 9.51843 13.8523 9.40151 15.2697 9.09994L15.3322 9.08653L15.2942 9.09ZM9.65269 8.68628L9.56168 8.66066C8.21283 8.2812 6.6424 7.87733 5.29016 7.57373C5.29016 7.57373 5.28187 7.57644 5.28406 7.57727C6.14409 7.89127 7.02009 8.16014 7.89248 8.4379C8.46153 8.61908 9.06593 8.81088 9.67416 8.77231C9.66331 8.74468 9.65609 8.71576 9.65269 8.68628ZM10.2221 8.69034C10.8188 8.72922 11.4125 8.54299 11.971 8.3655C12.8547 8.08473 13.7423 7.81345 14.6133 7.49538L14.6473 7.48295L14.6125 7.49064C13.1333 7.82256 11.6593 8.20195 10.2004 8.61712C10.2103 8.6407 10.2176 8.66518 10.2221 8.69034ZM10.2279 7.53945C10.7162 7.50909 11.1875 7.30079 11.6202 7.09407C12.2772 6.78008 12.9375 6.4712 13.5774 6.12361L13.6055 6.10831L13.5856 6.1154C12.4564 6.5207 11.3387 6.96902 10.2366 7.44461L10.2279 7.53945ZM9.71515 7.41184C8.57952 6.91666 7.4237 6.45395 6.25868 6.03554C6.25868 6.03554 6.25929 6.04066 6.26125 6.04172C7.31551 6.61441 7.66585 6.78053 8.77533 7.23721C9.02961 7.34185 9.41499 7.47813 9.6991 7.45802C9.70347 7.44235 9.70882 7.4269 9.71515 7.41184ZM9.99934 6.05227C9.19544 5.47618 8.36894 4.92405 7.52571 4.40853C7.52571 4.40853 7.49203 4.38676 7.49957 4.39347C8.25012 5.05965 8.5637 5.2959 9.39969 5.85044C9.5506 5.95056 9.80918 6.07863 9.99474 6.0943L9.997 6.07389L9.99934 6.05227ZM13.1815 4.32664C12.3729 4.82099 11.4547 5.4349 10.6761 5.9932C10.6283 6.01008 10.7785 6.00104 10.8279 5.98966C10.901 5.97267 10.9716 5.94585 11.0376 5.90996C11.2711 5.78287 11.5033 5.65194 11.7232 5.50247C12.1856 5.18825 12.7904 4.68192 13.2077 4.31158L13.2106 4.30894L13.1815 4.32664ZM10.3293 5.16994C10.4188 4.83101 10.4983 4.43159 10.5569 4.10569L10.5606 4.08505L10.5508 4.11352C10.4342 4.45449 10.3345 4.80457 10.2809 5.16158L10.2933 5.16211C10.3099 5.16542 10.3187 5.16655 10.3293 5.16994Z" fill="black"/>
</g>
<defs>
<clipPath id="clip0_775_2620">
<rect width="19.2876" height="19.2857" fill="white" transform="translate(0.287109 0.285645)"/>
</clipPath>
</defs>
</svg>
