<svg width="20" height="20" viewBox="0 0 20 20" fill="none" xmlns="http://www.w3.org/2000/svg">
<g clip-path="url(#clip0_775_2583)">
<path d="M18.8013 18.3659H1.06055C0.855523 18.3657 0.658943 18.2842 0.513942 18.1393C0.368941 17.9943 0.287363 17.7978 0.287109 17.5928L0.287109 16.4272C0.287348 16.2221 0.368911 16.0256 0.513906 15.8806C0.658902 15.7356 0.85549 15.654 1.06055 15.6538H3.60156C3.68149 15.6538 3.75814 15.6856 3.81466 15.7421C3.87118 15.7986 3.90293 15.8752 3.90293 15.9551C3.90293 16.0351 3.87118 16.1117 3.81466 16.1682C3.75814 16.2247 3.68149 16.2565 3.60156 16.2565H1.06055C1.01528 16.2565 0.971882 16.2745 0.939877 16.3065C0.907872 16.3385 0.889878 16.3819 0.889847 16.4272V17.5928C0.889941 17.638 0.907965 17.6813 0.939965 17.7133C0.971965 17.7452 1.01533 17.7632 1.06055 17.7632H18.8013C18.8465 17.7632 18.8899 17.7452 18.9219 17.7133C18.9539 17.6813 18.9719 17.638 18.972 17.5928V16.4272C18.9719 16.3819 18.9539 16.3385 18.9219 16.3065C18.8899 16.2745 18.8465 16.2565 18.8013 16.2565H15.953C15.8731 16.2565 15.7964 16.2247 15.7399 16.1682C15.6834 16.1117 15.6516 16.0351 15.6516 15.9552C15.6516 15.8752 15.6834 15.7986 15.7399 15.7421C15.7964 15.6856 15.8731 15.6538 15.953 15.6538H18.8013C19.0063 15.6541 19.2029 15.7356 19.3479 15.8806C19.4929 16.0256 19.5745 16.2221 19.5747 16.4272V17.5928C19.5745 17.7978 19.4929 17.9943 19.3479 18.1393C19.2029 18.2842 19.0063 18.3657 18.8013 18.3659Z" fill="black"/>
<path d="M7.41532 16.6717C7.07066 16.6718 6.72822 16.6165 6.40115 16.5078L6.04827 16.3904C5.78259 16.3017 5.50431 16.2566 5.22422 16.2568L3.62585 16.2565C3.46877 16.2569 3.31419 16.2172 3.1767 16.1413C3.03921 16.0653 2.92335 15.9556 2.84005 15.8224C2.75746 15.693 2.70923 15.5446 2.69991 15.3913C2.69059 15.238 2.72049 15.0849 2.78678 14.9464C4.34247 11.6881 6.94885 9.69912 9.75888 9.62614C10.1408 9.61753 10.5228 9.64313 10.9002 9.70265C11.0574 9.73018 11.2174 9.73701 11.3764 9.72295C11.7109 9.6883 12.0489 9.72783 12.3664 9.83871C12.6839 9.9496 12.973 10.1291 13.2131 10.3645L13.649 10.79C13.7074 10.8464 13.7701 10.8983 13.8365 10.9451C15.2273 11.988 16.3338 13.3635 17.0544 14.9455C17.1209 15.0841 17.1509 15.2374 17.1416 15.3908C17.1324 15.5443 17.0841 15.6928 17.0014 15.8224C16.9181 15.9557 16.8022 16.0655 16.6647 16.1415C16.5271 16.2175 16.3725 16.2571 16.2154 16.2568H9.57582C9.24416 16.2565 8.9155 16.3196 8.60756 16.4428C8.22829 16.5941 7.82367 16.6718 7.41532 16.6717ZM9.91927 10.2268C9.87101 10.2268 9.82304 10.2274 9.77477 10.2288C7.19577 10.2956 4.78659 12.1563 3.33066 15.2059C3.30843 15.2527 3.29852 15.3043 3.30186 15.356C3.30521 15.4076 3.32171 15.4576 3.34979 15.5011C3.37905 15.5479 3.41975 15.5865 3.46804 15.6132C3.51634 15.6399 3.57065 15.6539 3.62585 15.6538L5.22422 15.6541C5.56913 15.6539 5.91182 15.7094 6.23898 15.8186L6.59156 15.9357C7.17646 16.1304 7.81143 16.1118 8.38388 15.8831C8.76297 15.7315 9.16754 15.6537 9.57582 15.6541H16.2154C16.2706 15.6542 16.325 15.6402 16.3734 15.6135C16.4217 15.5867 16.4625 15.548 16.4917 15.5011C16.5199 15.4575 16.5364 15.4074 16.5397 15.3557C16.543 15.3039 16.533 15.2521 16.5105 15.2053C15.8338 13.7153 14.7937 12.419 13.4857 11.4354C13.3945 11.3707 13.3084 11.2992 13.2282 11.2214L12.792 10.7956C12.6148 10.6221 12.4016 10.4897 12.1674 10.408C11.9333 10.3263 11.684 10.2971 11.4373 10.3227C11.2263 10.342 11.0137 10.3336 10.8048 10.2977C10.512 10.2506 10.2159 10.2269 9.91927 10.2268Z" fill="black"/>
<path d="M7.82726 12.3393C7.78768 12.3395 7.74845 12.3319 7.71182 12.3169C7.67518 12.3019 7.64185 12.2799 7.61373 12.2521C7.5856 12.2242 7.56324 12.1911 7.54792 12.1546C7.5326 12.1181 7.52461 12.079 7.52442 12.0394C7.52422 11.9998 7.53183 11.9606 7.5468 11.924C7.56176 11.8874 7.5838 11.854 7.61165 11.8259C7.63949 11.7978 7.67261 11.7754 7.7091 11.7601C7.74559 11.7448 7.78474 11.7368 7.82432 11.7366H7.82726C7.90718 11.7366 7.98384 11.7684 8.04036 11.8249C8.09687 11.8814 8.12863 11.958 8.12863 12.0379C8.12863 12.1179 8.09687 12.1945 8.04036 12.251C7.98384 12.3075 7.90718 12.3393 7.82726 12.3393ZM12.9505 15.0513C12.8706 15.0517 12.7938 15.0204 12.737 14.9641C12.6802 14.9079 12.6481 14.8314 12.6477 14.7515C12.6473 14.6716 12.6787 14.5947 12.7349 14.538C12.7912 14.4812 12.8677 14.4491 12.9476 14.4487H12.9505C13.0305 14.4487 13.1071 14.4804 13.1636 14.5369C13.2201 14.5934 13.2519 14.6701 13.2519 14.75C13.2519 14.8299 13.2201 14.9066 13.1636 14.9631C13.1071 15.0196 13.0305 15.0513 12.9505 15.0513ZM12.6492 13.2433C12.5692 13.2437 12.4924 13.2123 12.4356 13.1561C12.3788 13.0998 12.3467 13.0234 12.3463 12.9434C12.3459 12.8635 12.3773 12.7867 12.4335 12.7299C12.4898 12.6731 12.5663 12.641 12.6462 12.6406H12.6492C12.7291 12.6406 12.8057 12.6724 12.8623 12.7289C12.9188 12.7854 12.9505 12.862 12.9505 12.942C12.9505 13.0219 12.9188 13.0985 12.8623 13.155C12.8057 13.2116 12.7291 13.2433 12.6492 13.2433ZM18.535 4.8058H9.79528C9.71535 4.8058 9.63869 4.77406 9.58218 4.71754C9.52566 4.66103 9.49391 4.58439 9.49391 4.50446C9.49391 4.42454 9.52566 4.3479 9.58218 4.29139C9.63869 4.23487 9.71535 4.20313 9.79528 4.20313H18.5291C18.6093 4.20297 18.6864 4.23457 18.7434 4.29103C18.8004 4.34749 18.8328 4.42423 18.8334 4.50446C18.8337 4.54389 18.8263 4.58299 18.8115 4.61952C18.7966 4.65604 18.7747 4.68927 18.747 4.71729C18.7192 4.7453 18.6862 4.76755 18.6498 4.78274C18.6134 4.79793 18.5744 4.80577 18.535 4.8058Z" fill="black"/>
<path d="M18.6706 16.2568C18.631 16.2569 18.5918 16.2491 18.5552 16.2339C18.5186 16.2188 18.4854 16.1966 18.4574 16.1686C18.4294 16.1406 18.4072 16.1074 18.3921 16.0708C18.3769 16.0343 18.3692 15.9951 18.3692 15.9555V5.12817C18.3696 4.96987 18.3376 4.81317 18.2753 4.66765C18.213 4.52212 18.1217 4.39084 18.0069 4.28183L16.9492 3.20948C16.8936 3.15309 16.8624 3.0771 16.8623 2.99791V2.09389H11.4377V2.99791C11.4377 3.07683 11.4068 3.1526 11.3515 3.2089L10.3811 4.19708C10.2393 4.33066 10.1263 4.49176 10.0488 4.67052C9.97142 4.84928 9.93128 5.04195 9.93086 5.23676V9.93459C9.93086 10.0145 9.89911 10.0912 9.84259 10.1477C9.78608 10.2042 9.70942 10.2359 9.62949 10.2359C9.54957 10.2359 9.47291 10.2042 9.41639 10.1477C9.35988 10.0912 9.32813 10.0145 9.32813 9.93459V5.23676C9.32801 4.96231 9.38367 4.69071 9.49174 4.43844C9.5998 4.18616 9.75801 3.95847 9.95676 3.7692L10.835 2.8746V1.79255C10.8349 1.75297 10.8427 1.71378 10.8579 1.67721C10.873 1.64064 10.8952 1.60741 10.9232 1.57942C10.9512 1.55143 10.9844 1.52924 11.021 1.5141C11.0576 1.49897 11.0968 1.49119 11.1363 1.49121H17.1637C17.2033 1.49119 17.2425 1.49897 17.2791 1.5141C17.3156 1.52924 17.3489 1.55143 17.3769 1.57942C17.4049 1.60741 17.427 1.64064 17.4422 1.67721C17.4573 1.71378 17.4651 1.75297 17.4651 1.79255V2.8743L18.4301 3.85277C18.6022 4.0175 18.739 4.21551 18.8322 4.43477C18.9253 4.65403 18.9729 4.88995 18.9719 5.12817V15.9555C18.9719 15.9951 18.9642 16.0343 18.949 16.0708C18.9339 16.1074 18.9117 16.1406 18.8837 16.1686C18.8557 16.1966 18.8225 16.2188 18.7859 16.2339C18.7493 16.2491 18.7101 16.2569 18.6706 16.2568Z" fill="black"/>
<path d="M17.1637 3.29946H11.1363C11.0564 3.29946 10.9797 3.26771 10.9232 3.2112C10.8667 3.15468 10.835 3.07804 10.835 2.99812C10.835 2.9182 10.8667 2.84155 10.9232 2.78504C10.9797 2.72853 11.0564 2.69678 11.1363 2.69678H17.1637C17.2436 2.69678 17.3203 2.72853 17.3768 2.78504C17.4333 2.84155 17.4651 2.9182 17.4651 2.99812C17.4651 3.07804 17.4333 3.15468 17.3768 3.2112C17.3203 3.26771 17.2436 3.29946 17.1637 3.29946ZM14.394 12.0833C14.3339 12.0833 14.2752 12.0654 14.2253 12.0317C14.1755 11.9981 14.1369 11.9503 14.1144 11.8946C14.092 11.8389 14.0867 11.7777 14.0993 11.7189C14.1119 11.6601 14.1417 11.6065 14.185 11.5648C14.4242 11.3474 14.6172 11.0842 14.7525 10.7907C14.8879 10.4972 14.9628 10.1795 14.9729 9.8565C14.9733 9.78731 14.9699 9.71814 14.9626 9.64933C14.8928 9.04614 14.6034 8.48973 14.1497 8.08614C13.6951 8.48606 13.4058 9.04092 13.338 9.64255C13.3305 9.70149 13.3268 9.76087 13.3271 9.8203C13.3248 10.1126 13.3817 10.4024 13.4943 10.6722C13.5249 10.7461 13.5249 10.829 13.4943 10.9029C13.4638 10.9767 13.4051 11.0354 13.3313 11.066C13.2574 11.0966 13.1744 11.0966 13.1006 11.066C13.0268 11.0354 12.9681 10.9768 12.9375 10.9029C12.7941 10.5593 12.7216 10.1903 12.7244 9.81794C12.724 9.73698 12.7289 9.65607 12.7391 9.57575C12.8242 8.8155 13.1932 8.11536 13.7721 7.61528C13.8776 7.52618 14.0112 7.47719 14.1492 7.47697C14.2873 7.47676 14.421 7.52533 14.5267 7.61411C15.1064 8.11966 15.4759 8.82386 15.5624 9.58811C15.5718 9.67824 15.5763 9.76882 15.5756 9.85944C15.5658 10.2632 15.4746 10.6608 15.3075 11.0285C15.1404 11.3961 14.9007 11.7263 14.603 11.9991C14.5469 12.0533 14.4719 12.0835 14.394 12.0833Z" fill="black"/>
<path d="M15.3433 12.2077C15.2089 12.2076 15.0746 12.1988 14.9413 12.1812C14.8114 12.1583 14.6922 12.0947 14.6006 11.9998C14.5091 11.9048 14.45 11.7833 14.4319 11.6527C14.4248 11.5827 14.4189 11.512 14.4157 11.4346C14.414 11.3951 14.4201 11.3556 14.4338 11.3184C14.4474 11.2813 14.4682 11.2472 14.495 11.218C14.5218 11.1889 14.5541 11.1654 14.59 11.1488C14.626 11.1322 14.6648 11.1228 14.7044 11.1212C14.7838 11.1197 14.8607 11.1488 14.9191 11.2026C14.9775 11.2564 15.0129 11.3307 15.0178 11.4099C15.0205 11.4744 15.0258 11.5332 15.0308 11.5844C15.3205 11.6346 15.6181 11.6158 15.8992 11.5295C16.1804 11.4432 16.4372 11.2918 16.6489 11.0877C16.8558 10.8397 17.0071 10.5501 17.0924 10.2386C17.1778 9.92706 17.1952 9.60085 17.1436 9.282C16.8542 9.22963 16.5565 9.24689 16.2751 9.33234C15.9937 9.4178 15.7366 9.569 15.5252 9.77344C15.5152 9.78403 15.5067 9.79227 15.4987 9.80228C15.4494 9.86502 15.3772 9.90564 15.298 9.91522C15.2188 9.92479 15.139 9.90254 15.0761 9.85335C15.0133 9.80416 14.9726 9.73205 14.9628 9.65285C14.9531 9.57364 14.9752 9.49382 15.0243 9.4309C15.0442 9.40573 15.0654 9.38166 15.0879 9.35881C15.3658 9.0837 15.7052 8.87869 16.0781 8.76074C16.451 8.64279 16.8466 8.61528 17.2322 8.68049C17.3619 8.70349 17.481 8.76691 17.5725 8.86168C17.664 8.95645 17.7232 9.07771 17.7416 9.20814C17.805 9.61537 17.7792 10.0315 17.6659 10.4278C17.5527 10.824 17.3547 11.191 17.0856 11.5032C16.8595 11.7344 16.588 11.9163 16.2881 12.0376C15.9883 12.1588 15.6666 12.2167 15.3433 12.2077ZM10.8561 10.3023C10.7978 10.3023 10.7408 10.2854 10.6919 10.2537C10.643 10.222 10.6043 10.1768 10.5806 10.1236C10.5311 10.013 10.3019 9.44208 10.623 9.05129C10.757 8.90496 10.9371 8.80899 11.1333 8.77937C11.4997 8.69364 11.8818 8.70137 12.2445 8.80184C12.6071 8.90232 12.9387 9.09232 13.2087 9.35439L13.2541 9.40295C13.3084 9.46212 13.3372 9.54032 13.3342 9.62059C13.3312 9.70086 13.2967 9.77672 13.2382 9.83171C13.2095 9.85863 13.1759 9.87962 13.1391 9.89345C13.1023 9.90728 13.0631 9.91369 13.0239 9.91229C12.9846 9.91089 12.946 9.90173 12.9103 9.88532C12.8746 9.86891 12.8425 9.84559 12.8158 9.8167L12.8091 9.80934L12.7761 9.77403C12.5782 9.58697 12.337 9.45185 12.0741 9.38073C11.8112 9.30961 11.5348 9.3047 11.2696 9.36646C11.2051 9.37537 11.1435 9.39827 11.0889 9.43355C11.0262 9.50977 11.0621 9.72371 11.1309 9.8782C11.1471 9.91433 11.1559 9.95329 11.157 9.99284C11.1581 10.0324 11.1513 10.0718 11.1372 10.1087C11.123 10.1457 11.1017 10.1795 11.0745 10.2082C11.0473 10.2369 11.0146 10.26 10.9785 10.2761C10.94 10.2934 10.8983 10.3023 10.8561 10.3023Z" fill="black"/>
<path d="M11.7389 9.32845C11.6993 9.32847 11.6601 9.32069 11.6235 9.30556C11.5869 9.29042 11.5537 9.26823 11.5257 9.24024C11.4977 9.21225 11.4755 9.17902 11.4604 9.14245C11.4453 9.10588 11.4375 9.06669 11.4375 9.02711V7.21673C11.4375 7.13681 11.4693 7.06016 11.5258 7.00365C11.5823 6.94714 11.6589 6.91539 11.7389 6.91539C11.8188 6.91539 11.8955 6.94714 11.952 7.00365C12.0085 7.06016 12.0402 7.13681 12.0402 7.21673V9.02712C12.0403 9.06669 12.0325 9.10589 12.0173 9.14246C12.0022 9.17903 11.98 9.21226 11.952 9.24024C11.924 9.26823 11.8908 9.29042 11.8542 9.30556C11.8176 9.32069 11.7785 9.32847 11.7389 9.32845ZM16.5608 9.27107C16.5212 9.27109 16.482 9.26331 16.4454 9.24817C16.4088 9.23304 16.3756 9.21084 16.3476 9.18286C16.3196 9.15487 16.2974 9.12164 16.2823 9.08507C16.2672 9.0485 16.2594 9.0093 16.2594 8.96973V7.21673C16.2594 7.13681 16.2912 7.06016 16.3477 7.00365C16.4042 6.94714 16.4808 6.91539 16.5608 6.91539C16.6407 6.91539 16.7174 6.94714 16.7739 7.00365C16.8304 7.06016 16.8621 7.13681 16.8621 7.21673V8.96973C16.8622 9.00931 16.8544 9.0485 16.8392 9.08507C16.8241 9.12164 16.8019 9.15487 16.7739 9.18286C16.7459 9.21084 16.7127 9.23304 16.6761 9.24817C16.6395 9.26331 16.6004 9.27109 16.5608 9.27107ZM14.1495 8.0766C14.1099 8.07662 14.0707 8.06884 14.0342 8.0537C13.9976 8.03857 13.9644 8.01637 13.9364 7.98839C13.9084 7.9604 13.8862 7.92717 13.871 7.8906C13.8559 7.85403 13.8481 7.81484 13.8481 7.77526V5.71003C13.8481 5.63011 13.8799 5.55346 13.9364 5.49695C13.9929 5.44044 14.0696 5.40869 14.1495 5.40869C14.2294 5.40869 14.3061 5.44044 14.3626 5.49695C14.4191 5.55346 14.4509 5.63011 14.4509 5.71003V7.77526C14.4509 7.81484 14.4431 7.85404 14.428 7.89061C14.4129 7.92718 14.3907 7.9604 14.3627 7.98839C14.3347 8.01637 14.3014 8.03857 14.2649 8.0537C14.2283 8.06884 14.1891 8.07662 14.1495 8.0766Z" fill="black"/>
</g>
<defs>
<clipPath id="clip0_775_2583">
<rect width="19.2876" height="19.2857" fill="white" transform="translate(0.287109 0.285645)"/>
</clipPath>
</defs>
</svg>
