<svg width="20" height="20" viewBox="0 0 20 20" fill="none" xmlns="http://www.w3.org/2000/svg">
<path d="M8.24687 2.85693C7.33433 2.85693 6.52907 3.2993 5.86967 3.93091C5.21088 4.56131 4.67143 5.3912 4.23083 6.27653C3.35083 8.0478 2.8584 10.0234 2.8584 11.2534C2.8584 12.9566 3.31045 14.4392 4.30075 15.3613C5.25729 16.2533 6.6243 16.7035 8.24627 16.7035H8.24988C8.79421 16.7058 9.33713 16.6482 9.86884 16.5317C10.6476 16.727 11.4131 16.7565 12.1339 16.5908C13.4527 16.2864 14.5859 15.2299 15.4381 13.7546C16.0535 12.6896 16.6177 10.7303 16.7413 8.75655C16.8033 7.76936 16.7503 6.78338 16.4953 5.90829C16.2404 5.0314 15.7642 4.24611 14.9746 3.79048C14.9339 3.76702 14.8883 3.7534 14.8414 3.75071C14.4804 3.56629 14.1001 3.43852 13.7065 3.40778C13.2671 3.37343 12.8186 3.42345 12.375 3.53254C11.8518 3.66091 11.3341 3.88329 10.8272 4.14486C10.7603 4.07434 10.6976 3.9972 10.6283 3.93091C9.96829 3.2993 9.16243 2.85693 8.24988 2.85693H8.24627H8.24687ZM8.24687 3.45961H8.24988C8.96774 3.45961 9.62593 3.80615 10.2112 4.36604C10.3197 4.4697 10.4222 4.58722 10.5246 4.70354C10.5266 4.70618 10.5286 4.7088 10.5306 4.71137C10.656 4.85536 10.7753 5.00455 10.8881 5.15856C11.021 5.33927 11.1462 5.52546 11.2636 5.71664C11.3196 5.80704 11.3763 5.89745 11.4299 5.99086C11.5324 6.17106 11.6324 6.35608 11.7265 6.54533C11.8314 6.75626 11.9314 6.96961 12.0242 7.18657V7.18778C12.117 7.40474 12.205 7.62352 12.2858 7.84229V7.84349C12.3135 7.91823 12.3358 7.99235 12.3624 8.06648C12.5661 8.64686 12.7312 9.21941 12.8433 9.74073V9.74193C12.9705 10.3307 13.0362 10.8557 13.0362 11.2534C13.0362 11.8519 12.9759 12.4094 12.8566 12.9132C12.6577 13.7528 12.2973 14.4434 11.7855 14.9201C11.6634 15.0326 11.5339 15.1369 11.398 15.2323C11.3648 15.2552 11.3293 15.2769 11.2955 15.2986C11.1469 15.3972 10.9918 15.4858 10.8314 15.5638C10.7099 15.6232 10.5858 15.6771 10.4595 15.7253C10.4197 15.7404 10.3812 15.7567 10.3408 15.7711C10.165 15.8341 9.98589 15.8876 9.80434 15.9314C9.33059 16.0429 8.81224 16.1008 8.24988 16.1008H8.24627C6.73521 16.1008 5.53395 15.6861 4.71121 14.9201C3.89209 14.1572 3.46114 12.8493 3.46114 11.2534C3.46114 10.1921 3.93187 8.23282 4.77149 6.54533C5.19099 5.70158 5.70031 4.92713 6.28617 4.36604C6.87142 3.80555 7.52841 3.45961 8.24627 3.45961H8.24687ZM13.6595 4.00925C14.0211 4.03758 14.3598 4.1328 14.6708 4.3118C14.6728 4.31384 14.6748 4.31585 14.6769 4.31783C15.2959 4.67702 15.6913 5.30321 15.9173 6.07885C16.1439 6.85751 16.1988 7.78142 16.1403 8.7216C16.0222 10.6026 15.4478 12.5353 14.9168 13.4544C14.1181 14.8364 13.0899 15.7542 11.9983 16.0056C11.7916 16.0532 11.5517 15.9803 11.3323 15.9845C11.6246 15.8205 11.8928 15.6289 12.1375 15.4101C12.1556 15.3932 12.1779 15.3806 12.196 15.3637C12.6915 14.9021 13.0519 14.3006 13.2888 13.6009C13.3478 13.4261 13.4003 13.2453 13.4443 13.0603V13.0579C13.4877 12.8722 13.5244 12.6818 13.5534 12.4859V12.4835C13.5823 12.2876 13.604 12.0876 13.6185 11.8832V11.8808C13.6323 11.6759 13.6396 11.468 13.6396 11.2559V11.2534C13.6396 11.0998 13.6323 10.934 13.6173 10.7593C13.6005 10.5749 13.5776 10.3912 13.5485 10.2084V10.206C13.5184 10.0131 13.481 9.81305 13.437 9.60693V9.60452C13.3914 9.39172 13.3404 9.18011 13.2839 8.9699V8.96749C13.2255 8.75052 13.1604 8.52934 13.0887 8.30575V8.30454C13.0163 8.08155 12.938 7.85555 12.853 7.62954V7.62774C12.6807 7.16802 12.4849 6.71743 12.2665 6.27774V6.27713C11.9818 5.69813 11.6406 5.14863 11.2479 4.63664C11.6758 4.4239 12.1038 4.2226 12.5185 4.12075C12.8906 4.02438 13.2758 3.98776 13.6595 4.01227V4.01046V4.00925ZM7.41087 4.32506C7.34279 4.32756 7.27757 4.35305 7.22583 4.39738C6.7111 4.82528 6.29521 5.24836 6.03543 5.61419C5.8534 5.87093 5.69428 6.13008 5.56228 6.38983C5.49598 6.51941 5.43751 6.64959 5.38447 6.77916C5.36862 6.81597 5.36028 6.85558 5.35992 6.89565C5.35957 6.93573 5.36721 6.97547 5.38241 7.01255C5.3976 7.04964 5.42004 7.08332 5.44841 7.11163C5.47679 7.13994 5.51052 7.1623 5.54764 7.17741C5.58476 7.19252 5.62453 7.20008 5.6646 7.19964C5.70468 7.19919 5.74427 7.19076 5.78105 7.17484C5.81783 7.15891 5.85106 7.13581 5.8788 7.10688C5.90654 7.07795 5.92823 7.04378 5.94261 7.00637C5.98902 6.89307 6.04145 6.77796 6.10052 6.66285C6.21806 6.43202 6.3597 6.19878 6.52666 5.96374C6.73521 5.66963 7.12457 5.26584 7.61098 4.86204C7.66052 4.8224 7.69629 4.76814 7.71318 4.70698C7.73007 4.64582 7.72722 4.58089 7.70504 4.52145C7.68287 4.462 7.64249 4.41107 7.58967 4.37592C7.53685 4.34076 7.47428 4.32317 7.41087 4.32566V4.32506ZM5.31335 7.63858C5.23342 7.63858 5.15677 7.67033 5.10025 7.72684C5.04373 7.78336 5.01198 7.86 5.01198 7.93992C5.01198 8.01984 5.04373 8.09649 5.10025 8.153C5.15677 8.20951 5.23342 8.24126 5.31335 8.24126C5.39328 8.24126 5.46993 8.20951 5.52645 8.153C5.58297 8.09649 5.61472 8.01984 5.61472 7.93992C5.61472 7.86 5.58297 7.78336 5.52645 7.72684C5.46993 7.67033 5.39328 7.63858 5.31335 7.63858Z" fill="black"/>
</svg>
