<svg width="40" height="40" viewBox="0 0 40 40" fill="none" xmlns="http://www.w3.org/2000/svg">
<path d="M7.21239 32.6698C7.36265 32.8197 7.56629 32.9038 7.77855 32.9037C7.99082 32.9035 8.19434 32.8191 8.34439 32.669L19.778 21.2218L31.2116 32.669C31.3615 32.8192 31.5649 32.9037 31.7771 32.9039C31.9894 32.9042 32.193 32.8201 32.3432 32.6702C32.4934 32.5203 32.5779 32.3168 32.5781 32.1046C32.5784 31.8924 32.4943 31.6888 32.3444 31.5386L20.922 20.1034L32.3436 8.66898C32.4199 8.59512 32.4808 8.5068 32.5227 8.40917C32.5645 8.31154 32.5865 8.20655 32.5874 8.10033C32.5882 7.9941 32.5679 7.88877 32.5276 7.79049C32.4873 7.6922 32.4279 7.60292 32.3527 7.52786C32.2775 7.4528 32.1882 7.39346 32.0898 7.35331C31.9915 7.31315 31.8861 7.29298 31.7799 7.29398C31.6737 7.29498 31.5687 7.31712 31.4711 7.35912C31.3736 7.40111 31.2853 7.46212 31.2116 7.53858L19.7772 18.9858L8.34359 7.53858C8.26985 7.46212 8.18161 7.40111 8.08404 7.35912C7.98647 7.31712 7.88151 7.29498 7.77528 7.29398C7.66906 7.29298 7.56371 7.31315 7.46536 7.35331C7.36702 7.39346 7.27765 7.4528 7.20249 7.52786C7.12732 7.60292 7.06786 7.6922 7.02756 7.79049C6.98727 7.88877 6.96695 7.9941 6.9678 8.10033C6.96865 8.20655 6.99064 8.31154 7.0325 8.40917C7.07435 8.5068 7.13524 8.59512 7.21159 8.66898L18.6324 20.1034L7.21159 31.5386C7.06172 31.6887 6.97761 31.8922 6.97776 32.1043C6.97791 32.3165 7.06231 32.5199 7.21239 32.6698V32.6698Z" fill="#231F20"/>
</svg>
