<?xml version="1.0" encoding="UTF-8"?>
<svg id="_圖層_2" data-name="圖層 2" xmlns="http://www.w3.org/2000/svg" viewBox="0 0 40.76 41.24">
  <defs>
    <style>
      .cls-1 {
        fill: #ffbe17;
      }
    </style>
  </defs>
  <g id="_圖層_1-2" data-name="圖層 1">
    <path class="cls-1" d="m40.72,36.54L34.95,2.45l-.02-.1c-.03-.21-.19-.37-.4-.41l-.32-.06-6.48-1.2c-2.43-.45-4.89-.67-7.35-.68-2.46.01-4.92.23-7.35.68l-6.8,1.26c-.21.04-.37.2-.4.41L0,36.73c-.05.26.11.5.36.57l8.95,2.45c3.62.99,7.34,1.49,11.06,1.49s7.44-.5,11.06-1.49l8.95-2.45c.11-.03.19-.09.26-.17.09-.11.13-.25.1-.4l-.03-.19ZM34.29,3.06l2.06,12.2h-15.03l12.97-12.2ZM21.13.76c2.19.05,4.37.27,6.46.66l2.48.46h-8.94V.76Zm0,1.87h12.52l-12.52,11.78V2.63Zm10.11,36.4c-3.31.9-6.7,1.39-10.11,1.45v-3.35h17.05l-6.94,1.9Zm-10.11-2.65v-19.41l18.41,19.41h-18.41Zm.12-20.37h15.23l3.31,19.55-18.54-19.55Z"/>
  </g>
</svg>