<svg width="100" height="96" viewBox="0 0 100 96" fill="none" xmlns="http://www.w3.org/2000/svg">
<path d="M43.6102 5.21928C47.3287 2.18198 52.6713 2.18198 56.3898 5.21928C58.7784 7.17027 61.9274 7.92314 64.9401 7.26351L65.4024 7.16227C69.9388 6.16903 74.5363 8.56213 76.325 12.8477C77.494 15.6485 79.9175 17.7324 82.8618 18.4685L83.4135 18.6064C87.8437 19.714 90.7724 23.9267 90.2674 28.4652C89.936 31.4432 91.0882 34.394 93.3498 36.3596L93.4785 36.4715C96.9771 39.512 97.6066 44.712 94.9432 48.5054C93.2233 50.955 92.8275 54.1024 93.8916 56.8999C95.5209 61.1838 93.6789 66.0086 89.6092 68.1166L89.2372 68.3093C86.5633 69.6944 84.722 72.2846 84.2924 75.2652C83.6379 79.8067 79.7793 83.1987 75.1914 83.2659L74.6041 83.2745C71.543 83.3193 68.6753 84.7796 66.8387 87.2288C64.0066 91.0054 58.8999 92.2532 54.6453 90.2083L54.4169 90.0985C51.6251 88.7567 48.3748 88.7567 45.5831 90.0985L45.3547 90.2083C41.1001 92.2532 35.9934 91.0054 33.1613 87.2288C31.3247 84.7796 28.457 83.3193 25.3959 83.2745L24.8086 83.2659C20.2207 83.1987 16.3621 79.8067 15.7076 75.2652C15.278 72.2846 13.4367 69.6944 10.7628 68.3093L10.3908 68.1166C6.32107 66.0086 4.47907 61.1838 6.10844 56.8999C7.17248 54.1024 6.77669 50.955 5.05681 48.5054C2.39339 44.712 3.02293 39.512 6.52146 36.4715L6.65023 36.3596C8.91183 34.394 10.064 31.4432 9.73264 28.4652C9.22762 23.9267 12.1563 19.714 16.5865 18.6064L17.1382 18.4685C20.0825 17.7324 22.506 15.6485 23.675 12.8477C25.4637 8.56213 30.0612 6.16903 34.5976 7.16227L35.0599 7.26351C38.0726 7.92314 41.2216 7.17027 43.6102 5.21928Z" fill="#FFBE17"/>
<path d="M88.7766 37.8846L89.1036 37.5063L88.7766 37.8846L88.906 37.9964C91.8585 40.5481 92.3894 44.9313 90.1378 48.1203C88.4918 50.4517 88.1125 53.4545 89.1323 56.1207C90.509 59.7201 88.9584 63.779 85.5326 65.5437L85.1598 65.7357C82.6107 67.0487 80.8534 69.5127 80.4422 72.3503C79.8874 76.1783 76.6338 79.0361 72.7662 79.0924L72.1791 79.1009C69.2692 79.1433 66.542 80.5273 64.7897 82.8509C62.3766 86.0509 58.0436 87.1085 54.4276 85.3801L54.1991 85.271C51.5438 84.0018 48.4568 84.0018 45.8015 85.271L45.573 85.3801C41.957 87.1085 37.624 86.0509 35.2108 82.8509C33.4586 80.5273 30.7314 79.1433 27.8215 79.1009L27.2344 79.0924C23.3668 79.0361 20.1132 76.1783 19.5584 72.3503C19.1472 69.5127 17.3899 67.0487 14.8408 65.7357L14.468 65.5437C11.0422 63.779 9.49158 59.7201 10.8683 56.1207C11.8881 53.4545 11.5088 50.4517 9.86275 48.1203C7.61119 44.9313 8.14208 40.5481 11.0946 37.9964L11.224 37.8846C13.3845 36.0174 14.4859 33.2054 14.1684 30.3676C13.7412 26.5503 16.2066 23.0066 19.9343 22.0798L20.4863 21.9426C23.2882 21.246 25.5967 19.2676 26.7141 16.6054C28.2343 12.9835 32.1222 10.9618 35.9603 11.7975L36.4223 11.8981C39.2858 12.5215 42.2774 11.8088 44.5521 9.96109C47.7266 7.38259 52.274 7.38259 55.4485 9.96109C57.7232 11.8088 60.7148 12.5215 63.5783 11.8981L64.0403 11.7975C67.8784 10.9618 71.7663 12.9835 73.2865 16.6054C74.4039 19.2676 76.7124 21.246 79.5143 21.9426L80.0663 22.0798C83.794 23.0066 86.2594 26.5503 85.8322 30.3676C85.5147 33.2054 86.6161 36.0174 88.7766 37.8846Z" stroke="white"/>
</svg>
