<svg width="30" height="30" viewBox="0 0 30 30" fill="none" xmlns="http://www.w3.org/2000/svg">
<path d="M12.3812 4C10.9619 4 9.70938 4.68813 8.68375 5.67062C7.65906 6.65125 6.82 7.94219 6.13469 9.31937C4.76594 12.0747 4 15.1478 4 17.0613C4 19.7106 4.70313 22.0169 6.24344 23.4512C7.73125 24.8387 9.8575 25.5391 12.3803 25.5391H12.3859C13.2326 25.5427 14.077 25.4531 14.9041 25.2719C16.1153 25.5756 17.3059 25.6216 18.4272 25.3637C20.4784 24.8903 22.2409 23.2469 23.5666 20.9519C24.5238 19.2953 25.4013 16.2475 25.5934 13.1772C25.69 11.6416 25.6075 10.1078 25.2109 8.74656C24.8144 7.3825 24.0737 6.16094 22.8456 5.45219C22.7823 5.4157 22.7114 5.39451 22.6384 5.39031C22.0769 5.10344 21.4853 4.90469 20.8731 4.85687C20.1897 4.80344 19.4922 4.88125 18.8022 5.05094C17.9884 5.25062 17.1831 5.59656 16.3947 6.00344C16.2906 5.89375 16.1931 5.77375 16.0853 5.67062C15.0588 4.68813 13.8053 4 12.3859 4H12.3803H12.3812ZM12.3812 4.9375H12.3859C13.5025 4.9375 14.5262 5.47656 15.4366 6.3475C15.6053 6.50875 15.7647 6.69156 15.9241 6.8725C15.9271 6.87661 15.9302 6.88068 15.9334 6.88469C16.1284 7.10866 16.3139 7.34074 16.4894 7.58031C16.6961 7.86142 16.8909 8.15105 17.0734 8.44844C17.1606 8.58906 17.2488 8.72969 17.3322 8.875C17.4916 9.15531 17.6472 9.44312 17.7934 9.7375C17.9566 10.0656 18.1122 10.3975 18.2566 10.735V10.7369C18.4009 11.0744 18.5378 11.4147 18.6634 11.755V11.7569C18.7066 11.8731 18.7412 11.9884 18.7825 12.1037C19.0994 13.0066 19.3562 13.8972 19.5306 14.7081V14.71C19.7284 15.6259 19.8306 16.4425 19.8306 17.0613C19.8306 17.9922 19.7369 18.8594 19.5512 19.6431C19.2419 20.9491 18.6813 22.0234 17.8853 22.765C17.6953 22.94 17.4939 23.1022 17.2825 23.2506C17.2309 23.2862 17.1756 23.32 17.1231 23.3537C16.8919 23.5071 16.6508 23.6449 16.4013 23.7662C16.2123 23.8586 16.0193 23.9424 15.8228 24.0175C15.7609 24.0409 15.7009 24.0662 15.6381 24.0887C15.3646 24.1867 15.0861 24.27 14.8038 24.3381C14.0669 24.5116 13.2606 24.6016 12.3859 24.6016H12.3803C10.03 24.6016 8.16156 23.9566 6.88187 22.765C5.60781 21.5781 4.9375 19.5438 4.9375 17.0613C4.9375 15.4103 5.66969 12.3625 6.97562 9.7375C7.62812 8.425 8.42031 7.22031 9.33156 6.3475C10.2419 5.47562 11.2638 4.9375 12.3803 4.9375H12.3812ZM20.8 5.7925C21.3625 5.83656 21.8894 5.98469 22.3731 6.26312C22.3762 6.26629 22.3793 6.26942 22.3825 6.2725C23.3453 6.83125 23.9603 7.80531 24.3119 9.01187C24.6644 10.2231 24.7497 11.6603 24.6587 13.1228C24.475 16.0487 23.5816 19.0553 22.7556 20.485C21.5134 22.6347 19.9141 24.0625 18.2162 24.4534C17.8947 24.5275 17.5216 24.4141 17.1803 24.4206C17.635 24.1656 18.0522 23.8675 18.4328 23.5272C18.4609 23.5009 18.4956 23.4812 18.5238 23.455C19.2944 22.7369 19.855 21.8012 20.2234 20.7128C20.3153 20.4409 20.3969 20.1597 20.4653 19.8719V19.8681C20.5328 19.5794 20.59 19.2831 20.635 18.9784V18.9747C20.68 18.67 20.7137 18.3588 20.7362 18.0409V18.0372C20.7578 17.7184 20.7691 17.395 20.7691 17.065V17.0613C20.7691 16.8222 20.7578 16.5644 20.7344 16.2925C20.7083 16.0058 20.6727 15.72 20.6275 15.4356V15.4319C20.5806 15.1319 20.5225 14.8206 20.4541 14.5V14.4963C20.3831 14.1652 20.3037 13.836 20.2159 13.5091V13.5053C20.125 13.1678 20.0237 12.8237 19.9122 12.4759V12.4741C19.7997 12.1272 19.6778 11.7756 19.5456 11.4241V11.4212C19.2776 10.7061 18.9731 10.0052 18.6334 9.32125V9.32031C18.1906 8.41963 17.6599 7.56487 17.0491 6.76844C17.7147 6.4375 18.3803 6.12437 19.0253 5.96594C19.6042 5.81602 20.2032 5.75906 20.8 5.79719V5.79437V5.7925ZM11.0809 6.28375C10.975 6.28764 10.8736 6.3273 10.7931 6.39625C9.9925 7.06187 9.34562 7.72 8.94156 8.28906C8.65844 8.68844 8.41094 9.09156 8.20563 9.49562C8.1025 9.69719 8.01156 9.89969 7.92906 10.1012C7.90441 10.1585 7.89143 10.2201 7.89088 10.2825C7.89033 10.3448 7.90222 10.4066 7.92585 10.4643C7.94949 10.522 7.98439 10.5744 8.02852 10.6184C8.07265 10.6624 8.12512 10.6972 8.18286 10.7207C8.2406 10.7443 8.30245 10.756 8.36478 10.7553C8.42712 10.7546 8.4887 10.7415 8.5459 10.7167C8.60311 10.692 8.6548 10.656 8.69795 10.611C8.74109 10.566 8.77483 10.5129 8.79719 10.4547C8.86937 10.2784 8.95094 10.0994 9.04281 9.92031C9.22562 9.56125 9.44594 9.19844 9.70563 8.83281C10.03 8.37531 10.6356 7.74719 11.3922 7.11906C11.4692 7.0574 11.5249 6.97298 11.5511 6.87785C11.5774 6.78271 11.573 6.68172 11.5385 6.58925C11.504 6.49678 11.4412 6.41755 11.359 6.36287C11.2769 6.30818 11.1796 6.28082 11.0809 6.28469V6.28375V6.28375ZM7.81844 11.4381C7.69412 11.4381 7.57489 11.4875 7.48698 11.5754C7.39907 11.6633 7.34969 11.7826 7.34969 11.9069C7.34969 12.0312 7.39907 12.1504 7.48698 12.2383C7.57489 12.3262 7.69412 12.3756 7.81844 12.3756C7.94276 12.3756 8.06199 12.3262 8.14989 12.2383C8.2378 12.1504 8.28719 12.0312 8.28719 11.9069C8.28719 11.7826 8.2378 11.6633 8.14989 11.5754C8.06199 11.4875 7.94276 11.4381 7.81844 11.4381Z" fill="black"/>
</svg>
