<svg width="30" height="30" viewBox="0 0 30 30" fill="none" xmlns="http://www.w3.org/2000/svg">
<g clip-path="url(#clip0_2315_3108)">
<path fill-rule="evenodd" clip-rule="evenodd" d="M14.9082 8.11252C14.9372 6.62412 15.5924 5.10818 16.2383 3.80717L16.2435 3.79709C16.2602 3.76455 16.2822 3.73504 16.3086 3.70978L16.3103 3.70826C16.3241 3.69584 16.3241 3.69584 16.3388 3.68435L16.3403 3.68318C16.36 3.66982 16.36 3.66982 16.3806 3.65822L16.3821 3.6574C16.4032 3.64767 16.4031 3.64767 16.4249 3.63959L16.4256 3.63935C16.4423 3.63443 16.4422 3.63443 16.4593 3.63056L16.46 3.63033C16.4796 3.62717 16.4796 3.62717 16.4993 3.62529H16.5C16.5 3.62529 16.5274 3.62506 16.5411 3.62564H16.5418L16.5635 3.62822L16.585 3.63232C16.585 3.63232 16.6109 3.6397 16.6235 3.64416C16.6235 3.64416 16.6495 3.65552 16.6622 3.66197C16.6622 3.66197 16.6819 3.67416 16.6915 3.6806C16.6915 3.6806 16.7164 3.70088 16.7283 3.71177C16.7283 3.71177 16.751 3.73697 16.7612 3.75056C17.0074 4.91576 16.2372 7.6474 16.0409 8.24224C17.8636 6.94744 19.7377 5.6851 21.7311 4.66392L21.7441 4.6576C21.7714 4.64599 21.7618 4.64939 21.7991 4.63791L21.8017 4.6372C21.8201 4.6331 21.8201 4.6331 21.8386 4.63017L21.8408 4.62994L21.8614 4.62806C21.8686 4.62795 21.8759 4.62748 21.883 4.6276C21.9006 4.62842 21.9006 4.62842 21.9182 4.63029C21.9182 4.63029 21.9475 4.63592 21.9619 4.63967C21.9619 4.63967 21.9968 4.6522 22.0136 4.66017C22.0136 4.66017 22.0485 4.68103 22.0647 4.69334C22.0647 4.69334 22.0969 4.72345 22.1112 4.74021C22.1112 4.74021 22.1352 4.7756 22.1453 4.79459C22.1453 4.79459 22.1597 4.82974 22.1651 4.84802C22.1651 4.84802 22.1714 4.8792 22.1736 4.89502C22.1736 4.89502 22.1749 4.91881 22.1749 4.93064V4.93158C22.1738 4.95291 22.1738 4.95291 22.1709 4.974L22.1706 4.97611C22.0782 5.42857 21.3129 5.9626 21.0127 6.22181C19.5169 7.51392 19.346 7.77642 17.697 8.87705C17.0562 9.30467 16.597 9.60924 15.7983 9.38658C15.7668 9.38903 15.7352 9.38718 15.7042 9.38107L15.7037 9.38084C15.6861 9.37627 15.686 9.37662 15.6689 9.37064L15.6543 9.3881L15.6489 9.39408C15.6102 9.75303 15.5732 10.1122 15.5379 10.4715C17.9679 9.43451 20.442 8.42974 22.9846 7.6999L22.9982 7.69615C23.0348 7.68806 23.0307 7.68888 23.0564 7.68689C23.0762 7.68631 23.0762 7.68595 23.096 7.68619C23.1175 7.6883 23.1173 7.68865 23.1387 7.69181C23.1387 7.69181 23.1653 7.69849 23.1784 7.70248C23.1784 7.70248 23.2118 7.71666 23.228 7.72486C23.228 7.72486 23.2628 7.74783 23.2788 7.76119C23.2788 7.76119 23.3155 7.80021 23.3309 7.82189C23.3309 7.82189 23.3551 7.86783 23.364 7.89209C23.364 7.89209 23.3748 7.93791 23.3774 7.96123C23.3774 7.96123 23.377 8.00248 23.3753 8.02299L23.3752 8.02381C23.3718 8.04338 23.3718 8.04338 23.3671 8.06271L23.3668 8.06353C23.127 8.82115 21.9694 9.0472 21.414 9.34099C19.5497 10.3274 17.6454 11.8278 15.41 11.8719C15.3961 12.0362 15.3826 12.2004 15.3696 12.3648C18.6127 11.4481 21.9019 10.5785 25.2293 10.0238L25.2431 10.0217C25.2639 10.0194 25.2639 10.0195 25.2846 10.0182L25.3114 10.0187C25.3479 10.0223 25.3349 10.02 25.3795 10.0306C25.3795 10.0306 25.4068 10.0401 25.4201 10.0456C25.4201 10.0456 25.455 10.0647 25.4716 10.0756C25.4716 10.0756 25.5122 10.111 25.5297 10.1312C25.5297 10.1312 25.5632 10.1842 25.5755 10.2129C25.5755 10.2129 25.5909 10.2754 25.5935 10.3073V10.308C25.5927 10.3508 25.5922 10.3478 25.5861 10.3806L25.5859 10.3814C25.5779 10.4096 25.5779 10.4096 25.567 10.4369L25.5667 10.4379C25.3823 10.8095 24.366 11.0539 24.057 11.1697C21.532 12.1153 18.1691 13.9065 15.2769 13.6446C15.2675 13.7866 15.2586 13.9287 15.2501 14.0708C19.029 13.5094 22.8597 13.0312 26.6804 12.8805C26.6965 12.8802 26.6964 12.8803 26.7125 12.8804C26.7526 12.8829 26.7887 12.891 26.8266 12.9044C26.8266 12.9044 26.8529 12.9171 26.8657 12.9241C26.8657 12.9241 26.8993 12.948 26.915 12.9612C26.915 12.9612 26.9537 13.0049 26.9695 13.0294C26.9695 13.0294 26.9967 13.0913 27.0047 13.1242C27.0047 13.1242 27.0093 13.1925 27.0055 13.2263L27.0054 13.227C26.9954 13.273 26.9955 13.2696 26.9814 13.3035L26.981 13.3043C26.9684 13.3282 26.9684 13.3282 26.9536 13.3507L26.953 13.3515C26.8046 13.5432 26.5106 13.5541 26.2775 13.6206C25.7044 13.7838 25.1218 13.9127 24.5394 14.0392C21.4723 14.7051 20.6835 14.8562 17.5736 15.2822C16.898 15.3747 15.8538 15.5101 15.1894 15.2143C15.1657 15.7298 15.1473 16.2456 15.1355 16.7615C18.7263 15.8334 22.3623 14.9553 26.0325 14.4007L26.0464 14.3987C26.0667 14.3967 26.0666 14.3968 26.0869 14.3958L26.1132 14.3963C26.1486 14.4 26.1359 14.3978 26.1798 14.4081C26.1798 14.4081 26.2078 14.4178 26.2215 14.4235C26.2215 14.4235 26.2577 14.4436 26.2748 14.4549C26.2748 14.4549 26.3188 14.4949 26.3374 14.5179C26.3374 14.5179 26.3708 14.5765 26.3822 14.6081C26.3822 14.6081 26.3938 14.6734 26.394 14.7063V14.707C26.3905 14.7438 26.392 14.7408 26.379 14.7861L26.3787 14.7869C26.3687 14.8126 26.3687 14.8126 26.3563 14.8373L26.3558 14.8381C26.2232 15.0555 25.8039 15.1522 25.5975 15.2252C24.9012 15.4717 24.2082 15.7278 23.5098 15.9684C21.1147 16.7933 17.8077 18.334 15.1204 18.0404C15.1202 18.4788 15.1256 18.9173 15.1382 19.3555L15.1443 19.3582L15.1482 19.3601C18.3361 18.5842 21.5886 17.8922 24.8516 17.5197L24.8658 17.5183C24.8869 17.5172 24.8868 17.5173 24.908 17.5172L24.9356 17.5193C24.972 17.5253 24.9589 17.5221 25.0034 17.5356C25.0034 17.5356 25.0303 17.547 25.0434 17.5535C25.0434 17.5535 25.0751 17.5734 25.0902 17.5845C25.0902 17.5845 25.1245 17.6174 25.1395 17.6356C25.1395 17.6356 25.1714 17.6883 25.1829 17.7166C25.1829 17.7166 25.1971 17.7764 25.1993 17.8069V17.8076C25.1982 17.8407 25.1982 17.8407 25.1933 17.8736L25.1932 17.8744C25.1854 17.9039 25.1855 17.9039 25.1747 17.9325L25.1742 17.9333C24.8532 18.5961 23.7128 18.6269 23.1679 18.7797C20.2075 19.6103 20.2577 19.7274 17.2732 20.4132C16.7249 20.5392 15.7481 20.7267 15.1942 20.4411L15.1854 20.4453C15.2104 20.8685 15.244 21.3001 15.2878 21.7185C15.3902 21.6897 15.4925 21.6612 15.595 21.6328C17.8154 21.0197 20.0738 20.4406 22.3586 20.1219L22.3719 20.1204C22.3923 20.1187 22.3922 20.1188 22.4127 20.1184L22.4268 20.1192C22.443 20.1205 22.443 20.1205 22.4592 20.1227C22.4592 20.1227 22.5026 20.1333 22.5237 20.1406C22.5237 20.1406 22.5489 20.1522 22.5611 20.1587C22.5611 20.1587 22.5861 20.175 22.5982 20.1839C22.5982 20.1839 22.63 20.2131 22.644 20.2292C22.644 20.2292 22.6677 20.2629 22.6777 20.2809C22.6777 20.2809 22.6955 20.3237 22.7018 20.346C22.7018 20.346 22.7086 20.3853 22.7099 20.4053L22.71 20.406C22.7095 20.4337 22.7095 20.4337 22.7066 20.4614L22.7065 20.4621C22.702 20.4844 22.702 20.4844 22.6959 20.5062L22.6957 20.507C22.4618 21.1698 21.3548 21.2761 20.8607 21.4567C19.1089 22.097 17.3858 23.0131 15.4718 23.0538C15.6437 24.0312 15.8843 25.0928 16.4803 25.9099C16.7312 27.019 15.531 25.6492 15.5237 25.6356C15.1486 24.9372 15.004 23.8043 14.8748 23.0388C12.8272 23.3019 10.9105 22.1344 9.10371 21.4358C8.62477 21.2505 7.53926 21.156 7.31778 20.502L7.31754 20.5012C7.31133 20.4771 7.31145 20.4771 7.30723 20.4525V20.4518C7.30512 20.424 7.30512 20.424 7.30559 20.3961L7.30571 20.3954C7.30875 20.3662 7.3077 20.3687 7.31684 20.3325L7.31707 20.3319C7.33102 20.2909 7.33055 20.2939 7.34672 20.264L7.34707 20.2635C7.36336 20.2384 7.36125 20.2401 7.38657 20.2115L7.38703 20.2111C7.40778 20.1914 7.40778 20.1914 7.43039 20.1738L7.43098 20.1733C7.4502 20.1609 7.45008 20.1609 7.47012 20.1501L7.47094 20.1497C7.52203 20.1265 7.54653 20.122 7.59844 20.1184L7.62305 20.1188C7.62305 20.1188 7.72383 20.1314 7.7741 20.1385C10.1132 20.4777 12.4253 21.0731 14.698 21.7104C14.659 21.3281 14.6289 20.9449 14.6054 20.5613C12.1976 20.6579 9.88067 19.6782 7.65961 18.9282C7.08387 18.7338 6.512 18.5281 5.93778 18.3289C5.72813 18.2563 5.37164 18.1752 5.22832 17.9711L5.22786 17.9702C5.21754 17.9522 5.21754 17.9523 5.20852 17.9335L5.20817 17.9327C5.19797 17.906 5.19797 17.906 5.19036 17.8785L5.19024 17.8778C5.18262 17.8353 5.18368 17.8381 5.18344 17.8044V17.8037C5.18684 17.7628 5.18508 17.7661 5.19996 17.7158L5.2002 17.7151C5.21532 17.6783 5.21274 17.6809 5.24086 17.6386L5.24133 17.638C5.26254 17.6117 5.25985 17.6134 5.29207 17.5849L5.29278 17.5844C5.31539 17.5677 5.31539 17.5677 5.33965 17.5533L5.34036 17.5528C5.38489 17.5311 5.42555 17.5209 5.47465 17.5172L5.49821 17.5173C5.49821 17.5173 5.62172 17.5301 5.68336 17.5372C8.66567 17.8911 11.6249 18.5199 14.5479 19.1978C14.5383 18.8033 14.5344 18.0139 14.5344 18.0139C14.0577 18.119 13.5557 18.0418 13.07 17.9915C10.6732 17.743 8.3318 16.7842 6.08907 16.0053C5.39766 15.7652 4.71024 15.5141 4.01918 15.2731C3.76289 15.1837 3.34746 15.1006 3.15633 14.8717L3.15551 14.8707C3.14438 14.8548 3.14438 14.8548 3.13418 14.8381L3.13371 14.8373C3.12129 14.8126 3.12129 14.8126 3.11133 14.7869L3.11098 14.7861C3.09856 14.7429 3.09996 14.7458 3.09621 14.7108V14.7101C3.09598 14.6635 3.09411 14.6673 3.10746 14.6093L3.1077 14.6086C3.12399 14.5633 3.12071 14.5664 3.15469 14.5151L3.15504 14.5145C3.17918 14.4854 3.17614 14.487 3.2134 14.4562L3.21411 14.4558C3.24 14.4383 3.24 14.4384 3.26766 14.4239L3.2686 14.4234C3.31121 14.4055 3.35691 14.3961 3.40313 14.3958L3.42563 14.3969C3.42563 14.3969 3.57258 14.4181 3.64606 14.4294C7.31801 15.0014 10.9549 15.8716 14.5482 16.812C14.5584 16.3452 14.574 15.8785 14.5939 15.4121C14.0029 15.5533 13.3779 15.529 12.772 15.4803C10.2343 15.2765 8.14723 14.7685 5.67188 14.2141C5.06051 14.0772 4.44786 13.9433 3.84317 13.7794C3.58043 13.7082 3.26883 13.698 3.07254 13.5096L3.07172 13.5087C3.05883 13.4942 3.05883 13.4942 3.047 13.4789L3.04641 13.4781C3.03094 13.4543 3.03094 13.4543 3.0177 13.429L3.01735 13.4283C3.00399 13.3956 3.00411 13.3987 2.99461 13.3548L2.9945 13.3541C2.98805 13.2969 2.98946 13.3008 2.9945 13.2561L2.99461 13.2555C3.00539 13.2088 3.00246 13.212 3.03012 13.1573L3.03047 13.1566C3.05801 13.1142 3.05672 13.1176 3.08438 13.0891L3.08496 13.0885C3.10782 13.0694 3.10782 13.0694 3.13243 13.0527L3.13325 13.0522C3.18293 13.0245 3.2311 13.0112 3.2877 13.0078C3.30364 13.0077 3.30364 13.0076 3.31957 13.0079C7.11059 13.1572 10.9048 13.6343 14.6564 14.1844C14.6643 14.0505 14.6723 13.9167 14.6809 13.7829C12.1242 14.0026 9.41895 12.6123 7.16578 11.7435C6.54258 11.5031 5.92196 11.2564 5.29864 11.0162C5.0645 10.926 4.66899 10.8302 4.50727 10.6018L4.50668 10.6009C4.4959 10.5824 4.4959 10.5824 4.48641 10.5631L4.48606 10.5622C4.47621 10.5371 4.47621 10.5371 4.46871 10.5112L4.4686 10.5105C4.45981 10.4652 4.4611 10.4682 4.46063 10.4321L4.46075 10.4314C4.46532 10.3778 4.4659 10.3816 4.47821 10.3414L4.47844 10.3407C4.49496 10.3017 4.49203 10.3044 4.52332 10.26L4.52368 10.2594C4.54782 10.2314 4.54489 10.233 4.5818 10.2035L4.58239 10.203C4.607 10.187 4.607 10.187 4.63313 10.1734L4.63395 10.173C4.67942 10.1542 4.72067 10.1464 4.76954 10.1456L4.79262 10.147C4.79262 10.147 4.92411 10.1678 4.98985 10.1789C8.28926 10.7445 11.5525 11.6021 14.77 12.5164C14.7905 12.2512 14.8122 11.9861 14.8348 11.7211L14.8345 11.721C14.332 11.823 13.6036 11.6029 13.1527 11.4187C10.7843 10.4509 10.8529 10.353 8.54871 9.21361C7.94602 8.9156 6.94078 8.67736 6.60797 7.97049L6.6075 7.96955C6.60141 7.95338 6.60141 7.95338 6.59614 7.93697L6.5959 7.93603C6.59063 7.91447 6.59063 7.91447 6.587 7.89256V7.89174C6.58477 7.86572 6.58477 7.86572 6.585 7.83947L6.58512 7.83877C6.5884 7.80431 6.587 7.80713 6.59871 7.76459L6.59895 7.764C6.61477 7.72135 6.61418 7.72451 6.63235 7.69381L6.6327 7.69322C6.6586 7.65689 6.65731 7.65982 6.68227 7.63533L6.68274 7.63486C6.70582 7.61564 6.70325 7.6167 6.73606 7.59677L6.73664 7.59642C6.7595 7.58494 6.7595 7.58494 6.78317 7.57556L6.78399 7.57521C6.81879 7.56443 6.83192 7.55927 6.88008 7.55869L6.90621 7.55951C6.93211 7.5615 6.92766 7.56068 6.96446 7.56877C7.01602 7.58259 7.06711 7.59806 7.11832 7.61295C9.78821 8.39564 12.3928 9.45326 14.9399 10.5663C14.9705 10.2501 15.0023 9.93408 15.0356 9.61826C13.1624 9.43697 11.5289 7.45181 10.301 6.3492C9.97993 6.0608 9.30375 5.59416 9.15293 5.14369L9.15211 5.14111C9.14719 5.12306 9.14719 5.12306 9.14332 5.10478L9.14297 5.10267C9.14004 5.08088 9.14004 5.08088 9.13875 5.05896V5.05802C9.13899 5.03881 9.13899 5.03892 9.14039 5.0197L9.14051 5.01888C9.14368 4.99732 9.14368 4.99732 9.14848 4.97611L9.1486 4.97541C9.1561 4.95068 9.15481 4.95267 9.16817 4.92256L9.16852 4.92197C9.18211 4.89619 9.18024 4.89806 9.20215 4.86818L9.20262 4.8676C9.22629 4.8397 9.22489 4.84193 9.24633 4.82283L9.24692 4.82248C9.27703 4.79939 9.27516 4.80138 9.30129 4.78697L9.30188 4.78662C9.32555 4.77607 9.32555 4.77607 9.35004 4.76752L9.35086 4.76728C9.37243 4.76177 9.37243 4.76177 9.39434 4.75791L9.39516 4.75779C9.41332 4.7558 9.41332 4.7558 9.43149 4.75498C9.43852 4.75486 9.44567 4.75533 9.4527 4.75545L9.47297 4.75732C9.47297 4.75732 9.53883 4.77174 9.56965 4.78498C9.59661 4.7981 9.62309 4.81205 9.64969 4.82564C11.4846 5.77428 13.2183 6.92998 14.9082 8.11252M9.89438 21.1235C10.9597 21.5443 11.6781 21.7981 12.7761 22.1249C13.3723 22.3023 14.0189 22.4783 14.6494 22.4681H14.6498C14.6423 22.4227 14.6339 22.3775 14.6247 22.3324L14.6193 22.3077L14.6166 22.296C14.5107 22.266 14.4047 22.2365 14.2988 22.2071C12.8371 21.8028 11.365 21.4326 9.88149 21.1173C9.88149 21.1173 9.88993 21.1217 9.89438 21.1235M20.0677 21.1312C18.5387 21.4583 17.0214 21.8421 15.5157 22.263L15.4902 22.2702C15.4832 22.3346 15.4824 22.3995 15.4876 22.4641L15.4879 22.4672C16.9745 22.4129 18.844 21.6269 20.0936 21.1343L20.1396 21.116L20.0677 21.1312ZM15.5606 19.9497C16.0757 20.057 16.8045 19.9223 17.3023 19.812C19.3624 19.356 20.0604 19.1693 22.0697 18.5247L22.0907 18.5179L22.0586 18.5236C19.881 18.9023 17.7097 19.3555 15.558 19.8644C15.5612 19.8927 15.5622 19.9213 15.5606 19.9497ZM14.5672 19.8037L14.4728 19.7818C12.5275 19.331 10.3084 18.8693 8.355 18.5288C8.355 18.5288 8.29946 18.5204 8.31293 18.5247C9.57305 18.929 10.8538 19.2669 12.1321 19.6097C12.8262 19.7959 13.8483 20.0039 14.5745 19.9761C14.5719 19.9187 14.5696 19.8613 14.5672 19.8037M15.1702 17.4565C15.7617 17.5275 16.5579 17.3605 17.1244 17.2221C19.535 16.6332 20.2979 16.4163 22.6541 15.6375L22.7682 15.5995L22.8625 15.5681L22.852 15.5702C20.2808 16.094 17.7162 16.6951 15.1756 17.3566C15.177 17.39 15.1752 17.4234 15.1702 17.4565M14.3296 17.3604C11.798 16.6999 9.24012 16.1014 6.67864 15.5785C6.67864 15.5785 6.70664 15.5945 6.72176 15.5995C9.1043 16.3904 9.87633 16.6101 12.3136 17.2108C12.8974 17.3547 13.7215 17.5352 14.3323 17.4548C14.3285 17.4235 14.3276 17.3919 14.3296 17.3604M6.69657 13.8384C9.18633 14.3681 9.58817 14.4205 12.1069 14.7854C12.8888 14.8986 13.7693 15.0913 14.5505 14.8152L14.5569 14.8128L14.5602 14.8115L14.5527 14.7698L14.5513 14.7612C14.4367 14.7444 14.3221 14.728 14.2075 14.7116C11.8212 14.3735 9.04489 14.0399 6.6586 13.8229C6.6586 13.8229 6.68321 13.8355 6.69657 13.8384M23.3414 13.6956C20.7067 13.9351 18.0701 14.2522 15.4508 14.6335L15.4487 14.6339L15.441 14.6776C16.1386 14.8789 17.1391 14.7589 17.8379 14.6644C20.0718 14.362 21.0988 14.1801 23.3034 13.711L23.4006 13.6902L23.3414 13.6956M14.5666 13.0676L14.4251 13.0277C12.3271 12.4374 9.88442 11.8092 7.78114 11.3369C7.78114 11.3369 7.76825 11.3412 7.77164 11.3424C9.10934 11.8309 10.4719 12.2491 11.8288 12.6812C12.7139 12.963 13.654 13.2614 14.6 13.2014C14.5832 13.1584 14.5719 13.1134 14.5666 13.0676ZM15.4522 13.0739C16.3804 13.1344 17.3038 12.8447 18.1725 12.5686C19.5471 12.1318 20.9276 11.7098 22.2824 11.2151L22.3352 11.1957L22.2812 11.2077C19.9804 11.724 17.6877 12.3142 15.4186 12.96C15.4339 12.9967 15.4453 13.0347 15.4522 13.0739M15.4614 11.2836C16.2209 11.2364 16.9539 10.9124 17.6269 10.5908C18.6489 10.1024 19.6759 9.62189 20.6712 9.08119L20.7149 9.0574L20.6839 9.06842C18.9275 9.69888 17.1891 10.3963 15.4748 11.1361L15.4614 11.2836M14.6638 11.0851C12.8974 10.3148 11.0997 9.59506 9.28758 8.9442C9.28758 8.9442 9.28852 8.95217 9.29157 8.95381C10.9314 9.84467 11.4763 10.1031 13.202 10.8135C13.5975 10.9762 14.1969 11.1882 14.6388 11.1569C14.6456 11.1326 14.6539 11.1085 14.6638 11.0851M15.1058 8.97021C13.8554 8.07408 12.5699 7.21521 11.2583 6.4133C11.2583 6.4133 11.2059 6.37943 11.2177 6.38986C12.3851 7.42615 12.8728 7.79365 14.1731 8.65627C14.4079 8.81201 14.81 9.01123 15.0987 9.0356L15.1022 9.00385L15.1058 8.97021M20.0554 6.28592C18.7977 7.0549 17.3695 8.00986 16.1584 8.87834C16.0841 8.90459 16.3178 8.89052 16.3945 8.87283C16.5083 8.84639 16.618 8.80468 16.7207 8.74884C17.0839 8.55115 17.4451 8.34748 17.7872 8.11498C18.5064 7.62619 19.447 6.83857 20.0961 6.26248L20.1007 6.25838L20.0554 6.28592M15.6191 7.59771C15.7583 7.07049 15.882 6.44916 15.9731 5.9422L15.9788 5.9101L15.9635 5.95439C15.7822 6.48478 15.6271 7.02935 15.5438 7.5847L15.5631 7.58552C15.5889 7.59068 15.6026 7.59244 15.6191 7.59771Z" fill="black"/>
</g>
<defs>
<clipPath id="clip0_2315_3108">
<rect width="30" height="30" fill="white"/>
</clipPath>
</defs>
</svg>
