<svg width="30" height="30" viewBox="0 0 30 30" fill="none" xmlns="http://www.w3.org/2000/svg">
<path d="M5.15625 1.83276C4.38562 1.83276 3.75 2.46839 3.75 3.23901V4.17651C3.75 4.78308 4.14469 5.29964 4.6875 5.49464V8.39526C4.6875 8.47308 4.60031 8.8162 4.43344 9.2062C4.26563 9.59714 4.03406 10.0593 3.79969 10.5281C3.56531 10.9968 3.32812 11.4721 3.14344 11.9015C2.95969 12.3318 2.8125 12.6918 2.8125 13.0828V25.3565C2.8125 26.9062 4.07531 28.169 5.625 28.169H11.25C12.7997 28.169 14.0625 26.9062 14.0625 25.3565V13.0828C14.0625 12.6918 13.9153 12.3318 13.7306 11.9015C13.5469 11.4721 13.3097 10.9968 13.0753 10.5281C12.8409 10.0593 12.6094 9.59714 12.4416 9.2062C12.2747 8.8162 12.1875 8.47308 12.1875 8.39526V5.49464C12.7303 5.29964 13.125 4.78214 13.125 4.17651V3.23901C13.125 2.46839 12.4894 1.83276 11.7188 1.83276H5.15625ZM5.15625 2.77026H11.7188C11.9869 2.77026 12.1875 2.97089 12.1875 3.23901V4.17651C12.1875 4.44464 11.9869 4.64526 11.7188 4.64526H5.15625C5.09427 4.64681 5.03263 4.63574 4.97506 4.61273C4.91749 4.58972 4.8652 4.55525 4.82136 4.51141C4.77752 4.46757 4.74305 4.41528 4.72004 4.35771C4.69703 4.30014 4.68596 4.23849 4.6875 4.17651V3.23901C4.6875 2.97089 4.88812 2.77026 5.15625 2.77026ZM5.625 5.58276H11.25V8.39526C11.25 8.7862 11.3972 9.14526 11.5819 9.57464C11.7656 10.004 12.0028 10.4793 12.2372 10.9481C12.4716 11.4168 12.7031 11.879 12.8709 12.27C13.0378 12.66 13.125 13.005 13.125 13.0828V14.0203H3.75V13.0828C3.75 13.005 3.83719 12.6609 4.00406 12.27C4.17187 11.879 4.40344 11.4168 4.63781 10.9481C4.87219 10.4793 5.10937 10.004 5.29406 9.57464C5.47781 9.14433 5.625 8.7862 5.625 8.39526V5.58276ZM9.375 6.52026V8.39526C9.375 8.85651 9.57281 9.28683 9.81094 9.81089C10.0481 10.334 10.3462 10.9096 10.6106 11.4478L11.4516 11.0353C11.1806 10.485 10.8863 9.91401 10.6641 9.42464C10.4419 8.93433 10.3125 8.48714 10.3125 8.39526V6.52026H9.375ZM11.8875 11.9728L11.0231 12.3356C11.1731 12.6956 11.25 13.0087 11.25 13.0828H12.1875C12.1875 12.7143 12.0563 12.375 11.8875 11.9728ZM17.3438 14.1065C17.2791 14.1066 17.2151 14.12 17.1559 14.146C17.0966 14.172 17.0434 14.2099 16.9995 14.2575C16.9557 14.305 16.9221 14.3611 16.901 14.4223C16.8799 14.4834 16.8717 14.5483 16.8769 14.6128L17.8144 26.3315C17.8959 27.3121 18.6553 28.1671 19.6875 28.1671H24.375C25.4063 28.1671 26.1694 27.3121 26.2481 26.3296L27.1856 14.6109C27.1905 14.5466 27.1821 14.4819 27.1609 14.421C27.1396 14.3601 27.1061 14.3042 27.0622 14.2568C27.0184 14.2095 26.9653 14.1717 26.9062 14.1458C26.8471 14.12 26.7833 14.1066 26.7188 14.1065H17.3438ZM3.75 14.9578H13.125V22.4578H3.75V14.9578ZM17.8509 15.044H26.2116L25.7991 20.2003H18.2625L17.8509 15.0459V15.044ZM8.42438 15.8953C8.35023 15.8971 8.27758 15.9165 8.21239 15.9518C8.1472 15.9872 8.09133 16.0375 8.04938 16.0987C8.04938 16.0987 7.65562 16.6771 7.26 17.369C7.06312 17.7159 6.8625 18.0909 6.70687 18.45C6.55219 18.8081 6.42844 19.1325 6.42844 19.4878C6.42844 20.6006 7.32937 21.5203 8.4375 21.5203C9.54563 21.5203 10.4466 20.6006 10.4466 19.4878C10.4466 19.1325 10.3228 18.8081 10.1681 18.45C10.0033 18.08 9.81868 17.7191 9.615 17.369C9.21937 16.6771 8.82562 16.0987 8.82562 16.0987C8.78117 16.0339 8.72112 15.9813 8.651 15.9457C8.58088 15.9101 8.50295 15.8928 8.42438 15.8953ZM8.4375 17.2518C8.57625 17.4703 8.61938 17.5181 8.80031 17.834C8.98781 18.1621 9.17344 18.5137 9.30656 18.8212C9.44063 19.1296 9.50906 19.4118 9.50906 19.4878C9.50906 20.1009 9.03094 20.5828 8.4375 20.5828C8.29497 20.5822 8.15397 20.5533 8.0227 20.4977C7.89143 20.4422 7.7725 20.3611 7.67281 20.2593C7.57312 20.1574 7.49466 20.0367 7.44198 19.9043C7.3893 19.7719 7.36345 19.6303 7.36594 19.4878C7.36594 19.4128 7.43437 19.1296 7.5675 18.8221C7.70156 18.5128 7.88812 18.1621 8.07469 17.834C8.25562 17.5181 8.29875 17.4693 8.4375 17.2518ZM18.3375 21.1378H25.725L25.3144 26.2565C25.2684 26.8284 24.9019 27.2315 24.375 27.2315H19.6875C19.1625 27.2315 18.7969 26.8293 18.7481 26.2565L18.3384 21.1378H18.3375ZM3.75 23.3953H13.125V25.3565C13.125 26.4028 12.2972 27.2315 11.25 27.2315H5.625C4.57781 27.2315 3.75 26.4028 3.75 25.3565V23.3953Z" fill="black"/>
</svg>
