<svg width="30" height="30" viewBox="0 0 30 30" fill="none" xmlns="http://www.w3.org/2000/svg">
<path d="M11.8369 21.0493C12.3177 20.5166 12.6818 19.8892 12.9057 19.2073C13.1296 18.5255 13.2082 17.8043 13.1367 17.0902L12.6122 11.9026C12.6005 11.787 12.5464 11.6798 12.4602 11.6018C12.374 11.5239 12.262 11.4807 12.1458 11.4807H3.91029C3.79368 11.4801 3.68104 11.523 3.59436 11.601C3.50769 11.6791 3.4532 11.7866 3.44154 11.9026L2.91935 17.0902C2.85076 17.765 2.91673 18.4467 3.11343 19.0958C3.31013 19.7448 3.63366 20.3484 4.06528 20.8716C4.4969 21.3948 5.02802 21.8271 5.6279 22.1436C6.22778 22.4601 6.88448 22.6544 7.55998 22.7153V28.1607H4.3256C4.20128 28.1607 4.08205 28.2101 3.99415 28.298C3.90624 28.3859 3.85685 28.5051 3.85685 28.6295C3.85685 28.7538 3.90624 28.873 3.99415 28.9609C4.08205 29.0488 4.20128 29.0982 4.3256 29.0982H11.7319C11.8562 29.0982 11.9754 29.0488 12.0633 28.9609C12.1512 28.873 12.2006 28.7538 12.2006 28.6295C12.2006 28.5051 12.1512 28.3859 12.0633 28.298C11.9754 28.2101 11.8562 28.1607 11.7319 28.1607H8.49748V22.7153C9.78002 22.598 10.9718 22.0034 11.8369 21.0493ZM11.722 12.4182L11.872 13.9009H4.18404L4.33404 12.4182H11.722ZM3.85217 17.1845L4.08935 14.8407H11.9667L12.2039 17.1845C12.263 17.7683 12.199 18.3581 12.016 18.9156C11.8331 19.4732 11.5352 19.9862 11.1417 20.4215C10.7482 20.8569 10.2678 21.2049 9.73147 21.443C9.19515 21.6812 8.61485 21.8042 8.02802 21.8042C7.4412 21.8042 6.8609 21.6812 6.32458 21.443C5.78826 21.2049 5.30784 20.8569 4.91434 20.4215C4.52084 19.9862 4.22299 19.4732 4.04004 18.9156C3.85708 18.3581 3.79308 17.7683 3.85217 17.1845Z" fill="black"/>
<path d="M5.17875 17.1769C5.19118 17.0532 5.15396 16.9296 5.07528 16.8333C4.99661 16.7371 4.88291 16.676 4.75921 16.6636C4.63552 16.6512 4.51195 16.6884 4.41569 16.7671C4.31943 16.8457 4.25837 16.9594 4.24593 17.0831C4.19273 17.612 4.25082 18.1461 4.41649 18.6512C4.58215 19.1562 4.8517 19.621 5.20781 20.0156C5.24911 20.0613 5.29901 20.0984 5.35465 20.1248C5.41029 20.1512 5.47058 20.1664 5.53209 20.1694C5.59359 20.1725 5.6551 20.1635 5.71311 20.1428C5.77111 20.1221 5.82448 20.0902 5.87015 20.0489C5.91583 20.0076 5.95292 19.9577 5.97931 19.9021C6.0057 19.8464 6.02088 19.7861 6.02397 19.7246C6.02706 19.6631 6.01801 19.6016 5.99732 19.5436C5.97664 19.4856 5.94474 19.4322 5.90343 19.3866C5.63506 19.0893 5.43192 18.739 5.30711 18.3585C5.18229 17.9779 5.13857 17.5754 5.17875 17.1769ZM23.557 0.9375C23.557 0.81318 23.5076 0.693951 23.4197 0.606044C23.3318 0.518136 23.2126 0.46875 23.0883 0.46875H20.4028C20.2785 0.46875 20.1593 0.518136 20.0714 0.606044C19.9834 0.693951 19.9341 0.81318 19.9341 0.9375V11.1305C19.934 11.2937 19.8899 11.4539 19.8064 11.5941C19.7229 11.7344 19.6031 11.8495 19.4597 11.9273C18.5445 12.423 17.7803 13.1567 17.2479 14.051C16.7155 14.9453 16.4348 15.9669 16.4353 17.0077V27.8977C16.4354 28.3309 16.6076 28.7463 16.9139 29.0526C17.2202 29.359 17.6357 29.5311 18.0689 29.5312H25.4222C25.6367 29.5313 25.8492 29.4891 26.0474 29.407C26.2456 29.325 26.4257 29.2046 26.5774 29.0529C26.7292 28.9012 26.8495 28.7211 26.9316 28.5229C27.0136 28.3247 27.0558 28.1122 27.0558 27.8977V17.0081C27.0564 15.9675 26.7757 14.946 26.2434 14.0518C25.7111 13.1576 24.947 12.4239 24.0319 11.9283C23.8884 11.8504 23.7686 11.7353 23.685 11.5951C23.6014 11.4548 23.5572 11.2947 23.557 11.1314V0.9375ZM22.6195 1.40625V1.84266H20.8716V1.40625H22.6195ZM26.1183 24.9816H17.3728V19.6739H26.1183V24.9816ZM25.9144 28.3898C25.7836 28.5201 25.6067 28.5934 25.4222 28.5938H18.0689C17.8844 28.5935 17.7075 28.5201 17.577 28.3896C17.4465 28.2591 17.3731 28.0822 17.3728 27.8977V25.9191H26.1183V27.8977C26.1184 27.9891 26.1005 28.0796 26.0655 28.1641C26.0305 28.2486 25.9791 28.3253 25.9144 28.3898ZM23.5847 12.75C24.3513 13.1653 24.9915 13.7801 25.4375 14.5293C25.8835 15.2785 26.1187 16.1343 26.1183 17.0062V18.7345H17.3728V17.0081C17.3723 16.1361 17.6076 15.2801 18.0538 14.5309C18.5 13.7816 19.1404 13.1669 19.9073 12.7519C20.1991 12.5934 20.4427 12.3591 20.6124 12.0738C20.7821 11.7884 20.8716 11.4625 20.8716 11.1305V2.78016H22.6195V11.1305C22.6198 11.4623 22.7096 11.7879 22.8795 12.0729C23.0494 12.3579 23.293 12.5919 23.5847 12.75Z" fill="black"/>
<path d="M20.0564 13.5469C19.4959 13.8504 19.0279 14.2998 18.7019 14.8474C18.3759 15.3951 18.204 16.0207 18.2044 16.658C18.2044 16.7824 18.2538 16.9016 18.3417 16.9895C18.4296 17.0774 18.5488 17.1268 18.6731 17.1268C18.7974 17.1268 18.9167 17.0774 19.0046 16.9895C19.0925 16.9016 19.1419 16.7824 19.1419 16.658C19.1414 16.1897 19.2675 15.73 19.5068 15.3274C19.746 14.9248 20.0896 14.5944 20.5013 14.371C20.6083 14.3106 20.6872 14.2105 20.7212 14.0924C20.7551 13.9743 20.7413 13.8475 20.6828 13.7395C20.6242 13.6315 20.5255 13.5507 20.408 13.5147C20.2905 13.4787 20.1636 13.4903 20.0545 13.5469H20.0564ZM18.6211 22.9637H20.7117C20.836 22.9637 20.9553 22.9143 21.0432 22.8264C21.1311 22.7385 21.1805 22.6192 21.1805 22.4949C21.1805 22.3706 21.1311 22.2514 21.0432 22.1635C20.9553 22.0756 20.836 22.0262 20.7117 22.0262H18.6211C18.4968 22.0262 18.3775 22.0756 18.2896 22.1635C18.2017 22.2514 18.1523 22.3706 18.1523 22.4949C18.1523 22.6192 18.2017 22.7385 18.2896 22.8264C18.3775 22.9143 18.4968 22.9637 18.6211 22.9637ZM22.7812 22.9637H24.8719C24.9962 22.9637 25.1154 22.9143 25.2033 22.8264C25.2912 22.7385 25.3406 22.6192 25.3406 22.4949C25.3406 22.3706 25.2912 22.2514 25.2033 22.1635C25.1154 22.0756 24.9962 22.0262 24.8719 22.0262H22.7812C22.6569 22.0262 22.5377 22.0756 22.4498 22.1635C22.3619 22.2514 22.3125 22.3706 22.3125 22.4949C22.3125 22.6192 22.3619 22.7385 22.4498 22.8264C22.5377 22.9143 22.6569 22.9637 22.7812 22.9637Z" fill="black"/>
</svg>
