<?xml version="1.0" encoding="UTF-8"?>
<svg id="_圖層_2" data-name="圖層 2" xmlns="http://www.w3.org/2000/svg" viewBox="0 0 79.63 70.7">
  <defs>
    <style>
      .cls-1 {
        fill: #ffbe17;
      }
    </style>
  </defs>
  <g id="_圖層_1-2" data-name="圖層 1">
    <g>
      <path class="cls-1" d="m28.71,69.22h2.05c.34,0,.61-.02.83-.06.22-.04.4-.11.56-.21.16-.1.31-.25.46-.45h.38l-.82,2.02h-4.87v-.27c.52-.59,1.01-1.14,1.46-1.65.45-.51.84-1,1.19-1.47.34-.47.62-.95.83-1.44.21-.49.32-.97.32-1.45,0-.35-.07-.67-.21-.95-.14-.28-.32-.5-.56-.65-.24-.16-.5-.23-.79-.23-.37,0-.7.12-.99.36-.29.24-.5.58-.62,1.04h-.38c.38-1.5,1.28-2.25,2.68-2.25.46,0,.87.09,1.23.28.36.19.64.44.84.77.2.32.3.66.3,1.04,0,.52-.14,1.05-.43,1.58-.29.53-.66,1.05-1.13,1.57-.46.52-1.24,1.34-2.32,2.44Zm-.77.84l-.2.24h3.08c.44,0,.75-.06.93-.17.18-.11.33-.32.46-.62-.19.13-.37.22-.55.28-.17.06-.45.09-.82.09h-2.35c-.19,0-.31,0-.36.03-.05.02-.12.07-.19.15Zm2.2-2.83c.32-.32.6-.66.84-1.01.24-.35.42-.7.54-1.05.13-.35.19-.69.19-1.02,0-.38-.08-.74-.23-1.07-.15-.33-.36-.59-.63-.79-.27-.19-.58-.29-.92-.29-.28,0-.56.08-.84.23.09-.03.21-.04.36-.04.28,0,.53.05.77.16.23.11.43.26.59.44.16.19.28.4.36.65.08.25.13.5.13.76,0,.51-.1,1-.29,1.47-.2.47-.48.99-.85,1.55Z"/>
      <path class="cls-1" d="m33.62,66.2c0-.96.12-1.79.36-2.49.24-.7.58-1.23,1.03-1.6.45-.37.97-.56,1.56-.56.47,0,.89.1,1.25.31.36.21.68.51.94.91.26.4.46.88.59,1.45.13.56.2,1.2.2,1.92,0,.93-.12,1.74-.36,2.43-.24.69-.59,1.21-1.04,1.58-.45.36-.97.54-1.58.54-.45,0-.86-.11-1.23-.32-.37-.21-.68-.52-.94-.92-.26-.4-.45-.87-.59-1.42-.13-.55-.2-1.16-.2-1.85Zm1.99-4.21c-.4.21-.74.51-1,.89-.26.38-.46.85-.59,1.4-.13.55-.19,1.19-.19,1.93,0,.52.04.99.11,1.42.07.43.18.82.33,1.17.15.35.33.64.55.88.22.24.48.45.78.62-.91-1.02-1.37-2.38-1.37-4.1,0-.92.11-1.72.34-2.42.22-.7.57-1.29,1.03-1.79Zm-.37,4.06c0,.99.04,1.79.13,2.42.09.63.23,1.1.43,1.41.2.31.46.47.79.47s.6-.16.81-.47c.2-.31.36-.78.45-1.41.09-.63.14-1.42.14-2.38,0-1.44-.11-2.5-.34-3.18-.22-.68-.59-1.01-1.1-1.01-.44,0-.77.35-.99,1.04-.22.69-.33,1.73-.33,3.12Zm2.05-4.1c.23.21.41.48.54.8.13.32.22.74.28,1.26.06.52.09,1.2.09,2.04s-.02,1.46-.07,1.98c-.04.52-.13.95-.24,1.3-.12.35-.28.65-.48.89.47-.32.79-.79.97-1.42.18-.63.27-1.49.27-2.59,0-.61-.02-1.14-.07-1.57-.04-.44-.12-.83-.23-1.18-.11-.35-.25-.65-.42-.89-.17-.25-.39-.46-.64-.63Z"/>
      <path class="cls-1" d="m41.74,69.22h2.05c.34,0,.61-.02.83-.06.22-.04.4-.11.56-.21s.31-.25.46-.45h.38l-.82,2.02h-4.87v-.27c.52-.59,1.01-1.14,1.46-1.65.45-.51.84-1,1.19-1.47.34-.47.62-.95.83-1.44.21-.49.32-.97.32-1.45,0-.35-.07-.67-.21-.95-.14-.28-.32-.5-.56-.65s-.5-.23-.79-.23c-.37,0-.7.12-.99.36-.29.24-.49.58-.62,1.04h-.38c.38-1.5,1.28-2.25,2.68-2.25.46,0,.87.09,1.23.28.36.19.64.44.84.77.2.32.3.66.3,1.04,0,.52-.14,1.05-.43,1.58-.29.53-.66,1.05-1.13,1.57-.46.52-1.23,1.34-2.32,2.44Zm-.77.84l-.2.24h3.08c.44,0,.75-.06.93-.17.18-.11.33-.32.46-.62-.19.13-.37.22-.55.28-.17.06-.45.09-.82.09h-2.35c-.19,0-.31,0-.36.03-.05.02-.11.07-.19.15Zm2.2-2.83c.32-.32.6-.66.84-1.01.24-.35.42-.7.54-1.05.13-.35.19-.69.19-1.02,0-.38-.08-.74-.23-1.07s-.36-.59-.63-.79c-.27-.19-.58-.29-.92-.29-.28,0-.56.08-.84.23.09-.03.21-.04.36-.04.28,0,.53.05.77.16.23.11.43.26.59.44.16.19.28.4.36.65.08.25.13.5.13.76,0,.51-.1,1-.29,1.47-.2.47-.48.99-.85,1.55Z"/>
      <path class="cls-1" d="m48.26,69.22h2.05c.34,0,.61-.02.83-.06.22-.04.4-.11.56-.21.16-.1.31-.25.46-.45h.38l-.82,2.02h-4.87v-.27c.52-.59,1.01-1.14,1.46-1.65.45-.51.84-1,1.19-1.47.34-.47.62-.95.83-1.44.21-.49.32-.97.32-1.45,0-.35-.07-.67-.21-.95-.14-.28-.32-.5-.56-.65-.24-.16-.5-.23-.79-.23-.37,0-.7.12-.99.36-.29.24-.49.58-.62,1.04h-.38c.38-1.5,1.28-2.25,2.68-2.25.46,0,.87.09,1.23.28.36.19.64.44.84.77.2.32.3.66.3,1.04,0,.52-.14,1.05-.43,1.58-.29.53-.66,1.05-1.13,1.57-.46.52-1.23,1.34-2.32,2.44Zm-.77.84l-.2.24h3.08c.44,0,.75-.06.93-.17.18-.11.33-.32.46-.62-.19.13-.37.22-.55.28-.17.06-.45.09-.82.09h-2.35c-.19,0-.31,0-.36.03-.05.02-.11.07-.19.15Zm2.2-2.83c.32-.32.6-.66.84-1.01.24-.35.42-.7.54-1.05s.19-.69.19-1.02c0-.38-.08-.74-.23-1.07-.15-.33-.36-.59-.63-.79-.27-.19-.58-.29-.92-.29-.28,0-.56.08-.84.23.09-.03.21-.04.36-.04.28,0,.53.05.77.16.23.11.43.26.59.44.16.19.28.4.36.65.08.25.13.5.13.76,0,.51-.1,1-.29,1.47-.2.47-.48.99-.85,1.55Z"/>
      <path class="cls-1" d="m7.87,56.67c.2.35.29.65.27.9-.01.25-.13.43-.35.56-.17.09-.34.12-.52.06-.18-.05-.32-.17-.42-.35-.11-.2-.17-.4-.16-.61,0-.21.03-.49.09-.85.06-.36.08-.64.06-.86-.13.08-.26.19-.38.32-.12.13-.26.29-.41.47-.15.19-.27.32-.36.42-.09.09-.2.17-.33.25-.2.11-.39.14-.57.09-.19-.05-.32-.14-.4-.28-.1-.17-.12-.36-.07-.55s.18-.35.39-.47c.13-.07.26-.13.39-.16.13-.04.27-.07.43-.1.15-.03.33-.06.54-.1.21-.04.42-.09.63-.16-.14-.11-.39-.25-.75-.4s-.63-.28-.81-.39c-.19-.11-.33-.26-.45-.46-.09-.16-.11-.33-.06-.5.05-.17.15-.31.31-.4.22-.12.44-.13.66,0s.43.35.63.71c.1.2.21.41.33.62.12.22.24.4.39.56.03-.22.07-.56.12-1.01.05-.45.11-.78.18-.97.07-.19.19-.34.36-.43.14-.08.31-.1.49-.05.18.05.31.15.4.3.13.24.14.46.03.68-.11.22-.33.49-.65.82-.32.33-.54.6-.67.81.17,0,.43-.04.78-.12.34-.08.62-.13.84-.16.22-.03.42-.03.61.02.19.04.33.15.43.33.09.16.11.33.06.52-.05.19-.15.32-.32.42-.2.11-.4.14-.62.09-.21-.05-.5-.17-.87-.35-.37-.18-.67-.32-.91-.4.02.09.08.22.18.39.04.07.12.2.23.39.11.18.19.32.25.42Zm-1.07-1.22l-.04-.07c-.11.03-.23.09-.36.16-.12.07-.31.2-.59.42-.28.21-.49.36-.64.45-.24.13-.46.18-.67.13l.07.13c.06.1.15.17.29.2.13.04.29,0,.47-.1.11-.06.23-.16.36-.3.13-.13.24-.26.34-.37.1-.11.21-.22.33-.34.12-.12.26-.21.4-.29l.04-.03Zm-.03-.32l.05-.03c-.11-.14-.25-.27-.42-.41-.17-.13-.35-.27-.54-.39-.19-.13-.34-.25-.47-.35-.13-.1-.23-.22-.3-.35-.04-.08-.07-.17-.09-.29-.11.08-.17.17-.19.28-.02.11,0,.22.07.34.1.18.22.31.36.38.14.07.38.19.73.36.35.16.61.32.78.46Zm.29.35l-.05.03c.03.27.11.61.25,1.01.14.4.23.7.27.89.04.2.02.39-.07.58.09,0,.17,0,.23-.04.14-.08.22-.22.24-.42.01-.2-.05-.43-.2-.69-.05-.09-.12-.2-.2-.32-.08-.12-.16-.24-.23-.37-.06-.1-.1-.19-.12-.26-.03-.08-.05-.15-.07-.22-.02-.07-.04-.13-.05-.19Zm-.02-.43l.06.03c.1-.17.2-.39.29-.65s.16-.5.22-.69c.06-.19.13-.37.22-.54.09-.16.2-.29.35-.37l.07-.02c-.2-.12-.38-.14-.54-.04-.16.09-.27.24-.32.45-.05.21-.1.53-.15.97-.06.44-.12.73-.2.88Zm.17.22v.06c.19.06.42.1.71.1.29,0,.53,0,.73,0,.2,0,.4,0,.58.05.19.04.36.12.5.25.03-.16.02-.29-.04-.39-.11-.2-.27-.29-.49-.29-.22,0-.54.04-.98.13-.44.09-.78.12-1.01.09Z"/>
      <path class="cls-1" d="m6.94,49.19l-.11-.4c.57-.4,1.03-.81,1.37-1.24.35-.43.57-.86.68-1.28.11-.42.1-.84,0-1.24-.14-.5-.42-.89-.83-1.16s-.86-.34-1.35-.2c-.46.13-.78.35-.97.65-.19.31-.29.64-.3,1-.01.36.01.82.08,1.38s.09.97.07,1.21c-.02.38-.11.72-.25,1.03-.14.3-.34.56-.6.77-.26.21-.56.36-.89.45-.32.09-.65.12-.97.09-.33-.03-.63-.12-.92-.26-.29-.14-.53-.34-.75-.6-.22-.26-.37-.57-.47-.93-.07-.26-.12-.59-.16-.99-.03-.4-.07-.69-.12-.86-.06-.22-.17-.41-.32-.57l-.13-.46,2.4-.95.12.42c-.63.6-1.08,1.17-1.34,1.71-.27.54-.32,1.1-.16,1.68.08.29.22.54.43.75.2.21.45.36.72.44.28.09.56.09.84,0,.4-.11.67-.33.81-.66.14-.33.18-.78.14-1.35-.04-.57-.08-1.07-.12-1.52-.04-.44-.04-.81.01-1.09.1-.52.31-.96.63-1.32.33-.36.74-.61,1.24-.75.48-.13.96-.14,1.44-.03.48.12.91.35,1.27.7.37.35.62.79.77,1.3.08.29.12.52.12.68s-.02.44-.04.84c-.03.4-.01.69.04.88.09.32.28.54.58.66l.1.34-3.05.85Zm-5.21-3.65l-1.09.52c.08.12.14.25.18.38.04.14.06.31.06.49.06-.19.14-.36.23-.52.09-.16.21-.33.36-.51.14-.19.23-.3.26-.36Zm1.31,4.52c.32-.02.58-.05.77-.1.21-.06.42-.16.61-.29.19-.13.37-.29.52-.49.15-.19.26-.39.33-.61.09-.28.13-.57.12-.88-.01-.3-.05-.74-.11-1.31-.06-.57-.08-.97-.06-1.21.03-.42.16-.78.39-1.08.23-.29.54-.5.93-.61.29-.08.62-.08.98,0-.43-.23-.88-.29-1.33-.16-.47.13-.81.36-1.01.68-.2.32-.32.68-.35,1.07-.03.39-.01.92.05,1.57.06.65.09.99.1,1,.01.61-.13,1.11-.41,1.51-.28.4-.66.66-1.14.79-.09.03-.16.05-.22.07-.06.02-.11.03-.16.04Zm4.96-1.38l1.61-.45c-.19-.07-.31-.15-.38-.24-.07-.09-.13-.23-.18-.44-.12.18-.21.3-.27.38-.06.08-.15.18-.27.31-.12.13-.29.27-.5.43Z"/>
      <path class="cls-1" d="m6.4,36.99l.17-.26c.36.16.66.36.91.61.24.24.43.51.56.81.13.3.21.62.23.96.03.46-.05.89-.24,1.3-.19.41-.49.74-.89,1-.4.26-.86.4-1.39.44-.42.03-.81-.01-1.18-.13-.37-.11-.71-.28-1.01-.51-.3-.23-.53-.5-.71-.81-.18-.32-.28-.66-.31-1.03-.03-.37.03-.74.16-1.08.13-.35.33-.63.59-.85.19-.16.39-.28.59-.36.2-.08.45-.15.75-.21l.27,3.76c.43-.05.79-.15,1.08-.3.29-.15.52-.34.69-.56.17-.22.28-.46.35-.7.06-.24.09-.47.07-.69-.04-.53-.26-.99-.68-1.4Zm-2.07,1.26l-.03-.44c-.46.04-.8.17-1.01.36-.21.19-.34.5-.38.93.1-.27.24-.48.43-.61.19-.13.47-.21.87-.24h.13Zm.17,2.37l-.16-2.17h-.2c-.24.03-.45.09-.63.19-.18.1-.32.23-.41.39-.09.16-.13.34-.12.53.02.32.18.57.48.77.3.2.64.29,1.04.29Zm-1.23.03c.67.73,1.5,1.06,2.5.99.72-.05,1.3-.33,1.72-.82.43-.5.62-1.05.57-1.65-.03-.35-.12-.7-.29-1.05-.17-.35-.4-.63-.7-.85.18.24.33.49.45.75.12.26.19.57.22.93.04.62-.13,1.15-.54,1.59-.4.44-.95.69-1.64.74-.44.03-.84,0-1.2-.12-.36-.12-.72-.28-1.09-.51Z"/>
      <path class="cls-1" d="m3.27,34.43s.08-.02.19-.06c.11-.04.21-.06.3-.05.18.02.33.11.45.27.12.16.18.35.16.57-.02.21-.09.37-.21.49-.12.11-.26.16-.4.15-.22-.02-.42-.15-.6-.38-.19-.23-.33-.53-.42-.91-.09-.38-.12-.79-.08-1.23.03-.32.12-.62.26-.89.14-.27.33-.48.58-.62.24-.14.53-.2.85-.17l3.15.31c.25.03.39-.04.4-.18,0-.09-.05-.2-.17-.34l.29-.2c.18.22.32.43.4.61.09.18.12.39.1.63-.03.27-.11.48-.24.62-.14.14-.34.23-.6.27.44.62.63,1.21.57,1.77-.04.4-.17.7-.4.92s-.5.3-.82.27c-.29-.03-.52-.12-.71-.29-.19-.16-.35-.37-.48-.62s-.3-.61-.49-1.09c-.19-.48-.36-.87-.5-1.18l-.94-.09c-.28-.03-.5.02-.66.13-.16.12-.25.3-.27.56-.02.22,0,.4.07.54.07.13.15.21.24.22Zm.75.27c0,.15-.04.26-.12.33-.08.07-.16.1-.26.09-.13-.01-.24-.06-.33-.14-.09-.08-.23-.22-.4-.41.12.31.25.55.38.72.13.17.29.27.48.29.08,0,.16-.03.24-.1.08-.08.13-.17.14-.29.02-.2-.02-.36-.13-.49Zm.3-1.87l2.45.24c.48.05.85.03,1.1-.05.25-.08.39-.27.42-.57.01-.14,0-.25-.02-.33-.06.25-.18.41-.35.5-.17.09-.43.12-.77.08l-2.85-.28c-.43-.04-.73-.01-.91.1-.17.11-.29.31-.36.6.1-.15.23-.25.39-.29.16-.04.46-.03.89,0Zm2.93.49l-1.99-.19c.25.56.48.95.7,1.19.22.23.5.37.84.4.23.02.41-.02.55-.13.14-.11.21-.25.23-.42.03-.26-.08-.54-.32-.84Zm.75,1.18c-.04.38-.14.67-.32.88-.17.21-.41.3-.7.27-.21-.02-.4-.1-.58-.22-.18-.13-.37-.31-.58-.56.16.35.33.64.52.84.19.2.42.32.69.35.25.03.47-.07.66-.27.19-.2.3-.44.32-.7.02-.25.02-.45-.02-.59Z"/>
      <path class="cls-1" d="m3.71,27.43l.93.24c-.27-.4-.45-.7-.54-.9-.09-.2-.11-.42-.05-.65.05-.2.17-.35.35-.45.18-.1.38-.12.59-.07.23.06.4.17.52.33.12.16.15.34.1.53-.02.09-.06.17-.12.27-.06.09-.12.17-.19.22-.04.03-.09.07-.14.1-.05.03-.09.07-.12.1-.03.03-.05.06-.06.1-.02.08-.01.16.03.25.04.09.1.2.18.32l2.92.76c.21.06.37.06.47.03.1-.04.18-.11.24-.23.05-.12.12-.33.2-.64l.33.09-.84,3.25-.33-.09.04-.16c.12-.47,0-.75-.37-.85l-2.71-.71c-.46-.12-.86.09-1.18.62l-.2-.05-.12-2.11.07-.3Zm1.47,1.64l2.75.71c.14.04.23.09.29.14.06.06.11.14.16.25.04-.23.02-.42-.06-.54-.08-.13-.24-.22-.5-.29l-2.55-.66c-.35-.09-.61-.1-.8-.01-.19.08-.32.25-.39.51,0,.02-.01.07-.02.14-.01.07-.02.12-.02.14.3-.38.68-.51,1.14-.39Zm-.44-1.8c.03-.11.09-.21.19-.3.26-.2.42-.38.46-.55.05-.21-.04-.4-.29-.56.03.13.03.22.02.27-.03.12-.1.23-.22.33-.16.12-.26.23-.29.33-.03.1,0,.26.11.48Z"/>
      <path class="cls-1" d="m6.73,21.3c-.1-.04-.21-.03-.33.05-.12.08-.21.19-.27.34-.13.29-.16.58-.09.89.06.3.22.59.48.86.25.27.58.49.97.66.36.16.72.23,1.09.2.36-.03.68-.13.96-.32.28-.19.48-.44.62-.75.11-.26.17-.55.18-.88,0-.33-.04-.62-.16-.87l.36-.08c.3.49.48,1,.53,1.52.05.52-.02,1-.21,1.44-.18.4-.46.74-.84,1.01-.38.27-.81.43-1.28.49-.47.05-.94-.02-1.39-.22-.37-.16-.69-.38-.96-.66s-.49-.6-.64-.96c-.15-.36-.23-.75-.23-1.16,0-.41.09-.82.27-1.24.15-.33.33-.62.55-.85.22-.23.46-.39.7-.46.25-.08.48-.07.69.02.19.08.31.22.37.41.06.19.05.38-.03.57-.07.17-.2.29-.37.35-.17.06-.32.06-.46,0-.03-.01-.11-.07-.24-.17-.13-.1-.22-.16-.28-.18Zm-.99,1.38c-.02.43.03.82.16,1.18.13.36.32.67.58.95.26.27.55.48.88.62.45.2.89.26,1.34.2.45-.06.85-.22,1.19-.48.35-.26.6-.57.76-.93.23-.52.27-1.09.13-1.7-.05.57-.15,1.01-.28,1.31-.17.39-.41.71-.73.95-.32.25-.67.4-1.07.45-.4.05-.79,0-1.17-.17-.45-.2-.82-.5-1.13-.91-.31-.41-.53-.9-.66-1.48Zm1.59-1.22c.12.05.23.05.34-.02.1-.07.18-.16.23-.27.01-.03.04-.13.08-.3-.15.22-.33.28-.52.19-.01,0-.06-.03-.12-.08-.06-.05-.12-.08-.17-.11-.21-.09-.43-.01-.68.24.16-.03.28-.03.38.02.06.03.14.08.24.17.1.08.17.14.23.16Z"/>
      <path class="cls-1" d="m15.33,15.98l.28.2-1.74,2.51-.28-.2c.09-.14.15-.25.18-.32.04-.08.06-.16.06-.24s-.03-.16-.09-.24c-.06-.08-.15-.16-.27-.24l-2.4-1.67c-.32-.22-.6-.31-.85-.27-.25.04-.44.16-.58.36-.23.34-.3.89-.2,1.64l2.75,1.91c.2.14.36.18.5.14.13-.05.3-.2.5-.47l.28.2-1.76,2.53-.28-.2c.15-.23.24-.42.26-.56.02-.14-.06-.27-.25-.4l-5-3.47c-.47-.33-.93-.29-1.38.11l-.21-.14.64-2.08.15-.21,3.45,2.4c-.04-.4-.03-.78.06-1.15.08-.37.23-.7.43-.99.21-.3.44-.52.7-.67.26-.14.53-.2.82-.18.29.03.59.15.9.36l2.13,1.48c.2.14.35.24.45.29.09.05.2.05.32.01.12-.04.24-.15.37-.33l.08-.12Zm-8.78,1.05l4.86,3.37c.15.1.26.19.32.26.06.07.1.16.13.27l.1-.14c.06-.08.07-.19.03-.33-.03-.14-.13-.27-.29-.38l-4.94-3.43c-.24-.17-.44-.26-.61-.29-.15-.02-.29,0-.44.06-.14.06-.26.16-.35.28-.04.06-.09.16-.16.31.27-.19.5-.27.71-.26.21.01.43.1.66.26Zm4.44-1.56l2.67,1.85c.13.09.22.17.26.25.04.08.08.17.1.3.15-.22.2-.4.14-.55-.05-.14-.19-.3-.42-.45l-2.18-1.52c-.27-.19-.49-.31-.66-.38-.17-.07-.35-.07-.54,0-.18.06-.38.23-.58.49.4-.28.81-.27,1.21,0Z"/>
      <path class="cls-1" d="m21.86,10.9l-4.09,2.79-.19-.28c.28-.21.48-.38.59-.52.12-.14.16-.29.14-.45-.02-.16-.11-.35-.26-.58l-3.54-5.18c-.17-.25-.37-.37-.6-.35-.23.02-.53.15-.91.38l-.19-.28,4.26-2.91c.55-.38,1.12-.64,1.71-.77.59-.14,1.17-.15,1.73-.05.56.1,1.09.32,1.58.65.49.33.92.75,1.27,1.28.35.51.58,1.05.69,1.62.11.57.1,1.13-.03,1.69-.13.56-.38,1.1-.75,1.61-.37.52-.84.97-1.42,1.36Zm-3.27.64l-3.25-4.76c-.28-.41-.51-.67-.7-.79-.19-.12-.44-.07-.76.15.2-.03.36,0,.48.08.12.08.26.23.42.46l3.39,4.96c.14.21.25.39.3.52.06.14.08.25.08.35,0,.09-.04.2-.11.31.26-.18.4-.36.42-.56.02-.2-.07-.44-.27-.72Zm-2.23-4.95l2.84,4.16c.2.3.37.5.51.61.13.11.3.14.5.1.2-.04.47-.18.82-.41.37-.26.68-.52.93-.8.24-.28.43-.61.57-.98.16-.44.24-.86.24-1.24s-.07-.77-.22-1.16c-.15-.39-.36-.79-.65-1.2-.84-1.23-1.82-1.9-2.96-2.02-.45-.05-.89,0-1.3.13-.42.13-.86.36-1.33.68-.32.22-.52.42-.59.61-.07.19-.05.38.04.57.1.2.3.52.61.97Zm5.97,3.57c.41-.35.7-.77.88-1.26.17-.5.2-1.05.08-1.67-.12-.61-.4-1.25-.85-1.91-.32-.48-.67-.87-1.03-1.2-.37-.32-.74-.57-1.13-.74-.39-.16-.78-.24-1.17-.23-.23,0-.45.03-.66.1-.21.06-.43.14-.66.25,1.67-.38,3.11.32,4.32,2.09.36.53.62,1.05.76,1.56.14.51.17,1.01.08,1.52-.09.51-.29,1.01-.61,1.5Z"/>
      <path class="cls-1" d="m30.32,5.16l.3.1c-.06.39-.17.74-.33,1.04-.16.3-.37.55-.63.76-.25.21-.54.37-.86.49-.43.16-.87.2-1.31.13-.45-.07-.85-.26-1.2-.58-.36-.31-.63-.72-.81-1.21-.14-.39-.21-.78-.21-1.17,0-.39.08-.76.21-1.11.14-.35.33-.65.58-.91.25-.26.55-.45.9-.58.35-.13.71-.18,1.09-.15.37.03.7.14.98.33.2.14.37.29.51.47.13.17.27.39.4.66l-3.54,1.3c.16.4.36.72.59.95.23.24.47.4.73.51.26.1.52.15.76.14.25,0,.48-.05.68-.12.49-.18.88-.53,1.15-1.04Zm-4.38-2.01c-.52.85-.61,1.74-.26,2.68.25.68.67,1.16,1.26,1.43.59.27,1.18.3,1.75.1.33-.12.64-.31.92-.57.28-.26.49-.56.63-.91-.18.24-.38.45-.59.64-.21.19-.49.34-.84.47-.58.21-1.14.19-1.68-.08-.54-.26-.92-.72-1.17-1.37-.15-.41-.22-.81-.21-1.18,0-.38.07-.78.19-1.19Zm.37,1.17l2.04-.75-.07-.19c-.08-.23-.2-.41-.34-.56-.15-.15-.31-.24-.49-.29-.18-.04-.36-.03-.54.04-.3.11-.5.33-.61.67-.11.34-.11.7.01,1.08Zm2.23-.82l.41-.15c-.17-.43-.38-.72-.62-.87-.24-.15-.58-.19-1-.11.29.02.53.1.7.25.17.14.33.4.47.77l.04.12Z"/>
      <path class="cls-1" d="m31.35,6.19l-.31-1.6.33-.06c.42.49.82.84,1.22,1.06.39.21.75.29,1.07.23.21-.04.38-.14.52-.31.14-.17.19-.34.16-.51-.04-.22-.14-.37-.27-.43-.52-.22-1.01-.36-1.47-.45-1.2-.2-1.88-.68-2.03-1.45-.09-.46.01-.87.3-1.25.29-.38.73-.62,1.33-.74.3-.06.59-.08.86-.07.27.01.58.05.92.1l.35,1.44-.3.06c-.43-.43-.83-.73-1.2-.92s-.72-.25-1.03-.19c-.2.04-.35.13-.45.29-.1.15-.14.31-.11.46.04.2.15.34.33.43.18.09.55.19,1.11.32.56.13,1.05.26,1.47.4.27.08.49.22.68.42.19.2.31.44.36.71.06.32.03.62-.1.92-.13.3-.34.56-.63.78-.29.22-.63.37-1.04.45-.57.11-1.25.08-2.06-.08Zm3.17-.92c.09-.12.15-.23.19-.33.04-.09.04-.21.01-.36-.09-.44-.47-.72-1.16-.85-.62-.13-1.11-.25-1.48-.36-.37-.12-.64-.26-.83-.42-.19-.16-.31-.39-.36-.68-.03-.17-.02-.38.03-.62-.08.15-.14.3-.18.44-.04.14-.04.3,0,.49.08.39.28.68.6.86.33.19.78.35,1.38.49.59.14,1.03.26,1.3.38.27.11.43.3.49.58.02.1.02.23,0,.38Zm-3.15-.19l.15.77c.22.05.58.09,1.08.13-.29-.13-.51-.25-.66-.36-.15-.11-.34-.29-.57-.53Zm2.4-3.39l-.19-.69c-.29-.06-.52-.09-.68-.1s-.38.01-.67.07c.33.05.59.12.81.23.21.1.46.27.74.5Z"/>
      <path class="cls-1" d="m35.81,5.35l-.08-1.63.34-.02c.34.55.7.95,1.05,1.22.36.27.7.39,1.03.38.21-.01.4-.09.56-.23.16-.14.23-.3.23-.48-.01-.23-.08-.38-.21-.46-.49-.29-.95-.51-1.39-.65-1.16-.37-1.77-.94-1.81-1.73-.02-.46.13-.86.48-1.19.34-.33.82-.51,1.42-.54.31-.01.6,0,.86.05.27.05.57.13.9.23l.14,1.47h-.3c-.36-.47-.71-.83-1.06-1.06-.34-.24-.68-.35-.99-.33-.2.01-.36.08-.49.22-.12.14-.18.29-.17.44.01.2.1.36.27.47.17.11.52.27,1.05.48.53.21,1,.41,1.4.6.25.12.46.29.61.51.16.23.24.48.26.75.02.32-.06.62-.23.9-.17.28-.42.51-.73.68-.32.17-.68.27-1.09.29-.58.03-1.25-.09-2.03-.37Zm3.27-.46c.11-.11.19-.21.23-.3.05-.09.07-.2.06-.35-.02-.45-.36-.78-1.03-1.01-.59-.21-1.06-.4-1.41-.57-.34-.17-.6-.35-.76-.54-.16-.19-.25-.43-.26-.73,0-.18.03-.38.12-.61-.1.14-.18.27-.24.41-.06.13-.08.3-.07.49.02.39.18.71.47.94.29.23.73.46,1.3.68.57.22.98.41,1.23.56.25.15.39.36.4.65,0,.1-.01.23-.05.38Zm-3.09-.64l.04.78c.21.08.56.17,1.05.28-.27-.17-.47-.32-.6-.45-.13-.13-.3-.33-.49-.61Zm2.86-3.01l-.09-.71c-.28-.1-.5-.16-.65-.2-.16-.03-.38-.04-.68-.03.32.09.57.2.76.34.19.13.41.33.66.6Z"/>
      <path class="cls-1" d="m45.23,4.39l.23.22c-.22.33-.47.59-.75.79-.28.2-.58.33-.9.41-.32.07-.65.1-.98.06-.46-.05-.87-.2-1.24-.46-.37-.26-.65-.61-.83-1.05-.19-.44-.25-.92-.19-1.44.04-.41.15-.79.33-1.15.18-.35.4-.65.68-.9.27-.25.58-.44.92-.56.34-.12.7-.16,1.06-.12.37.04.72.15,1.04.34.32.19.57.43.74.73.12.21.21.43.25.64.04.22.07.47.07.77l-3.75-.39c-.03.43,0,.8.11,1.12.1.31.24.57.43.77.19.2.4.36.63.46s.45.17.66.19c.52.06,1.02-.08,1.49-.42Zm-3.05-3.73c-.84.53-1.31,1.3-1.41,2.29-.07.72.09,1.33.51,1.84.41.51.92.79,1.53.85.35.04.71,0,1.08-.1.37-.11.69-.29.96-.54-.27.13-.54.24-.81.31-.27.07-.59.09-.96.05-.62-.06-1.11-.33-1.47-.81-.37-.47-.51-1.06-.44-1.75.04-.44.16-.82.33-1.16.17-.33.4-.66.69-.98Zm-.18,1.22l2.17.23.02-.2c.03-.24,0-.46-.06-.66-.07-.2-.17-.35-.31-.47-.14-.12-.31-.19-.5-.21-.32-.03-.6.08-.84.33-.25.26-.4.58-.47.98Zm2.36.25l.43.04c.04-.46-.02-.82-.18-1.06-.16-.24-.44-.42-.85-.54.25.15.43.32.52.53.1.2.12.5.08.9v.12Z"/>
      <path class="cls-1" d="m49.2,1.25l-.25.93c.4-.27.71-.45.91-.54.2-.09.42-.1.65-.04.2.05.35.17.45.35s.12.38.06.59c-.06.23-.17.4-.34.51-.16.12-.34.15-.53.1-.09-.02-.17-.06-.26-.12-.09-.06-.17-.12-.22-.19-.03-.04-.06-.09-.1-.14-.03-.05-.07-.09-.1-.12-.03-.03-.06-.05-.1-.06-.08-.02-.16-.01-.25.03-.09.04-.2.1-.32.18l-.78,2.91c-.06.21-.07.37-.03.47.03.1.11.18.23.24.12.06.33.12.63.2l-.09.33-3.24-.87.09-.33.16.04c.47.12.75,0,.85-.37l.72-2.71c.12-.46-.08-.86-.61-1.18l.06-.2,2.11-.1.3.08Zm-1.65,1.47l-.73,2.74c-.04.14-.09.23-.15.29-.06.06-.14.11-.25.16.23.04.42.02.54-.05.13-.08.23-.24.29-.49l.68-2.54c.09-.35.1-.61.02-.8-.08-.19-.25-.32-.51-.39-.02,0-.07-.01-.14-.02-.07-.01-.12-.02-.14-.03.37.3.5.68.38,1.14Zm1.81-.43c.11.03.21.09.3.2.2.26.38.42.55.46.21.06.4-.04.57-.28-.13.03-.22.03-.27.02-.12-.03-.23-.1-.33-.22-.12-.17-.23-.26-.33-.29-.1-.03-.26,0-.48.11Z"/>
      <path class="cls-1" d="m51.1,6.11l1.37-3.28-.62-.26.12-.29c.44-.11.78-.2,1-.27.23-.07.45-.15.67-.26.22-.11.43-.23.61-.37l.3.13-.63,1.5,1.43.59-.15.36-1.43-.59-1.44,3.45c-.11.25-.15.46-.14.61,0,.15.09.26.23.32.14.06.28.07.43.04.15-.03.34-.09.58-.18l.12.31c-.41.18-.77.29-1.07.33-.3.04-.6,0-.92-.13-.3-.12-.5-.29-.61-.48-.11-.2-.15-.42-.12-.68.04-.25.12-.54.25-.86Zm2.34-4.02l-.51.16-1.59,3.83c-.21.51-.3.91-.27,1.2s.22.5.57.65c.18.07.37.12.58.14-.35-.13-.59-.33-.7-.58-.11-.25-.08-.58.09-.99l1.83-4.4Z"/>
      <path class="cls-1" d="m67.85,8.07l.39.33-1.76,2.13-.3-.25c.11-.44.17-.85.2-1.23.02-.38,0-.74-.06-1.06-.06-.32-.17-.61-.32-.87-.15-.26-.35-.49-.6-.69-.33-.27-.7-.45-1.09-.53-.4-.07-.81-.06-1.23.06-.42.12-.85.33-1.29.64-.44.31-.84.69-1.21,1.14-.52.63-.88,1.28-1.07,1.95-.19.67-.21,1.29-.06,1.88.15.59.47,1.08.96,1.48.3.25.63.43.98.57.36.13.75.2,1.17.21.42.01.86-.05,1.32-.16l.15.39c-.79.22-1.55.26-2.28.1-.73-.15-1.42-.5-2.08-1.05-.51-.42-.91-.91-1.2-1.44-.29-.54-.45-1.1-.5-1.68-.05-.58.02-1.16.2-1.72.18-.57.47-1.09.86-1.56.42-.51.91-.92,1.46-1.21.55-.29,1.11-.46,1.7-.51.59-.05,1.16.01,1.73.19.57.18,1.09.47,1.57.86.18.15.34.3.47.46.13.16.28.35.45.59.17.23.28.39.34.47.06.08.14.16.24.24.25.21.54.3.85.25Zm-3.54-2.57c-.65-.22-1.25-.33-1.78-.33-.31,0-.62.04-.92.12-.3.08-.59.18-.87.32-.28.14-.55.31-.81.52-.26.21-.49.43-.69.67-.48.58-.8,1.21-.96,1.89-.17.69-.15,1.39.06,2.1.2.71.6,1.37,1.19,1.99-.33-.46-.59-.95-.76-1.46-.17-.51-.25-1.02-.25-1.52,0-.51.1-.99.27-1.45.17-.46.42-.88.74-1.27.26-.32.6-.61.99-.88.4-.27.8-.46,1.22-.57.47-.13.9-.2,1.29-.2.39,0,.81.02,1.28.08Zm2.35,3.63l.65-.84c-.21-.06-.39-.16-.56-.29-.08-.07-.15-.13-.21-.21.06.26.1.49.11.7.01.21.02.42.01.64Z"/>
      <path class="cls-1" d="m67.5,13.96s-.04.07-.09.17c-.05.11-.11.19-.18.24-.14.11-.31.15-.51.12-.2-.03-.37-.13-.5-.31-.13-.17-.19-.33-.18-.5.01-.17.07-.29.19-.38.17-.13.4-.18.7-.14.29.04.6.16.93.38.33.21.63.49.9.85.2.26.34.53.42.82.08.29.09.57,0,.84-.08.27-.25.51-.5.71l-2.51,1.94c-.2.16-.26.29-.17.4.05.07.17.11.36.13l-.07.35c-.29-.04-.52-.09-.71-.16s-.35-.2-.5-.39c-.17-.22-.25-.42-.25-.62,0-.2.09-.4.25-.61-.74-.15-1.29-.45-1.63-.9-.24-.32-.36-.63-.33-.94.02-.31.16-.57.41-.76.23-.17.46-.27.71-.28.25-.01.5.03.77.12.27.09.63.25,1.11.46.47.22.86.39,1.18.52l.75-.58c.22-.17.35-.36.39-.55.04-.19-.02-.39-.18-.59-.14-.18-.28-.29-.42-.34-.14-.05-.25-.04-.32.01Zm-3.48,3.19c-.23-.3-.36-.59-.37-.86-.02-.27.09-.5.32-.68.17-.13.36-.21.58-.24.22-.03.49-.03.81,0-.36-.15-.68-.23-.95-.25-.27-.02-.52.05-.74.22-.2.16-.3.37-.3.65,0,.28.09.52.24.73.16.2.3.34.42.42Zm1.35.34l1.58-1.23c-.56-.24-1-.37-1.32-.39-.32-.02-.61.08-.88.29-.18.14-.28.3-.3.47-.02.17.02.33.12.46.16.21.43.34.81.39Zm2.47-1.65l-1.95,1.51c-.39.3-.64.56-.77.79-.13.23-.1.46.09.7.08.11.16.19.24.23-.12-.22-.15-.42-.09-.6.06-.18.23-.38.51-.59l2.27-1.75c.34-.26.54-.5.6-.69.06-.2,0-.43-.15-.68.03.18,0,.34-.09.48-.09.13-.31.34-.65.61Zm-1.07-1.57c-.1-.11-.15-.22-.14-.33,0-.11.05-.19.13-.25.1-.08.22-.12.34-.13.12,0,.32,0,.57.02-.3-.14-.56-.23-.77-.26-.22-.03-.4,0-.55.12-.07.05-.1.13-.11.25,0,.11.03.21.1.31.12.16.26.25.43.27Z"/>
      <path class="cls-1" d="m72.03,19.4l-.74.37c.4.19.73.39.99.59.26.2.48.49.66.86.53,1.05.27,1.84-.78,2.37l-2.55,1.27c-.24.12-.37.26-.37.4,0,.15.05.34.17.57l-.31.15-1.34-2.69.31-.15c.12.24.24.39.37.46.13.07.32.05.56-.08l2.7-1.35c.2-.1.35-.21.45-.34.1-.13.16-.27.17-.43.01-.16-.03-.32-.11-.49-.11-.21-.26-.39-.47-.54-.21-.15-.49-.29-.83-.42l-2.95,1.47c-.17.08-.28.18-.34.28-.06.1-.08.2-.06.31.02.1.08.25.16.43l-.31.15-1.35-2.7.31-.15c.11.23.23.39.35.48.12.09.29.08.51-.03l2.47-1.24c.24-.12.42-.28.51-.46.1-.19.12-.42.07-.71l.19-.09,1.44,1.49.11.21Zm-2.04-.33l-2.56,1.28c-.17.08-.29.13-.38.14-.09.01-.2,0-.33-.04.22.35.51.43.88.24l2.66-1.33c.19-.09.31-.24.38-.44.07-.2.06-.39-.03-.56,0-.02-.03-.05-.06-.1-.03-.04-.05-.07-.06-.09.02.41-.15.71-.5.88Zm1.86,3.27l-2.75,1.38c-.12.06-.2.1-.26.12-.06.02-.12.03-.18.03-.06,0-.15-.01-.26-.05l.05.11c.1.19.23.29.41.28.17,0,.4-.09.69-.23l2.47-1.23c.32-.16.53-.35.62-.58.1-.23.06-.52-.1-.88.02.24-.03.45-.14.61-.11.17-.3.31-.56.45Z"/>
      <path class="cls-1" d="m71.86,30.45l-.12.29c-.39-.09-.72-.23-1.01-.42-.29-.19-.52-.42-.71-.69s-.32-.57-.41-.89c-.12-.44-.13-.88-.02-1.32.11-.44.33-.82.67-1.15.34-.33.76-.57,1.28-.71.4-.11.8-.15,1.19-.11.39.04.75.14,1.09.3.33.16.62.38.86.66.24.27.4.59.5.95.1.36.12.73.06,1.1-.06.37-.2.69-.41.95-.15.19-.32.35-.51.47-.19.12-.42.23-.69.35l-1-3.64c-.41.13-.75.3-1,.51-.25.21-.44.43-.56.69-.12.25-.19.5-.2.75-.01.25,0,.48.07.69.14.5.45.91.94,1.23Zm2.36-4.2c-.8-.59-1.68-.75-2.64-.48-.7.19-1.21.57-1.53,1.14-.32.57-.4,1.15-.24,1.73.09.34.26.66.49.97.23.3.52.54.86.7-.22-.2-.42-.42-.59-.64-.17-.23-.3-.52-.4-.87-.16-.6-.09-1.16.22-1.67.31-.51.8-.86,1.47-1.05.43-.12.82-.16,1.2-.12.37.04.76.13,1.17.28Zm-1.2.27l.58,2.1.2-.06c.23-.06.43-.16.59-.3.16-.13.27-.29.33-.46.06-.17.06-.35,0-.54-.08-.3-.29-.53-.62-.66-.33-.14-.69-.16-1.08-.08Zm.63,2.29l.11.42c.45-.14.75-.32.92-.55.17-.23.23-.56.19-.98-.05.29-.15.52-.3.68-.16.16-.42.3-.81.4l-.12.03Z"/>
      <path class="cls-1" d="m71.47,32.04l5.87-.77c.31-.04.55-.12.72-.25.16-.12.29-.37.37-.75l.24-.03.93,1.92.03.24-7.74,1.02c-.32.04-.54.11-.65.2-.12.09-.15.28-.11.58l.02.17-.34.04-.4-3.08.34-.04.02.15c.03.24.11.41.22.51.12.1.28.13.49.1Zm.33.58l5.57-.73c.29-.04.53-.08.7-.13.17-.05.31-.14.41-.29.1-.14.13-.35.1-.63-.02-.14-.04-.25-.06-.33-.06.39-.19.64-.39.75-.2.1-.47.18-.81.22l-5.79.76c-.28.04-.51-.02-.69-.17.05.29.15.46.31.51.16.06.37.06.66.03Z"/>
      <path class="cls-1" d="m72.37,39.44l-.2.25c-.35-.19-.63-.42-.85-.68-.22-.26-.38-.55-.49-.86-.1-.31-.15-.64-.15-.97,0-.46.12-.88.35-1.27.23-.39.55-.69.97-.92.42-.22.89-.33,1.42-.32.42,0,.81.08,1.17.23.36.14.68.34.96.6.27.25.49.54.64.87.15.33.22.68.22,1.05,0,.38-.09.73-.25,1.07-.16.34-.38.6-.66.8-.2.14-.41.25-.62.3-.21.06-.46.11-.76.14l.06-3.77c-.43,0-.8.08-1.1.2-.3.13-.55.29-.73.5-.19.21-.32.43-.4.66-.08.24-.13.46-.13.68-.01.53.17,1.01.55,1.45Zm3.44-3.37c-.6-.79-1.4-1.19-2.4-1.21-.72-.01-1.32.21-1.79.67-.47.46-.71.99-.72,1.6,0,.35.06.71.2,1.07s.34.66.62.91c-.16-.26-.29-.52-.38-.78-.1-.27-.14-.58-.14-.95.01-.62.23-1.13.67-1.54.44-.41,1.01-.61,1.7-.59.44,0,.83.08,1.18.23.35.14.7.35,1.05.61Zm-1.27,2.3v.44c.46,0,.81-.1,1.03-.27.23-.17.38-.47.46-.89-.13.26-.29.45-.48.57-.2.11-.49.17-.89.16h-.12Zm.04-2.38l-.04,2.18h.21c.24,0,.46-.03.65-.12.19-.09.34-.2.44-.35.1-.15.16-.32.16-.52,0-.32-.13-.59-.41-.81-.28-.23-.62-.35-1.01-.38Zm2.65.29v-.35s1.95.74,1.95.74l-.03,1.84-1.92-2.23Zm.34,0l1.25,1.17v-.71s-1.25-.46-1.25-.46Z"/>
      <path class="cls-1" d="m71.08,40.08l1.61.26-.05.33c-.6.22-1.08.48-1.41.78-.34.3-.53.61-.58.93-.03.21,0,.41.11.59.11.19.25.29.42.32.23.04.39,0,.5-.11.38-.41.69-.82.92-1.22.6-1.06,1.29-1.53,2.07-1.4.46.07.82.31,1.07.72.25.4.33.91.23,1.5-.05.3-.13.58-.23.84-.11.25-.24.53-.42.83l-1.47-.17.05-.3c.55-.25.97-.52,1.28-.81.3-.29.48-.59.53-.9.03-.2,0-.37-.12-.52-.11-.15-.24-.24-.4-.26-.2-.03-.37.02-.52.16-.14.14-.37.45-.68.93-.31.48-.61.89-.88,1.24-.17.22-.38.39-.63.49-.25.11-.52.14-.79.09-.32-.05-.59-.19-.83-.42-.24-.23-.41-.51-.51-.86-.1-.35-.12-.72-.06-1.13.09-.57.35-1.21.78-1.91Zm-.24,3.29c.09.13.16.22.24.29.07.07.19.11.33.14.44.07.84-.19,1.2-.79.33-.54.62-.96.85-1.26.24-.3.46-.51.68-.63.22-.12.47-.15.77-.1.18.03.37.11.57.24-.11-.13-.23-.23-.35-.32-.12-.09-.27-.14-.46-.17-.39-.06-.73.03-1.02.27-.29.24-.6.62-.94,1.13-.34.51-.6.87-.8,1.09-.2.22-.43.3-.72.26-.1-.02-.22-.06-.36-.13Zm1.27-2.89l-.77-.13c-.12.19-.29.51-.49.97.22-.23.41-.39.57-.49.16-.1.39-.22.7-.35Zm2.35,3.43l.72.06c.16-.25.26-.45.33-.6.07-.14.12-.36.17-.66-.16.29-.32.52-.49.68-.17.16-.41.33-.72.52Z"/>
      <path class="cls-1" d="m73.87,51.13c.17-.36.36-.61.57-.75.21-.13.43-.15.66-.04.17.08.29.21.35.38.06.17.05.36-.04.54-.1.21-.23.37-.4.49-.17.12-.42.26-.74.42-.32.16-.57.31-.73.45.14.06.3.1.48.13.18.02.38.04.62.06.24.01.42.03.55.05.13.02.26.06.4.13.2.09.34.23.41.41.07.18.07.34,0,.48-.09.18-.22.31-.4.38-.19.07-.39.06-.61-.05-.13-.06-.25-.13-.36-.22-.11-.09-.22-.18-.33-.29-.11-.11-.24-.24-.39-.38-.15-.14-.32-.29-.5-.42-.01.18.03.46.11.84s.14.68.16.89c.02.21-.02.42-.11.63-.08.17-.2.28-.37.34-.17.06-.34.06-.51-.02-.23-.1-.36-.28-.39-.53-.03-.25.04-.56.21-.92.1-.2.21-.41.32-.63.11-.22.19-.43.23-.64-.2.1-.5.27-.9.49-.4.22-.69.36-.89.42-.2.06-.38.04-.56-.04-.15-.07-.26-.19-.33-.36-.07-.17-.06-.34.01-.5.11-.25.29-.39.53-.42.24-.03.59-.02,1.05.05.46.07.81.09,1.05.07-.1-.14-.29-.33-.55-.56s-.47-.43-.62-.59c-.15-.16-.27-.33-.34-.51-.07-.18-.07-.36.02-.55.08-.17.2-.28.38-.35.18-.07.35-.06.52.02.21.1.35.25.43.45.08.2.16.51.22.92.07.41.13.73.2.98.06-.07.13-.2.22-.38.04-.07.09-.21.18-.41.09-.19.15-.34.2-.44Zm-.83,1.62v-.06c-.21.01-.45.06-.71.14-.27.08-.5.16-.69.22-.19.06-.38.11-.57.13-.19.02-.35,0-.5-.07l-.06-.04c.01.23.11.39.28.47.17.08.35.08.55,0,.2-.08.49-.23.87-.44.39-.2.66-.32.83-.35Zm.08-.26l.06-.03c-.06-.19-.17-.41-.34-.64-.16-.23-.31-.43-.43-.59-.12-.16-.22-.33-.3-.5-.08-.17-.11-.36-.09-.56-.14.07-.24.15-.29.26-.1.2-.08.39.05.57.13.17.35.42.68.72.33.3.55.56.66.77Zm.14.43l-.06-.03c-.05.17-.08.36-.09.58-.01.22-.01.44,0,.67,0,.23,0,.42-.01.59-.01.16-.05.31-.11.45-.04.08-.1.16-.18.24.13.04.24.04.34-.01.1-.05.18-.13.23-.26.09-.19.12-.36.1-.52-.02-.16-.07-.42-.14-.81-.07-.38-.1-.68-.08-.9Zm.12-.44l.06.03c.21-.18.43-.44.68-.79.24-.35.43-.59.56-.74.13-.15.3-.24.52-.28-.05-.08-.1-.13-.17-.16-.15-.07-.31-.05-.48.05-.17.1-.32.29-.45.56-.04.09-.09.21-.14.34-.05.13-.11.27-.17.4-.05.1-.09.19-.14.25-.05.07-.09.13-.14.18-.04.05-.09.1-.13.15Zm.12.23l-.03.07c.09.07.2.14.34.2.12.06.35.13.68.23.33.1.58.19.74.26.24.12.41.27.5.47l.06-.13c.05-.11.05-.22,0-.35-.05-.13-.17-.24-.36-.33-.12-.06-.27-.09-.45-.12-.18-.03-.35-.05-.49-.06-.15-.01-.3-.04-.47-.07-.16-.03-.32-.09-.47-.15l-.04-.02Z"/>
      <path class="cls-1" d="m60.15,51.51l-5.77-34.09-.02-.1c-.03-.21-.19-.37-.4-.41l-.32-.06-6.48-1.2c-2.43-.45-4.89-.67-7.35-.68-2.46.01-4.92.23-7.35.68l-6.8,1.26c-.21.04-.37.2-.4.41l-5.82,34.38c-.05.26.11.5.36.57l8.95,2.45c3.62.99,7.34,1.49,11.06,1.49s7.44-.5,11.06-1.49l8.95-2.45c.11-.03.19-.09.26-.17.09-.11.13-.25.1-.4l-.03-.19Zm-6.43-33.48l2.06,12.2h-15.03l12.97-12.2Zm-13.16-2.3c2.19.05,4.37.27,6.46.66l2.48.46h-8.94v-1.12Zm0,1.87h12.52l-12.52,11.78v-11.78Zm10.11,36.4c-3.31.9-6.7,1.39-10.11,1.45v-3.35h17.05l-6.94,1.9Zm-10.11-2.65v-19.41l18.41,19.41h-18.41Zm.12-20.37h15.23l3.31,19.55-18.54-19.55Z"/>
    </g>
  </g>
</svg>