<svg width="80" height="72" viewBox="0 0 80 72" fill="none" xmlns="http://www.w3.org/2000/svg">
<g clip-path="url(#clip0_933_2722)">
<path d="M60.542 52.2635V52.2099L60.5312 52.1992L60.542 52.2635Z" fill="white"/>
<path d="M60.5312 52.1992L60.542 52.2635V52.2099L60.5312 52.1992Z" fill="black"/>
<path d="M25.501 17.1509V17.1594L25.5074 17.1552L25.501 17.1509Z" fill="white"/>
<path d="M25.501 17.1509V17.1594L25.5074 17.1552L25.501 17.1509Z" fill="black"/>
<path d="M54.6042 17.1509H54.5957L54.6 17.1551L54.6042 17.1509Z" fill="#998981"/>
<path d="M25.501 46.2578V46.2684L25.5074 46.2642L25.501 46.2578Z" fill="white"/>
<path d="M25.501 46.2578V46.2684L25.5074 46.2642L25.501 46.2578Z" fill="black"/>
<path d="M25.5116 17.1509H25.501L25.5074 17.1551L25.5116 17.1509Z" fill="white"/>
<path d="M25.5116 17.1509H25.501L25.5074 17.1551L25.5116 17.1509Z" fill="black"/>
<path d="M54.6039 17.1509L54.5996 17.1552L54.6039 17.1594V17.1509Z" fill="#998981"/>
<path d="M54.6039 46.2578L54.5996 46.2642L54.6039 46.2684V46.2578Z" fill="#998981"/>
<path d="M25.501 46.2689H25.5116L25.5074 46.2646L25.501 46.2689Z" fill="white"/>
<path d="M25.5074 46.2646L25.501 46.2689H25.5116L25.5074 46.2646Z" fill="black"/>
<path d="M54.6 46.2646L54.5957 46.2689H54.6042L54.6 46.2646Z" fill="#998981"/>
<path d="M40.0188 52.2637H31.5041H19.51L19.4736 52.3001C19.4993 52.3258 19.525 52.3493 19.5507 52.375C20.535 52.7582 28.4462 55.2804 35.4415 56.2074C37.04 56.4194 38.5893 56.5479 39.9974 56.5479C40.0145 56.5479 40.0338 56.5479 40.0509 56.5479V52.3022L40.0188 52.2637Z" fill="#FFBE17"/>
<path d="M59.3289 52.4778C56.806 53.3085 50.4462 55.1883 44.6556 55.9741C43.0272 56.1946 41.5528 56.3145 40.2689 56.3295V52.4778H48.6059H59.3289ZM60.5422 52.2637H48.6038H40.0891L40.0527 52.3001V56.5457C41.4843 56.5414 43.0593 56.4066 44.6813 56.186C52.1774 55.1691 60.6022 52.3215 60.5422 52.2637Z" fill="#FFBE17"/>
<path d="M54.5992 17.1548L54.5586 17.1955L54.6035 17.4631V17.1591L54.5992 17.1548Z" fill="#998981"/>
<path d="M40.0528 52.2637H40.0186L40.0528 52.3001V52.2637Z" fill="black"/>
<path d="M40.0891 52.2637H40.0527V52.3001L40.0891 52.2637Z" fill="black"/>
<path d="M40.2667 15.3329C41.4116 15.3501 42.7683 15.44 44.3004 15.6049C47.6408 15.9624 51.1074 16.5854 53.0034 16.9344H46.0787H40.2646V15.3329M40.0527 15.1167V17.1507H46.0808H54.5955L54.42 16.9751C53.5747 16.8445 48.8541 15.8789 44.324 15.3929C42.8303 15.2323 41.3581 15.1253 40.0527 15.1167Z" fill="#FFBE17"/>
<path d="M39.8918 15.1167C38.6378 15.1167 37.2362 15.2109 35.8175 15.3586C30.9963 15.8575 25.944 16.9644 25.5995 17.0629L25.5117 17.1507H34.0264H40.0544V15.1167C39.9988 15.1167 39.9453 15.1167 39.8918 15.1167Z" fill="#FFBE17"/>
<path d="M29.7635 21.4154L25.5072 17.1548L25.5008 17.1591L25.4345 17.2254L23.6819 27.5002L22.9629 31.7095H25.5008H40.0521L29.7635 21.4154Z" fill="#FFBE17"/>
<path d="M54.0883 17.365L50.1916 21.2638L40.2667 31.1939V17.365H46.0808H54.0883ZM54.5955 17.1509H46.0808H40.0527V31.7099L50.3414 21.4158L54.5569 17.198L54.5976 17.1573L54.5955 17.1509Z" fill="#FFBE17"/>
<path d="M25.5013 31.7095H22.9633L22.4562 34.6919L21.2129 41.9671L19.4561 52.2634H19.5096L25.5013 46.2685V46.2578L25.5077 46.2642L29.7639 42.0035L40.0525 31.7095H25.5013Z" fill="#FFBE17"/>
<path d="M34.0267 17.1509H25.5121L25.5078 17.1552L29.7641 21.4158L40.0527 31.7099V17.1509H34.0267Z" fill="#FFBE17"/>
<path d="M54.4177 17.6411L56.0846 27.4064L56.7823 31.4957H54.606H40.5704L50.4952 21.5656L54.4177 17.6411ZM54.5589 17.1958L50.3433 21.4136L40.0547 31.7077H54.606H57.0369L56.2965 27.3678L54.606 17.4613L54.5589 17.1958Z" fill="#FFBE17"/>
<path d="M56.8552 31.9236L57.3495 34.8182L58.5906 42.0956L60.2084 51.5718L54.818 46.1786L54.8137 45.7439L54.5997 45.9602L50.4933 41.8515L40.5684 31.9214H54.604H56.8552M57.0349 31.7095H54.604H40.0527L50.3414 42.0035L54.5976 46.2621L54.6019 46.2578V46.2663L60.5294 52.197L58.7982 42.0571L57.5571 34.7797L57.0349 31.7095Z" fill="#FFBE17"/>
<path d="M29.7641 42.0035L25.5079 46.2642L25.5122 46.2685H25.5015L19.5098 52.2634H31.5039H40.0185H40.0528V46.2685V31.7095L29.7641 42.0035Z" fill="#FFBE17"/>
<path d="M40.2667 32.2255L50.1916 42.1556L54.3002 46.2663L54.0883 46.4826H54.5163L60.08 52.0493H48.6038H40.2667V46.2685V32.2255ZM40.0527 31.7095V46.2685V52.2634H40.0891H48.6038H60.5422L60.5315 52.1991L54.604 46.2685H54.5955L54.5997 46.2642L50.3435 42.0057L40.0527 31.7095Z" fill="#FFBE17"/>
<path d="M28.8476 69.5438H30.9041C31.2422 69.5438 31.5204 69.5246 31.7386 69.4839C31.9569 69.4432 32.1409 69.3726 32.2972 69.2698C32.4534 69.167 32.6053 69.0171 32.7551 68.8223H33.1381L32.3164 70.8541H27.4268V70.5844C27.9532 69.9913 28.4432 69.4368 28.8947 68.9229C29.3462 68.4091 29.7421 67.9167 30.0866 67.4456C30.4312 66.9746 30.7072 66.4929 30.9212 66.0004C31.1352 65.508 31.2401 65.022 31.2401 64.5445C31.2401 64.1891 31.1716 63.8722 31.0325 63.5918C30.8934 63.3113 30.7072 63.0929 30.4676 62.9366C30.2279 62.7803 29.9647 62.7011 29.6715 62.7011C29.2992 62.7011 28.9696 62.821 28.6807 63.0587C28.3919 63.2963 28.1821 63.6432 28.0537 64.0992H27.6707C28.0559 62.5898 28.9546 61.834 30.367 61.834C30.8271 61.834 31.2379 61.9282 31.6017 62.1187C31.9655 62.3093 32.2458 62.5641 32.4448 62.8874C32.6438 63.2107 32.7423 63.5554 32.7423 63.9279C32.7423 64.4546 32.5967 64.9834 32.3057 65.5123C32.0147 66.0411 31.6381 66.5678 31.1737 67.0902C30.7094 67.6126 29.9326 68.4326 28.8476 69.5438ZM28.0751 70.3917L27.874 70.6358H30.964C31.407 70.6358 31.7194 70.5801 31.9013 70.4666C32.0832 70.3531 32.2372 70.1455 32.3614 69.8393C32.1688 69.9699 31.9869 70.0641 31.8135 70.1241C31.6402 70.184 31.3663 70.214 30.9897 70.214H28.6272C28.4389 70.214 28.3191 70.2225 28.2699 70.2418C28.2207 70.2611 28.1543 70.3125 28.0751 70.3917ZM30.2878 67.5441C30.6131 67.223 30.8955 66.8847 31.1352 66.5335C31.3749 66.1824 31.5546 65.8291 31.6809 65.4737C31.8071 65.1183 31.8692 64.7758 31.8692 64.446C31.8692 64.0607 31.7921 63.701 31.6402 63.367C31.4883 63.033 31.2764 62.7696 31.0047 62.5769C30.7329 62.3842 30.4248 62.2879 30.0824 62.2879C29.802 62.2879 29.5196 62.365 29.235 62.5191C29.3227 62.4934 29.4425 62.4806 29.5923 62.4806C29.8727 62.4806 30.1294 62.5341 30.3627 62.6433C30.5959 62.7525 30.7928 62.9002 30.9512 63.0886C31.1095 63.277 31.2315 63.4933 31.3149 63.7416C31.3984 63.99 31.4412 64.2426 31.4412 64.506C31.4412 65.0156 31.3428 65.508 31.1459 65.9833C30.949 66.4586 30.6644 66.9789 30.2878 67.5441Z" fill="#FFBE17"/>
<path d="M33.7734 66.5037C33.7734 65.5381 33.8933 64.7052 34.1329 64.0051C34.3726 63.305 34.7193 62.7676 35.1708 62.3972C35.6223 62.0268 36.1444 61.8384 36.7372 61.8384C37.2101 61.8384 37.6295 61.9433 37.9933 62.151C38.3571 62.3586 38.6717 62.667 38.9327 63.0695C39.1938 63.472 39.3907 63.958 39.5255 64.5254C39.6603 65.0927 39.7266 65.7351 39.7266 66.4544C39.7266 67.3922 39.6047 68.2058 39.3607 68.8974C39.1168 69.5889 38.7701 70.1177 38.3207 70.4817C37.8713 70.8457 37.3428 71.0277 36.7372 71.0277C36.2857 71.0277 35.8748 70.9206 35.5046 70.7087C35.1344 70.4967 34.8198 70.1884 34.5609 69.7859C34.302 69.3834 34.1051 68.9081 33.9724 68.3578C33.8398 67.8076 33.7734 67.1888 33.7734 66.5037ZM35.7678 62.2751C35.3634 62.4892 35.0274 62.7869 34.7642 63.1722C34.501 63.5576 34.3041 64.0244 34.1757 64.5768C34.0473 65.1291 33.981 65.7757 33.981 66.5144C33.981 67.0325 34.0174 67.51 34.0901 67.9446C34.1629 68.3792 34.2742 68.771 34.4261 69.1179C34.578 69.4647 34.7621 69.7602 34.9803 70.0021C35.1986 70.2441 35.4618 70.4517 35.7678 70.623C34.8519 69.6018 34.394 68.2294 34.394 66.5015C34.394 65.5809 34.5074 64.7716 34.7321 64.0715C34.9568 63.3714 35.3035 62.7719 35.7678 62.2751ZM35.3912 66.3581C35.3912 67.3494 35.4361 68.1587 35.5239 68.7882C35.6116 69.4176 35.755 69.8887 35.9561 70.2034C36.1573 70.5181 36.4226 70.6744 36.7522 70.6744C37.086 70.6744 37.3578 70.516 37.5632 70.2012C37.7686 69.8865 37.9206 69.4133 38.0147 68.7839C38.1089 68.1544 38.1559 67.3579 38.1559 66.3966C38.1559 64.9493 38.0425 63.8873 37.8178 63.2065C37.5931 62.5256 37.2251 62.1874 36.7137 62.1874C36.2707 62.1874 35.939 62.5342 35.7207 63.2279C35.5025 63.9216 35.3912 64.9664 35.3912 66.3581ZM37.4476 62.2366C37.6809 62.4507 37.8628 62.7162 37.9933 63.0374C38.1238 63.3585 38.2159 63.7803 38.2715 64.3048C38.3271 64.8294 38.3571 65.5145 38.3571 66.3581C38.3571 67.161 38.3336 67.8226 38.2886 68.3428C38.2437 68.8631 38.1602 69.2999 38.0447 69.6531C37.9291 70.0064 37.7665 70.304 37.5611 70.5459C38.0297 70.2291 38.355 69.7538 38.5368 69.1222C38.7187 68.4906 38.8086 67.6256 38.8086 66.5251C38.8086 65.9106 38.7872 65.3839 38.7423 64.945C38.6973 64.5061 38.6224 64.1122 38.5133 63.7632C38.4042 63.4142 38.2651 63.1144 38.0939 62.8661C37.9227 62.6177 37.7066 62.4079 37.4476 62.2366Z" fill="#FFBE17"/>
<path d="M41.9375 69.5438H43.9939C44.332 69.5438 44.6102 69.5246 44.8285 69.4839C45.0468 69.4432 45.2308 69.3726 45.387 69.2698C45.5432 69.167 45.6952 69.0171 45.8449 68.8223H46.228L45.4063 70.8541H40.5166V70.5844C41.043 69.9913 41.5331 69.4368 41.9846 68.9229C42.4361 68.4091 42.832 67.9167 43.1765 67.4456C43.521 66.9746 43.7971 66.4929 44.0111 66.0004C44.225 65.508 44.3299 65.022 44.3299 64.5445C44.3299 64.1891 44.2614 63.8722 44.1223 63.5918C43.9832 63.3113 43.7971 63.0929 43.5574 62.9366C43.3177 62.7803 43.0545 62.7011 42.7614 62.7011C42.389 62.7011 42.0595 62.821 41.7706 63.0587C41.4817 63.2963 41.2741 63.6432 41.1436 64.0992H40.7605C41.1457 62.5898 42.0445 61.834 43.4568 61.834C43.9169 61.834 44.3278 61.9282 44.6915 62.1187C45.0553 62.3093 45.3356 62.5641 45.5347 62.8874C45.7337 63.2107 45.8321 63.5554 45.8321 63.9279C45.8321 64.4546 45.6866 64.9834 45.3956 65.5123C45.1045 66.0411 44.7279 66.5678 44.2636 67.0902C43.7992 67.6126 43.0246 68.4326 41.9375 69.5438ZM41.165 70.3917L40.9638 70.6358H44.0538C44.4968 70.6358 44.8092 70.5801 44.9911 70.4666C45.173 70.3531 45.3271 70.1455 45.4512 69.8393C45.2586 69.9699 45.0767 70.0641 44.9034 70.1241C44.7301 70.184 44.4562 70.214 44.0795 70.214H41.7171C41.5288 70.214 41.4089 70.2225 41.3597 70.2418C41.3105 70.2611 41.2442 70.3125 41.165 70.3917ZM43.3798 67.5441C43.705 67.223 43.9875 66.8847 44.2272 66.5335C44.4668 66.1824 44.6466 65.8291 44.7729 65.4737C44.8991 65.1183 44.9612 64.7758 44.9612 64.446C44.9612 64.0607 44.8841 63.701 44.7322 63.367C44.5803 63.033 44.3684 62.7696 44.0966 62.5769C43.8249 62.3842 43.5167 62.2879 43.1744 62.2879C42.894 62.2879 42.6116 62.365 42.327 62.5191C42.4147 62.4934 42.5345 62.4806 42.6843 62.4806C42.9646 62.4806 43.2214 62.5341 43.4547 62.6433C43.6879 62.7525 43.8848 62.9002 44.0432 63.0886C44.2015 63.277 44.3235 63.4933 44.4069 63.7416C44.4904 63.99 44.5332 64.2426 44.5332 64.506C44.5332 65.0156 44.4348 65.508 44.2379 65.9833C44.041 66.4586 43.7543 66.9789 43.3798 67.5441Z" fill="#FFBE17"/>
<path d="M48.4814 69.5438H50.5379C50.876 69.5438 51.1542 69.5246 51.3724 69.4839C51.5907 69.4432 51.7747 69.3726 51.9309 69.2698C52.0872 69.167 52.2391 69.0171 52.3889 68.8223H52.7719L51.9502 70.8541H47.0605V70.5844C47.587 69.9913 48.077 69.4368 48.5285 68.9229C48.98 68.4091 49.3759 67.9167 49.7204 67.4456C50.065 66.9746 50.341 66.4929 50.555 66.0004C50.769 65.508 50.8738 65.022 50.8738 64.5445C50.8738 64.1891 50.8054 63.8722 50.6663 63.5918C50.5272 63.3113 50.341 63.0929 50.1013 62.9366C49.8617 62.7803 49.5985 62.7011 49.3053 62.7011C48.933 62.7011 48.6034 62.821 48.3145 63.0587C48.0256 63.2963 47.8181 63.6432 47.6875 64.0992H47.3045C47.6897 62.5898 48.5884 61.834 50.0008 61.834C50.4608 61.834 50.8717 61.9282 51.2355 62.1187C51.5993 62.3093 51.8796 62.5641 52.0786 62.8874C52.2776 63.2107 52.376 63.5554 52.376 63.9279C52.376 64.4546 52.2305 64.9834 51.9395 65.5123C51.6485 66.0411 51.2719 66.5678 50.8075 67.0902C50.3431 67.6126 49.5685 68.4326 48.4814 69.5438ZM47.7111 70.3917L47.5099 70.6358H50.5999C51.0429 70.6358 51.3553 70.5801 51.5372 70.4666C51.7191 70.3531 51.8732 70.1455 51.9973 69.8393C51.8047 69.9699 51.6228 70.0641 51.4495 70.1241C51.2761 70.184 51.0022 70.214 50.6256 70.214H48.2632C48.0749 70.214 47.955 70.2225 47.9058 70.2418C47.8566 70.2611 47.7903 70.3125 47.7111 70.3917ZM49.9237 67.5441C50.249 67.223 50.5315 66.8847 50.7711 66.5335C51.0108 66.1824 51.1905 65.8291 51.3168 65.4737C51.4431 65.1183 51.5051 64.7758 51.5051 64.446C51.5051 64.0607 51.4281 63.701 51.2761 63.367C51.1242 63.033 50.9124 62.7696 50.6406 62.5769C50.3688 62.3842 50.0607 62.2879 49.7183 62.2879C49.438 62.2879 49.1555 62.365 48.8709 62.5191C48.9586 62.4934 49.0785 62.4806 49.2283 62.4806C49.5086 62.4806 49.7654 62.5341 49.9986 62.6433C50.2319 62.7525 50.4287 62.9002 50.5871 63.0886C50.7454 63.277 50.8674 63.4933 50.9509 63.7416C51.0343 63.99 51.0771 64.2426 51.0771 64.506C51.0771 65.0156 50.9787 65.508 50.7818 65.9833C50.585 66.4586 50.3003 66.9789 49.9237 67.5441Z" fill="#FFBE17"/>
<path d="M7.90288 56.929C8.09975 57.278 8.19176 57.5777 8.17892 57.8282C8.16608 58.0787 8.04839 58.265 7.82798 58.3913C7.66107 58.4855 7.48774 58.507 7.30799 58.4534C7.13037 58.3999 6.98914 58.2843 6.88857 58.1066C6.77515 57.9053 6.71951 57.7019 6.72379 57.4942C6.72593 57.2866 6.75589 57.0018 6.81153 56.6421C6.86717 56.2824 6.88857 55.9955 6.87359 55.7814C6.74091 55.8606 6.61252 55.9677 6.49055 56.0983C6.36857 56.2289 6.23162 56.3873 6.08183 56.5736C5.93203 56.7599 5.8122 56.899 5.72018 56.9911C5.62817 57.0832 5.51689 57.1667 5.38636 57.2416C5.18949 57.3529 4.9969 57.3851 4.81073 57.3358C4.62242 57.2887 4.48974 57.1945 4.41271 57.0575C4.31427 56.8819 4.28859 56.6978 4.33781 56.5051C4.38703 56.3124 4.5197 56.154 4.73369 56.0319C4.86208 55.9591 4.99048 55.9056 5.12315 55.8671C5.25583 55.8285 5.39706 55.7964 5.55113 55.7686C5.7052 55.7429 5.88495 55.7108 6.09038 55.6722C6.29795 55.6337 6.50766 55.5823 6.72379 55.5117C6.58256 55.3982 6.33433 55.2654 5.97483 55.1134C5.61533 54.9614 5.34142 54.8308 5.15739 54.7216C4.97122 54.6124 4.82143 54.4583 4.70801 54.2592C4.61814 54.0986 4.59674 53.9294 4.64595 53.7539C4.69517 53.5783 4.80003 53.4434 4.96052 53.3535C5.17879 53.2293 5.3992 53.2272 5.62175 53.3471C5.8443 53.467 6.05615 53.7025 6.25516 54.0558C6.35787 54.257 6.46915 54.4647 6.58256 54.6809C6.69812 54.8972 6.82651 55.0856 6.96988 55.244C7.00198 55.0192 7.04264 54.6788 7.09186 54.2249C7.14107 53.7689 7.20099 53.4456 7.26947 53.2529C7.33794 53.0602 7.45992 52.9146 7.63539 52.8161C7.7809 52.7347 7.94353 52.7155 8.12329 52.7626C8.30304 52.8097 8.43785 52.9124 8.52559 53.0687C8.65826 53.3064 8.66896 53.5333 8.55768 53.7496C8.44427 53.968 8.22814 54.2442 7.90716 54.5782C7.58617 54.9143 7.36148 55.1841 7.23309 55.3918C7.40856 55.3875 7.66963 55.3489 8.01415 55.2719C8.35867 55.1948 8.64114 55.1391 8.86155 55.107C9.07982 55.0749 9.28525 55.0792 9.4757 55.1241C9.66615 55.1669 9.81166 55.2783 9.91224 55.4581C10.0021 55.6187 10.0235 55.7921 9.9743 55.9784C9.92508 56.1647 9.82022 56.3038 9.65545 56.3959C9.4543 56.5094 9.24887 56.5393 9.03488 56.488C8.82089 56.4366 8.52773 56.3188 8.15752 56.1326C7.78732 55.9484 7.48132 55.8135 7.24165 55.7279C7.26519 55.82 7.3251 55.9527 7.4214 56.124C7.46206 56.1968 7.54123 56.3252 7.65465 56.5115C7.76378 56.6935 7.84938 56.8348 7.90288 56.929ZM6.82865 55.7043L6.79227 55.638C6.681 55.6722 6.56116 55.7258 6.43063 55.7985C6.31507 55.8649 6.1182 56.0041 5.84002 56.2182C5.56183 56.4323 5.34784 56.5822 5.19377 56.6699C4.95624 56.8027 4.73155 56.8477 4.51756 56.8006L4.58818 56.9269C4.64596 57.0296 4.74225 57.096 4.87706 57.1324C5.01188 57.1688 5.17023 57.1324 5.35212 57.0296C5.46554 56.9654 5.58537 56.8669 5.71376 56.732C5.84216 56.5972 5.95557 56.4751 6.05401 56.3638C6.15244 56.2525 6.26372 56.1411 6.38569 56.0255C6.50766 55.9099 6.64248 55.8114 6.78799 55.73L6.82865 55.7043ZM6.79869 55.3832L6.85219 55.3532C6.74091 55.2141 6.59754 55.077 6.42635 54.9421C6.25516 54.8073 6.07327 54.6745 5.88495 54.546C5.69664 54.4176 5.54043 54.2998 5.41204 54.1928C5.28578 54.0879 5.18521 53.9701 5.11459 53.8417C5.06965 53.7624 5.0397 53.6661 5.02472 53.5548C4.91558 53.6361 4.85353 53.7303 4.83641 53.8374C4.81929 53.9466 4.84283 54.06 4.9113 54.1799C5.01402 54.3619 5.13385 54.4904 5.27294 54.5653C5.41204 54.6403 5.65813 54.7602 6.01121 54.9229C6.36429 55.0877 6.6275 55.2397 6.79869 55.3832ZM7.08758 55.7386L7.03408 55.7686C7.05976 56.0426 7.14107 56.3809 7.28231 56.7813C7.4214 57.1817 7.51342 57.4814 7.55835 57.6784C7.60115 57.8754 7.57761 58.068 7.48346 58.2607C7.57333 58.2672 7.65251 58.2522 7.71671 58.2158C7.86222 58.1344 7.94139 57.9931 7.95637 57.7919C7.97135 57.5927 7.90288 57.3615 7.75522 57.0982C7.70387 57.0061 7.63753 56.9012 7.55835 56.7813C7.47918 56.6614 7.40214 56.5372 7.33152 56.4087C7.27589 56.3103 7.23523 56.2225 7.20955 56.1475C7.18387 56.0705 7.16033 55.9998 7.14107 55.9313C7.11753 55.8628 7.10042 55.7985 7.08758 55.7386ZM7.06404 55.3061L7.12181 55.3318C7.22667 55.1627 7.3251 54.9421 7.41284 54.6745C7.50058 54.4069 7.57547 54.1735 7.63539 53.9787C7.69531 53.7838 7.7702 53.604 7.86008 53.437C7.94995 53.2721 8.06551 53.148 8.21102 53.0645L8.27736 53.0409C8.07835 52.9189 7.89646 52.9017 7.73382 52.9959C7.56905 53.088 7.4642 53.24 7.41712 53.4477C7.37004 53.6575 7.31868 53.9808 7.26305 54.4176C7.20741 54.8565 7.14107 55.152 7.06404 55.3061ZM7.23095 55.5224L7.22239 55.5844C7.41712 55.6465 7.65679 55.6808 7.94353 55.6808C8.23028 55.6829 8.47423 55.6787 8.67752 55.6722C8.88081 55.6658 9.07554 55.6808 9.26171 55.7193C9.45002 55.7579 9.61907 55.8414 9.76887 55.9741C9.80096 55.8178 9.78813 55.6872 9.73035 55.5866C9.61907 55.3896 9.4543 55.2911 9.23603 55.2933C9.01776 55.2933 8.69036 55.3382 8.24954 55.4282C7.80872 55.5181 7.47062 55.5481 7.23095 55.5224Z" fill="#FFBE17"/>
<path d="M6.97606 49.4224L6.86479 49.0242C7.43828 48.626 7.89836 48.2085 8.24502 47.776C8.59168 47.3435 8.81637 46.9131 8.92337 46.4871C9.03036 46.061 9.02822 45.6457 8.91481 45.2431C8.77357 44.74 8.49753 44.3525 8.08453 44.0806C7.67153 43.8087 7.21787 43.7423 6.72783 43.8793C6.26989 44.0078 5.94463 44.2262 5.75632 44.5345C5.56587 44.8428 5.46743 45.1768 5.45673 45.5365C5.44603 45.8962 5.47171 46.3565 5.53377 46.9217C5.59583 47.4869 5.61937 47.8916 5.60653 48.1378C5.58299 48.5211 5.49953 48.8658 5.3583 49.1719C5.21493 49.476 5.01378 49.7329 4.75271 49.9427C4.49164 50.1525 4.19206 50.3045 3.85395 50.3987C3.53297 50.4887 3.20556 50.5186 2.87602 50.4887C2.54648 50.4587 2.23833 50.3731 1.95158 50.2317C1.66484 50.0904 1.41447 49.8892 1.19834 49.6301C0.982212 49.371 0.82386 49.0606 0.723285 48.6988C0.650528 48.4376 0.599171 48.1057 0.567072 47.7032C0.534974 47.3007 0.496456 47.0138 0.447238 46.8404C0.387321 46.622 0.280326 46.4314 0.130534 46.2644L0 45.8062L2.40952 44.8535L2.52722 45.2774C1.89595 45.879 1.44657 46.4507 1.17908 46.9924C0.911596 47.534 0.858098 48.0971 1.02073 48.6795C1.10205 48.9685 1.24328 49.2212 1.44871 49.4331C1.65414 49.6451 1.89595 49.7928 2.17413 49.8785C2.45446 49.9641 2.73693 49.9663 3.02153 49.887C3.42383 49.7757 3.69346 49.553 3.83041 49.219C3.96737 48.885 4.01444 48.4354 3.97379 47.8659C3.93313 47.2964 3.89033 46.7911 3.84967 46.3436C3.80687 45.8983 3.81329 45.5322 3.86251 45.2496C3.96095 44.7272 4.1728 44.284 4.5002 43.92C4.8276 43.556 5.24274 43.3034 5.74776 43.1621C6.23138 43.0272 6.71499 43.0186 7.19861 43.1342C7.68223 43.252 8.10806 43.4854 8.47827 43.8386C8.84847 44.1919 9.10526 44.6287 9.24863 45.1468C9.32995 45.4401 9.3706 45.6692 9.36632 45.8298C9.36204 45.9904 9.34921 46.2708 9.32139 46.6691C9.29357 47.0673 9.30641 47.3628 9.3599 47.5576C9.44978 47.8809 9.64451 48.1014 9.94196 48.2213L10.0383 48.566L6.97606 49.4224ZM1.74401 45.757L0.646249 46.2773C0.727565 46.3972 0.787482 46.5256 0.82386 46.6584C0.864518 46.804 0.885917 46.9667 0.888057 47.1487C0.947974 46.9581 1.02501 46.7847 1.12131 46.6284C1.21546 46.4721 1.33529 46.3008 1.48081 46.1188C1.62418 45.9326 1.71192 45.8127 1.74401 45.757ZM3.06005 50.2981C3.38531 50.281 3.6421 50.2467 3.83041 50.1932C4.0444 50.1333 4.24769 50.0369 4.44242 49.9042C4.63715 49.7714 4.81049 49.6087 4.96242 49.4139C5.11435 49.219 5.22563 49.0178 5.29838 48.8058C5.39254 48.5232 5.4332 48.2299 5.42036 47.9259C5.40752 47.6218 5.369 47.1808 5.30694 46.607C5.24488 46.0332 5.22563 45.6285 5.2513 45.3952C5.28554 44.9691 5.41608 44.6073 5.64504 44.3118C5.87401 44.0163 6.1843 43.8129 6.5759 43.7037C6.86479 43.6224 7.19433 43.6202 7.56239 43.6952C7.12799 43.4597 6.68075 43.4061 6.22282 43.5346C5.74776 43.6673 5.40752 43.8922 5.20423 44.2133C5.00094 44.5323 4.88324 44.892 4.85328 45.2881C4.82333 45.6842 4.84044 46.2109 4.9025 46.866C4.96456 47.5212 4.99666 47.8573 4.9988 47.8745C5.0095 48.4889 4.87254 48.9942 4.58794 49.3925C4.30333 49.7907 3.92243 50.0562 3.44309 50.1911C3.35536 50.2168 3.28046 50.2382 3.22054 50.2574C3.16491 50.2746 3.11141 50.2895 3.06005 50.2981ZM8.04387 48.9086L9.65735 48.459C9.47118 48.384 9.34278 48.3048 9.27217 48.2192C9.19941 48.1335 9.13949 47.9858 9.09028 47.7781C8.97044 47.9558 8.88057 48.0821 8.82279 48.1614C8.76501 48.2406 8.67514 48.3434 8.55102 48.4718C8.42691 48.5981 8.25786 48.7437 8.04387 48.9086Z" fill="#FFBE17"/>
<path d="M6.42807 37.1647L6.60354 36.9014C6.96732 37.0641 7.27118 37.2675 7.51513 37.5094C7.75908 37.7514 7.94525 38.0254 8.07579 38.3273C8.20632 38.6292 8.28336 38.9503 8.30689 39.2886C8.33899 39.7468 8.25982 40.1814 8.06723 40.5925C7.87464 41.0014 7.57719 41.3376 7.17703 41.5966C6.77687 41.8557 6.31251 42.0034 5.78182 42.042C5.36454 42.072 4.96866 42.0291 4.59204 41.9157C4.21541 41.8022 3.87731 41.6309 3.582 41.404C3.28456 41.1749 3.04703 40.903 2.86728 40.5882C2.68753 40.2713 2.58481 39.9288 2.55913 39.5562C2.53346 39.1816 2.58481 38.8176 2.71749 38.4665C2.85016 38.1153 3.04703 37.8306 3.30596 37.61C3.49641 37.4495 3.69328 37.3296 3.89871 37.2504C4.10414 37.1711 4.35451 37.1005 4.64767 37.0427L4.9173 40.8216C5.34956 40.7745 5.7112 40.6739 6.00223 40.5218C6.29325 40.3698 6.52222 40.1814 6.69127 39.9566C6.86032 39.7339 6.97588 39.4984 7.03794 39.2565C7.09999 39.0124 7.12353 38.7833 7.10855 38.5671C7.07003 38.0383 6.84321 37.5715 6.42807 37.1647ZM4.34381 38.4258L4.31171 37.9869C3.84521 38.0318 3.50711 38.1539 3.2974 38.3487C3.08769 38.5435 2.95929 38.854 2.91436 39.2822C3.01707 39.006 3.16045 38.8026 3.34448 38.672C3.53065 38.5414 3.82167 38.4622 4.21755 38.4343L4.34381 38.4258ZM4.515 40.8109L4.35879 38.627L4.15336 38.642C3.91155 38.6592 3.6997 38.7191 3.51567 38.8197C3.33164 38.9204 3.19468 39.051 3.10267 39.2115C3.01065 39.3721 2.97213 39.5498 2.98711 39.7447C3.01065 40.0615 3.169 40.3206 3.46645 40.5218C3.7639 40.721 4.1127 40.8173 4.515 40.8109ZM3.27814 40.843C3.95007 41.5795 4.78677 41.9114 5.78824 41.8407C6.51366 41.7893 7.08929 41.5131 7.51727 41.0164C7.94525 40.5176 8.13784 39.9652 8.0929 39.355C8.06723 38.9996 7.97093 38.6506 7.80188 38.3037C7.63283 37.9569 7.39744 37.6721 7.09571 37.4452C7.27546 37.6871 7.4274 37.9376 7.54937 38.1967C7.67134 38.4536 7.7441 38.7662 7.76978 39.1345C7.81472 39.7554 7.63497 40.2906 7.23053 40.7359C6.82609 41.1813 6.27613 41.4296 5.58067 41.4789C5.13985 41.511 4.73755 41.4703 4.37805 41.3569C4.0164 41.2412 3.65048 41.0721 3.27814 40.843Z" fill="#FFBE17"/>
<path d="M3.28513 34.5934C3.30225 34.5955 3.36431 34.5741 3.47344 34.5292C3.58258 34.4842 3.68315 34.4671 3.77517 34.4756C3.95492 34.4928 4.10685 34.5827 4.23097 34.7433C4.35508 34.9038 4.40858 35.0965 4.38718 35.3171C4.36578 35.529 4.29517 35.6917 4.17319 35.8073C4.05122 35.9208 3.9164 35.9722 3.77089 35.9572C3.55476 35.9358 3.35361 35.8095 3.1653 35.5804C2.97699 35.3492 2.83576 35.0451 2.7416 34.664C2.64745 34.2829 2.61963 33.8697 2.66456 33.4244C2.69666 33.0989 2.78226 32.8035 2.92135 32.5316C3.06045 32.2618 3.25304 32.0541 3.49912 31.9107C3.74521 31.7672 4.02982 31.7094 4.35294 31.7415L7.52213 32.052C7.77678 32.0777 7.90945 32.0156 7.92443 31.87C7.93299 31.7822 7.87521 31.6687 7.74896 31.5317L8.03998 31.3262C8.22401 31.551 8.35883 31.7544 8.44656 31.9364C8.5343 32.1184 8.5664 32.3303 8.54286 32.5658C8.51504 32.8399 8.43372 33.0497 8.29677 33.191C8.15982 33.3323 7.95867 33.4222 7.69332 33.4608C8.132 34.0838 8.32459 34.6747 8.26895 35.2378C8.23043 35.6382 8.09562 35.9444 7.86451 36.1585C7.6334 36.3726 7.35736 36.4646 7.03851 36.4347C6.75177 36.4068 6.51424 36.3105 6.32593 36.1478C6.13762 35.9851 5.97712 35.7774 5.84445 35.5269C5.71178 35.2764 5.547 34.9103 5.35227 34.4307C5.15754 33.9511 4.99063 33.5528 4.84726 33.2403L3.9057 33.1482C3.62324 33.1204 3.40283 33.1653 3.24448 33.2788C3.08612 33.3944 2.99411 33.5807 2.96843 33.8376C2.94703 34.0624 2.97057 34.2423 3.03905 34.3771C3.10752 34.512 3.19098 34.5848 3.28513 34.5934ZM4.0341 34.8632C4.03196 35.0152 3.9913 35.1265 3.91426 35.1972C3.83509 35.2699 3.74949 35.2999 3.6532 35.2914C3.5248 35.2785 3.41139 35.2314 3.31723 35.1522C3.22308 35.0708 3.08826 34.9338 2.91279 34.7411C3.03477 35.0516 3.16102 35.2935 3.29583 35.4648C3.43065 35.6382 3.59114 35.7324 3.77731 35.7517C3.86077 35.7602 3.94208 35.7238 4.0234 35.6468C4.10471 35.5697 4.15179 35.4712 4.16249 35.3556C4.18175 35.1543 4.13895 34.9895 4.0341 34.8632ZM4.33154 32.9812L6.7967 33.221C7.28246 33.2681 7.65052 33.251 7.90089 33.1717C8.15126 33.0904 8.29035 32.8998 8.32031 32.5958C8.33315 32.4588 8.32887 32.3474 8.30319 32.2597C8.24113 32.5059 8.12344 32.6729 7.95225 32.7607C7.77892 32.8484 7.52213 32.8763 7.17546 32.842L4.31228 32.5615C3.88003 32.5187 3.57616 32.5508 3.39855 32.6579C3.22308 32.7649 3.10324 32.9662 3.04119 33.2617C3.13962 33.1075 3.27229 33.0112 3.43493 32.9726C3.59328 32.9362 3.895 32.9384 4.33154 32.9812ZM7.2739 33.4779L5.27096 33.2831C5.51919 33.844 5.75243 34.2423 5.97284 34.4756C6.19325 34.709 6.47358 34.8439 6.81596 34.876C7.04493 34.8974 7.22682 34.8524 7.36378 34.7411C7.50073 34.6276 7.57776 34.4885 7.59274 34.3215C7.62056 34.0603 7.51357 33.7777 7.2739 33.4779ZM8.02928 34.6598C7.99291 35.0387 7.88591 35.3342 7.71044 35.5461C7.53497 35.7581 7.30172 35.8502 7.01069 35.8202C6.79884 35.7988 6.60411 35.7238 6.42436 35.5954C6.24675 35.4669 6.04988 35.2807 5.84017 35.0366C6.0028 35.392 6.17613 35.6746 6.3623 35.878C6.54848 36.0835 6.77958 36.1992 7.05991 36.227C7.31456 36.2527 7.53497 36.1606 7.72542 35.9551C7.91587 35.7495 8.02286 35.514 8.04854 35.2528C8.06994 35.0002 8.06566 34.8011 8.02928 34.6598Z" fill="#FFBE17"/>
<path d="M3.72333 27.5583L4.65847 27.8002C4.3867 27.3977 4.20481 27.0958 4.11279 26.8945C4.02078 26.6933 4.00366 26.4749 4.06572 26.2415C4.11921 26.0403 4.23477 25.8861 4.41452 25.7855C4.59427 25.6827 4.79328 25.6613 5.01155 25.717C5.23838 25.7748 5.41171 25.8882 5.52941 26.0531C5.64924 26.218 5.68348 26.3957 5.63426 26.5862C5.61286 26.6719 5.5722 26.7596 5.51229 26.8539C5.45451 26.9459 5.38817 27.0209 5.3197 27.0765C5.2769 27.1086 5.23196 27.1429 5.18274 27.1771C5.13567 27.2114 5.09715 27.2435 5.06719 27.2735C5.03723 27.3035 5.01797 27.3377 5.00727 27.3784C4.98801 27.4555 4.99657 27.539 5.03509 27.6289C5.07361 27.7188 5.13353 27.8259 5.21484 27.9501L8.1465 28.7123C8.35621 28.7679 8.51456 28.7765 8.61942 28.7401C8.72427 28.7037 8.80345 28.6288 8.85694 28.511C8.91044 28.3933 8.97892 28.1813 9.05809 27.873L9.39192 27.9608L8.54452 31.2216L8.2107 31.1338L8.25349 30.9689C8.37547 30.5 8.25135 30.2153 7.87901 30.1189L5.15492 29.4102C4.69057 29.2903 4.29469 29.4959 3.97156 30.029L3.76613 29.9755L3.64844 27.858L3.72333 27.5583ZM5.20414 29.2068L7.96461 29.9241C8.10156 29.9605 8.19786 30.0097 8.25349 30.0697C8.30913 30.1318 8.36477 30.2153 8.41827 30.3202C8.45892 30.0847 8.43966 29.9027 8.36263 29.7742C8.28559 29.6458 8.12082 29.5494 7.86403 29.483L5.30258 28.8172C4.95377 28.7273 4.68629 28.7208 4.49584 28.8022C4.30753 28.8836 4.17699 29.0548 4.10852 29.3182C4.10424 29.3374 4.09568 29.3846 4.08498 29.4552C4.07428 29.5259 4.06786 29.573 4.06144 29.5987C4.3653 29.2176 4.74406 29.0869 5.20414 29.2068ZM4.76332 27.3955C4.79114 27.2863 4.85748 27.1857 4.95805 27.0958C5.22126 26.8967 5.37533 26.7125 5.42027 26.5413C5.47377 26.3314 5.37961 26.1409 5.13353 25.9739C5.16134 26.1024 5.16776 26.1923 5.15492 26.2458C5.12283 26.3678 5.05221 26.477 4.93879 26.5777C4.77402 26.6997 4.67773 26.811 4.65205 26.9117C4.62209 27.008 4.66061 27.1707 4.76332 27.3955Z" fill="#FFBE17"/>
<path d="M6.76252 21.3984C6.65981 21.3534 6.54853 21.3684 6.43084 21.4455C6.31314 21.5226 6.22113 21.636 6.15479 21.7902C6.02854 22.0771 5.99858 22.3747 6.06278 22.6809C6.12697 22.987 6.28747 23.2761 6.54211 23.5437C6.79676 23.8135 7.12203 24.034 7.51577 24.2053C7.87955 24.3637 8.24333 24.4322 8.60925 24.4065C8.97303 24.3808 9.29616 24.2738 9.57435 24.0832C9.85253 23.8927 10.0601 23.6422 10.1971 23.3317C10.3083 23.0748 10.3682 22.7793 10.3747 22.4475C10.3811 22.1156 10.3297 21.8244 10.2185 21.5739L10.5758 21.4904C10.8797 21.985 11.0573 22.4946 11.1044 23.0191C11.1536 23.5458 11.083 24.0254 10.8904 24.4622C10.7128 24.869 10.4324 25.2073 10.0494 25.4813C9.66636 25.7532 9.23624 25.9181 8.75905 25.9716C8.28185 26.0251 7.81749 25.9524 7.36597 25.7554C6.99791 25.5948 6.67693 25.3743 6.40302 25.0938C6.12911 24.8133 5.91512 24.4922 5.76105 24.1261C5.60912 23.7599 5.53208 23.3724 5.53422 22.9613C5.53636 22.5503 5.62838 22.137 5.81027 21.7195C5.95792 21.3834 6.14195 21.0986 6.3645 20.8674C6.58705 20.6362 6.82244 20.4799 7.07067 20.4007C7.32104 20.3214 7.55214 20.3279 7.76613 20.4199C7.95444 20.5013 8.07856 20.6383 8.14062 20.831C8.20267 21.0216 8.19411 21.2121 8.11066 21.4005C8.03576 21.5739 7.91165 21.6896 7.7426 21.7495C7.57354 21.8095 7.41947 21.8095 7.28038 21.7495C7.2547 21.7388 7.17338 21.6831 7.04071 21.5825C6.90804 21.4819 6.81602 21.4219 6.76252 21.3984ZM5.76533 22.7836C5.74179 23.2118 5.79529 23.6058 5.92582 23.9655C6.05636 24.3252 6.25109 24.642 6.51216 24.9161C6.77322 25.1901 7.06853 25.4 7.39807 25.5434C7.84531 25.7404 8.29469 25.8089 8.74407 25.749C9.19344 25.689 9.5936 25.5284 9.94455 25.2651C10.2955 25.0017 10.548 24.6891 10.7063 24.3273C10.9353 23.8028 10.9803 23.2332 10.8369 22.6188C10.7834 23.1926 10.6871 23.6336 10.5544 23.9398C10.3832 24.3316 10.1393 24.6506 9.82043 24.899C9.50159 25.1473 9.14423 25.2993 8.74621 25.3529C8.34819 25.4064 7.95658 25.3507 7.56926 25.1816C7.12203 24.9846 6.74112 24.6827 6.43084 24.2695C6.12269 23.8584 5.90015 23.3638 5.76533 22.7836ZM7.36169 21.559C7.48367 21.6125 7.59708 21.6061 7.6998 21.5397C7.80251 21.4733 7.87741 21.3834 7.92663 21.2721C7.94161 21.2378 7.96728 21.1372 8.00366 20.9702C7.84959 21.1864 7.67626 21.2506 7.47939 21.165C7.46441 21.1586 7.42375 21.1308 7.35955 21.0815C7.29536 21.0323 7.23758 20.998 7.18622 20.9745C6.97651 20.8824 6.74968 20.9616 6.50788 21.2121C6.66409 21.18 6.79034 21.1843 6.89092 21.2292C6.95511 21.2571 7.03643 21.3127 7.13273 21.3962C7.22902 21.4797 7.30392 21.5333 7.36169 21.559Z" fill="#FFBE17"/>
<path d="M15.397 16.0589L15.6794 16.2559L13.929 18.7802L13.6465 18.5832C13.7321 18.444 13.7942 18.3348 13.8306 18.2577C13.8669 18.1785 13.8862 18.0993 13.8862 18.0179C13.8862 17.9366 13.8562 17.8574 13.7985 17.776C13.7386 17.6968 13.6487 17.6154 13.5288 17.5319L11.1129 15.8555C10.7941 15.6328 10.5094 15.5429 10.2591 15.5836C10.0087 15.6243 9.81398 15.7463 9.67489 15.9476C9.4395 16.288 9.37102 16.8382 9.46946 17.5983L12.2299 19.5145C12.4289 19.6537 12.5958 19.6987 12.7307 19.6516C12.8655 19.6045 13.0324 19.4482 13.2335 19.1805L13.516 19.3775L11.7506 21.9232L11.4681 21.7262C11.6201 21.4907 11.7078 21.3044 11.7292 21.1674C11.7506 21.0304 11.6671 20.8955 11.4788 20.7649L6.45434 17.2793C5.98357 16.9517 5.52135 16.9903 5.06341 17.3906L4.85156 17.245L5.49781 15.1575L5.64546 14.9456L9.11637 17.3564C9.07144 16.9581 9.0907 16.5749 9.17415 16.2045C9.25761 15.8341 9.40098 15.5044 9.60213 15.2111C9.81184 14.9092 10.0451 14.6865 10.304 14.5409C10.5608 14.3975 10.8369 14.3375 11.1322 14.3632C11.4275 14.3889 11.7292 14.5109 12.0373 14.725L14.1751 16.2088C14.3805 16.3522 14.5303 16.4464 14.6245 16.4957C14.7186 16.5449 14.8256 16.5471 14.9433 16.5107C15.061 16.4721 15.1851 16.3608 15.3135 16.1767L15.397 16.0589ZM6.57204 17.1102L11.4553 20.4994C11.6072 20.6043 11.7121 20.6921 11.772 20.7627C11.8319 20.8334 11.8768 20.9233 11.9025 21.0325L11.9988 20.8934C12.0545 20.8141 12.0652 20.7049 12.0309 20.5658C11.9988 20.4266 11.9004 20.2981 11.7356 20.1847L6.76891 16.7376C6.52924 16.5706 6.32381 16.4743 6.15262 16.4486C6.00497 16.4272 5.85731 16.4486 5.7118 16.5128C5.56629 16.577 5.45073 16.6712 5.363 16.7933C5.32448 16.8489 5.27098 16.9517 5.20251 17.1016C5.46999 16.9153 5.70538 16.8297 5.91081 16.8447C6.11838 16.8597 6.33879 16.9474 6.57204 17.1102ZM11.0294 15.5451L13.7086 17.4035C13.8391 17.4934 13.9269 17.5769 13.9697 17.654C14.0125 17.731 14.0467 17.8295 14.0681 17.9516C14.2179 17.7289 14.265 17.5448 14.2136 17.3992C14.1622 17.2536 14.0232 17.1016 13.7963 16.9453L11.6029 15.423C11.3354 15.2367 11.1129 15.1104 10.9374 15.0462C10.762 14.9798 10.5822 14.9798 10.396 15.0441C10.212 15.1083 10.0173 15.2753 9.81184 15.5386C10.2141 15.2603 10.6207 15.2624 11.0294 15.5451Z" fill="#FFBE17"/>
<path d="M21.9664 10.9458L17.8621 13.7506L17.6674 13.4658C17.9499 13.2581 18.1489 13.0826 18.2644 12.9391C18.38 12.7978 18.4271 12.6458 18.4078 12.4873C18.3885 12.3289 18.3008 12.1362 18.1446 11.9071L14.5881 6.698C14.4126 6.44322 14.2136 6.32546 13.9868 6.34901C13.7599 6.37256 13.4539 6.49889 13.0688 6.72583L12.874 6.44108L17.1495 3.51857C17.7059 3.13961 18.2794 2.88055 18.8722 2.74352C19.4649 2.60649 20.0427 2.58936 20.6076 2.69428C21.1725 2.79919 21.7011 3.01543 22.1954 3.34515C22.6897 3.67701 23.1156 4.10307 23.4751 4.62977C23.826 5.14361 24.0571 5.68529 24.1705 6.25481C24.2839 6.82432 24.2732 7.3917 24.1427 7.95479C24.0122 8.52002 23.7618 9.05956 23.3937 9.57555C23.0214 10.0937 22.5464 10.5497 21.9664 10.9458ZM18.6796 11.5881L15.4119 6.80291C15.1316 6.39183 14.8962 6.12849 14.7058 6.01287C14.5153 5.89726 14.2607 5.9465 13.9397 6.1606C14.1408 6.13491 14.3013 6.16274 14.4254 6.2441C14.5496 6.32546 14.6887 6.47962 14.847 6.71085L18.2494 11.693C18.395 11.9071 18.4977 12.0827 18.5554 12.2197C18.6132 12.3567 18.6389 12.4745 18.6346 12.5687C18.6282 12.6629 18.5918 12.7678 18.5276 12.877C18.7908 12.6972 18.9299 12.5109 18.947 12.3139C18.9642 12.1169 18.8743 11.875 18.6796 11.5881ZM16.4434 6.6145L19.2958 10.7938C19.5013 11.0935 19.6703 11.2991 19.8051 11.4061C19.94 11.5132 20.1069 11.5496 20.308 11.511C20.5092 11.4725 20.7852 11.3333 21.1319 11.0957C21.5085 10.8388 21.8188 10.569 22.0627 10.2885C22.3067 10.008 22.4971 9.67831 22.6341 9.30149C22.7967 8.85616 22.8759 8.4408 22.8759 8.05327C22.8759 7.66575 22.801 7.27608 22.6512 6.88427C22.5014 6.49246 22.2874 6.08995 22.0028 5.67459C21.1618 4.44136 20.1711 3.76479 19.0284 3.64275C18.5747 3.59351 18.1382 3.63633 17.7187 3.77121C17.2993 3.9061 16.8542 4.13519 16.3813 4.45848C16.056 4.68115 15.8613 4.88455 15.7928 5.06868C15.7244 5.25495 15.7393 5.4455 15.8335 5.64033C15.9341 5.83731 16.1352 6.1606 16.4434 6.6145ZM22.4394 10.2029C22.8502 9.85602 23.1434 9.4321 23.3189 8.93324C23.4943 8.43438 23.5221 7.87557 23.4023 7.25895C23.2825 6.64233 22.9957 6.00217 22.5442 5.33845C22.2189 4.861 21.8723 4.46063 21.5064 4.13305C21.1383 3.80761 20.7595 3.56139 20.3679 3.39439C19.9763 3.22953 19.5847 3.15031 19.191 3.16102C18.9599 3.16316 18.7373 3.19528 18.5276 3.25737C18.3179 3.31946 18.0975 3.40296 17.8685 3.50358C19.5462 3.12248 20.9949 3.8226 22.2125 5.60822C22.5785 6.14347 22.8331 6.66589 22.9743 7.17545C23.1177 7.68502 23.1434 8.19244 23.0535 8.69772C22.9636 9.20729 22.7582 9.70829 22.4394 10.2029Z" fill="#FFBE17"/>
<path d="M30.4575 5.18649L30.7592 5.28283C30.7036 5.67678 30.5923 6.02577 30.4276 6.32552C30.2628 6.6274 30.0509 6.88218 29.7963 7.092C29.5416 7.30183 29.2549 7.46454 28.936 7.58016C28.5038 7.7386 28.0651 7.78142 27.6179 7.70862C27.1706 7.63583 26.7683 7.44313 26.4088 7.13054C26.0493 6.81795 25.7776 6.41116 25.5957 5.9123C25.4523 5.52049 25.3817 5.12654 25.3881 4.73259C25.3924 4.33864 25.4651 3.96824 25.6021 3.61925C25.739 3.27027 25.9359 2.96624 26.1884 2.70718C26.4431 2.44811 26.7448 2.25328 27.0936 2.12481C27.4467 1.99635 27.8105 1.94497 28.1849 1.97708C28.5594 2.00706 28.8868 2.11839 29.1693 2.3068C29.3747 2.44597 29.5459 2.60226 29.6786 2.77783C29.8113 2.95339 29.9461 3.17392 30.0852 3.44155L26.5287 4.74329C26.6934 5.14581 26.8903 5.46696 27.1171 5.70248C27.344 5.94013 27.5879 6.10927 27.849 6.2099C28.11 6.31053 28.3668 6.35763 28.6172 6.34907C28.8676 6.34264 29.0965 6.29982 29.2998 6.22703C29.7963 6.0429 30.1815 5.69605 30.4575 5.18649ZM26.0557 3.17178C25.5336 4.02177 25.4459 4.91886 25.7904 5.86091C26.0408 6.5439 26.4645 7.02349 27.0594 7.2954C27.6564 7.56945 28.2406 7.60157 28.8141 7.39175C29.1479 7.26971 29.4582 7.07916 29.7428 6.82009C30.0274 6.56103 30.2392 6.257 30.3719 5.90587C30.1879 6.14567 29.9889 6.35977 29.7749 6.54818C29.5609 6.73659 29.2806 6.89289 28.936 7.01921C28.3519 7.23331 27.7891 7.20762 27.2498 6.94213C26.7106 6.67664 26.3211 6.21632 26.0793 5.56117C25.9274 5.14581 25.8546 4.74758 25.8653 4.37075C25.8739 3.99179 25.9381 3.59142 26.0557 3.17178ZM26.4259 4.35149L28.4802 3.59998L28.4096 3.40515C28.3262 3.1782 28.2106 2.98979 28.063 2.83992C27.9153 2.69005 27.7527 2.59584 27.5729 2.55088C27.3953 2.50806 27.2134 2.51876 27.0294 2.58728C26.732 2.69647 26.5265 2.92128 26.4152 3.26384C26.304 3.60427 26.3083 3.9661 26.4259 4.35149ZM28.6686 3.52933L29.0816 3.37946C28.9082 2.94483 28.7007 2.65151 28.4546 2.50378C28.2085 2.35605 27.8747 2.31751 27.4531 2.39244C27.7463 2.41385 27.9817 2.49735 28.1571 2.63866C28.3326 2.77997 28.4909 3.03903 28.6279 3.41157L28.6686 3.52933Z" fill="#FFBE17"/>
<path d="M31.4997 6.21405L31.1851 4.60185L31.5168 4.53762C31.9362 5.03006 32.345 5.38547 32.7408 5.59957C33.1367 5.81368 33.4962 5.88861 33.8193 5.82652C34.0291 5.78584 34.2024 5.68093 34.3393 5.51393C34.4763 5.34693 34.5298 5.17565 34.4956 5.00437C34.4506 4.77956 34.3586 4.63397 34.2195 4.57188C33.6952 4.35563 33.2052 4.20576 32.7451 4.1244C31.5361 3.92743 30.8556 3.43927 30.7037 2.66422C30.6138 2.2039 30.7144 1.7864 31.0075 1.40958C31.3007 1.03276 31.7458 0.786538 32.345 0.668781C32.6488 0.608832 32.9377 0.585281 33.2138 0.598127C33.4877 0.610973 33.7979 0.64523 34.1403 0.700896L34.487 2.14823L34.1853 2.20818C33.7573 1.77998 33.355 1.47381 32.9805 1.28754C32.606 1.10127 32.2594 1.03918 31.9448 1.10127C31.7479 1.13981 31.5981 1.23615 31.4933 1.39031C31.3884 1.54446 31.352 1.70076 31.3841 1.85705C31.4227 2.05831 31.5339 2.20176 31.718 2.2874C31.902 2.37304 32.2701 2.48009 32.8286 2.6107C33.3871 2.73916 33.8793 2.87404 34.3051 3.01107C34.5726 3.09029 34.7994 3.23159 34.9877 3.43285C35.176 3.63411 35.298 3.87176 35.3494 4.14153C35.4114 4.4584 35.3772 4.76671 35.2467 5.0686C35.1161 5.37048 34.9064 5.63169 34.6132 5.85007C34.3201 6.06846 33.9756 6.21833 33.5733 6.29755C33.004 6.40674 32.3129 6.37891 31.4997 6.21405ZM34.686 5.28912C34.7759 5.16494 34.8401 5.05575 34.8765 4.96155C34.9128 4.86734 34.9171 4.74744 34.8893 4.60399C34.8037 4.16508 34.4164 3.87818 33.7252 3.74544C33.1046 3.61912 32.6103 3.49922 32.2422 3.38147C31.8742 3.26371 31.5981 3.1224 31.412 2.9554C31.2258 2.79054 31.1038 2.56145 31.0482 2.27027C31.0139 2.09471 31.0246 1.88703 31.0803 1.64937C30.999 1.80139 30.939 1.94912 30.9005 2.09042C30.862 2.23173 30.862 2.39659 30.8984 2.58714C30.9754 2.97681 31.1766 3.26585 31.5018 3.45426C31.8292 3.64267 32.2893 3.80539 32.8885 3.9467C33.4855 4.08801 33.9221 4.21219 34.196 4.32352C34.4677 4.43485 34.6325 4.62969 34.686 4.90802C34.7074 5.00865 34.7074 5.13711 34.686 5.28912ZM31.519 5.09857L31.6688 5.8672C31.8913 5.91644 32.2529 5.95927 32.7537 5.99352C32.4648 5.8672 32.2444 5.74516 32.0946 5.62955C31.9448 5.51607 31.7522 5.33837 31.519 5.09857ZM33.9306 1.69219L33.7359 0.994218C33.4427 0.93641 33.218 0.902153 33.0575 0.891448C32.897 0.880743 32.6724 0.902153 32.3813 0.959961C32.7109 1.00706 32.9784 1.082 33.1902 1.18905C33.4021 1.29396 33.6482 1.4631 33.9306 1.69219Z" fill="#FFBE17"/>
<path d="M35.9804 5.37706L35.897 3.73489L36.2351 3.71776C36.5817 4.26587 36.9348 4.67266 37.2943 4.94243C37.656 5.21006 38.0005 5.33638 38.33 5.31926C38.544 5.30855 38.7302 5.22933 38.8886 5.08374C39.049 4.93815 39.1239 4.77757 39.1154 4.60201C39.1047 4.37292 39.0341 4.21662 38.9035 4.13527C38.4156 3.84623 37.9513 3.62784 37.5083 3.48439C36.3399 3.11614 35.7343 2.53806 35.6937 1.74802C35.6702 1.28127 35.8285 0.8809 36.173 0.54904C36.5154 0.217181 36.9926 0.0373341 37.6025 0.00521864C37.9106 -0.00976857 38.2016 0.00735967 38.4713 0.0587444C38.7409 0.110129 39.0426 0.187206 39.3743 0.292117L39.5113 1.77371L39.2053 1.7887C38.8415 1.30482 38.4884 0.94299 38.1439 0.705335C37.7993 0.467681 37.4655 0.356348 37.1445 0.373476C36.9434 0.384181 36.7808 0.456976 36.6566 0.596143C36.5325 0.73531 36.4726 0.883041 36.4812 1.04148C36.4919 1.24702 36.5817 1.40331 36.7508 1.51464C36.9199 1.62598 37.2708 1.78441 37.8036 1.99209C38.3365 2.19977 38.8051 2.40103 39.2095 2.59801C39.462 2.71576 39.6675 2.88705 39.8258 3.11399C39.9842 3.34094 40.0698 3.59144 40.0848 3.86764C40.1019 4.18879 40.0227 4.49068 39.8515 4.77115C39.6803 5.05163 39.4342 5.28072 39.1132 5.45628C38.7944 5.63185 38.4285 5.73033 38.0198 5.7496C37.4398 5.77958 36.7594 5.6554 35.9804 5.37706ZM39.2652 4.9146C39.3722 4.80541 39.4513 4.70478 39.5006 4.617C39.5498 4.52921 39.5712 4.41146 39.5648 4.26587C39.5412 3.81839 39.1988 3.48011 38.5333 3.25102C37.9363 3.03906 37.4655 2.84851 37.1167 2.67937C36.7701 2.51022 36.5154 2.33038 36.3549 2.13983C36.1944 1.94927 36.1067 1.7052 36.0917 1.40973C36.0832 1.22989 36.1217 1.02649 36.2115 0.801682C36.1088 0.940849 36.0297 1.07787 35.9719 1.21276C35.9141 1.34764 35.8906 1.51036 35.8991 1.70306C35.9184 2.09915 36.0767 2.41388 36.3742 2.64511C36.6695 2.87634 37.1039 3.10543 37.6774 3.33024C38.2487 3.55505 38.6617 3.74132 38.9164 3.88905C39.171 4.03678 39.3058 4.25302 39.3187 4.53778C39.3272 4.64055 39.308 4.76687 39.2652 4.9146ZM36.1559 4.27443L36.1966 5.05805C36.4106 5.13941 36.7615 5.23147 37.2537 5.33638C36.9862 5.16938 36.785 5.01951 36.6524 4.88248C36.5197 4.74974 36.3549 4.54634 36.1559 4.27443ZM39.0298 1.24702L38.9378 0.529771C38.6574 0.431284 38.437 0.364912 38.2808 0.330655C38.1246 0.296399 37.8978 0.287835 37.6025 0.302822C37.9213 0.394886 38.176 0.508361 38.3707 0.643246C38.5611 0.778131 38.7816 0.979387 39.0298 1.24702Z" fill="#FFBE17"/>
<path d="M45.443 4.40926L45.672 4.62764C45.4494 4.95736 45.1969 5.22071 44.9145 5.41982C44.6341 5.6168 44.3324 5.75382 44.0114 5.8309C43.6904 5.90584 43.3609 5.92725 43.0249 5.89085C42.567 5.84375 42.154 5.68745 41.7838 5.42625C41.4136 5.16504 41.1354 4.81391 40.9514 4.375C40.7652 3.93609 40.701 3.45222 40.7567 2.92338C40.7994 2.50802 40.9107 2.12478 41.0883 1.77151C41.2659 1.42038 41.4928 1.11849 41.7688 0.865852C42.0449 0.613211 42.3552 0.4248 42.6975 0.302761C43.0399 0.180723 43.3973 0.140043 43.7653 0.178581C44.1398 0.21712 44.4886 0.332736 44.8096 0.523287C45.1327 0.713839 45.3788 0.957916 45.55 1.25338C45.6741 1.46748 45.7576 1.68373 45.8004 1.89997C45.8432 2.11621 45.8667 2.37528 45.8731 2.67288L42.1069 2.27893C42.0791 2.71356 42.1133 3.0861 42.2139 3.40083C42.3145 3.71342 42.4579 3.97249 42.6505 4.17803C42.8409 4.38356 43.0506 4.53772 43.2796 4.64049C43.5086 4.74326 43.7311 4.80749 43.9472 4.8289C44.4736 4.88885 44.9722 4.74754 45.443 4.40926ZM42.3744 0.664595C41.5334 1.19985 41.0605 1.96634 40.9557 2.96406C40.8808 3.68773 41.0498 4.30435 41.465 4.81177C41.8801 5.31919 42.3915 5.60609 42.9993 5.66818C43.3523 5.70458 43.714 5.67032 44.0842 5.56327C44.4544 5.45622 44.7775 5.27423 45.0514 5.01731C44.7818 5.15219 44.5079 5.2571 44.234 5.33204C43.9601 5.40698 43.6391 5.4241 43.2732 5.38557C42.6547 5.32134 42.1604 5.05157 41.7924 4.57412C41.4243 4.09881 41.2766 3.51217 41.3473 2.81847C41.3922 2.37742 41.5035 1.98989 41.6768 1.65375C41.8523 1.32403 42.0834 0.992173 42.3744 0.664595ZM42.1904 1.88712L44.3667 2.11407L44.3881 1.90853C44.4137 1.6666 44.3923 1.44821 44.3239 1.2491C44.2554 1.04998 44.1527 0.893685 44.0114 0.775929C43.8702 0.658172 43.7011 0.589659 43.5064 0.568249C43.1897 0.536133 42.9072 0.647467 42.659 0.904391C42.4108 1.16131 42.2524 1.49103 42.1904 1.88712ZM44.5657 2.13548L45.0022 2.18044C45.0386 1.7137 44.9787 1.35829 44.8225 1.11849C44.6662 0.876557 44.3838 0.696711 43.9708 0.578954C44.2233 0.726685 44.3988 0.904391 44.495 1.10993C44.5913 1.31547 44.6192 1.61521 44.5785 2.0113L44.5657 2.13548Z" fill="#FFBE17"/>
<path d="M49.4294 1.25988L49.1812 2.19337C49.5856 1.92574 49.8895 1.7459 50.0906 1.65383C50.2918 1.56177 50.5101 1.54892 50.7455 1.61101C50.9466 1.66454 51.0985 1.78229 51.1991 1.96214C51.2997 2.14199 51.3211 2.3411 51.2633 2.55949C51.2034 2.78644 51.09 2.95772 50.9252 3.07548C50.7604 3.19323 50.5828 3.22749 50.3924 3.1761C50.3068 3.15255 50.219 3.11187 50.127 3.05407C50.035 2.99412 49.9601 2.92989 49.9066 2.85923C49.8745 2.81641 49.8424 2.77145 49.806 2.72221C49.7718 2.67296 49.7397 2.63442 49.7097 2.60659C49.6798 2.57662 49.6455 2.55735 49.6049 2.54664C49.5278 2.52523 49.4444 2.53594 49.3545 2.57447C49.2646 2.61301 49.1576 2.67296 49.0314 2.75218L48.2503 5.67897C48.1947 5.88879 48.184 6.04723 48.2182 6.14999C48.2525 6.25491 48.3295 6.33412 48.4472 6.38979C48.5649 6.44546 48.7767 6.51397 49.0828 6.59533L48.9929 6.92933L45.7402 6.06007L45.8301 5.72607L45.9927 5.76889C46.4614 5.89307 46.7438 5.77103 46.8444 5.39849L47.5698 2.67724C47.694 2.21264 47.4907 1.81655 46.96 1.48897L47.0156 1.28343L49.132 1.18066L49.4294 1.25988ZM47.771 2.73291L47.0349 5.49056C46.9985 5.62758 46.9493 5.72393 46.8872 5.7796C46.8252 5.83526 46.7417 5.88879 46.6369 5.94232C46.8722 5.98299 47.0541 5.96587 47.1825 5.89093C47.3109 5.81385 47.4094 5.64899 47.4778 5.39421L48.1605 2.83782C48.2525 2.49097 48.2589 2.2212 48.1819 2.03065C48.1027 1.8401 47.9315 1.71164 47.6704 1.64099C47.6512 1.63456 47.6041 1.62814 47.5335 1.61743C47.4629 1.60673 47.4158 1.59816 47.3901 1.59174C47.7667 1.89149 47.8951 2.27259 47.771 2.73291ZM49.5878 2.30256C49.6969 2.33254 49.7953 2.39677 49.8852 2.49954C50.0821 2.76503 50.2661 2.91918 50.4352 2.96414C50.6449 3.01981 50.8353 2.9256 51.0044 2.68153C50.876 2.70722 50.7861 2.71364 50.7326 2.7008C50.6106 2.66868 50.5015 2.59588 50.4009 2.48241C50.2811 2.31541 50.1698 2.21906 50.0692 2.19337C49.9729 2.16554 49.8125 2.20194 49.5878 2.30256Z" fill="#FFBE17"/>
<path d="M51.3423 6.13943L52.714 2.84438L52.0955 2.58532L52.2175 2.28986C52.6626 2.17638 52.9986 2.08646 53.2254 2.02009C53.4522 1.95372 53.6769 1.86807 53.8995 1.76102C54.122 1.65397 54.3275 1.53193 54.5115 1.39062L54.8175 1.51909L54.1884 3.03065L55.6242 3.628L55.4723 3.99198L54.0364 3.39463L52.5941 6.85668C52.4871 7.11146 52.4401 7.31486 52.4486 7.46473C52.4572 7.61674 52.5364 7.72165 52.6819 7.78374C52.821 7.84155 52.9643 7.85654 53.1141 7.8287C53.2639 7.80087 53.4565 7.74092 53.694 7.64886L53.8139 7.96359C53.4009 8.14129 53.0435 8.25049 52.7418 8.29545C52.4401 8.34041 52.1341 8.29759 51.8216 8.16699C51.5242 8.04281 51.3209 7.88009 51.2096 7.68097C51.0984 7.47971 51.0577 7.25491 51.0877 7.00227C51.1262 6.75177 51.2075 6.46273 51.3423 6.13943ZM53.6919 2.09717L53.1783 2.2556L51.5777 6.10089C51.3637 6.61474 51.2738 7.01511 51.3102 7.30415C51.3466 7.59319 51.5349 7.80943 51.8794 7.95288C52.0613 8.02782 52.2539 8.07492 52.4593 8.09205C52.1041 7.95717 51.8709 7.76447 51.7596 7.51183C51.6483 7.25919 51.6804 6.92947 51.8495 6.52053L53.6919 2.09717Z" fill="#FFBE17"/>
<path d="M68.1686 8.10911L68.5645 8.43669L66.7969 10.5799L66.4973 10.3315C66.6065 9.89045 66.6728 9.47723 66.6942 9.09185C66.7156 8.70646 66.6964 8.35319 66.63 8.02989C66.5658 7.70874 66.4567 7.41756 66.3069 7.16064C66.155 6.90371 65.9559 6.67248 65.7077 6.46694C65.3718 6.19075 65.0058 6.01304 64.6078 5.93811C64.2098 5.86317 63.7989 5.88244 63.3752 6.00234C62.9515 6.12224 62.5214 6.33634 62.0827 6.64679C61.6441 6.95724 61.2375 7.34048 60.863 7.79438C60.3387 8.43027 59.9792 9.08114 59.7845 9.75128C59.5898 10.4214 59.5705 11.0509 59.7246 11.6418C59.8786 12.2327 60.1996 12.7295 60.6854 13.132C60.985 13.3803 61.3145 13.5687 61.674 13.7015C62.0335 13.8342 62.4251 13.9027 62.8445 13.9134C63.264 13.9242 63.7091 13.8663 64.1756 13.7486L64.3296 14.1447C63.5314 14.3695 62.7675 14.4037 62.0399 14.2496C61.3102 14.0954 60.6148 13.7443 59.9514 13.1941C59.4357 12.768 59.0355 12.2841 58.7488 11.7446C58.462 11.205 58.2951 10.642 58.2459 10.0575C58.1967 9.47295 58.2652 8.89487 58.4513 8.3275C58.6354 7.75798 58.9242 7.23557 59.3201 6.75812C59.746 6.24213 60.2339 5.83748 60.7838 5.5463C61.3338 5.25512 61.9008 5.08384 62.4893 5.03031C63.0778 4.97893 63.6556 5.04316 64.2248 5.223C64.794 5.40285 65.3183 5.69189 65.7997 6.08798C65.9795 6.23785 66.1378 6.38987 66.2705 6.54616C66.4032 6.70246 66.5551 6.89943 66.7242 7.13494C66.8932 7.37046 67.0066 7.52889 67.0687 7.61025C67.1308 7.69161 67.2099 7.77297 67.3105 7.85433C67.5651 8.06843 67.8519 8.15193 68.1686 8.10911ZM64.6121 5.53131C63.9551 5.30865 63.3581 5.19731 62.821 5.19945C62.5086 5.20159 62.2026 5.24227 61.9008 5.31935C61.5991 5.39643 61.3081 5.50348 61.0299 5.64051C60.7496 5.77967 60.48 5.9531 60.2189 6.16078C59.9557 6.3706 59.7267 6.5954 59.5256 6.83734C59.0462 7.41756 58.7231 8.05131 58.5562 8.74072C58.3893 9.43013 58.4085 10.1324 58.614 10.8475C58.8194 11.5626 59.2196 12.2285 59.8123 12.8429C59.4763 12.3762 59.2238 11.888 59.0505 11.3763C58.8772 10.8646 58.7959 10.3551 58.8023 9.84549C58.8087 9.33592 58.8986 8.84991 59.0698 8.38745C59.2431 7.92498 59.4892 7.49892 59.8123 7.10925C60.0777 6.78596 60.4115 6.49264 60.8095 6.22501C61.2097 5.95738 61.6162 5.76683 62.0335 5.64907C62.5107 5.51633 62.9408 5.44995 63.326 5.44781C63.7133 5.44353 64.1413 5.47136 64.6121 5.53131ZM66.9724 9.1732L67.6229 8.3275C67.4154 8.26969 67.227 8.1712 67.0601 8.03418C66.9788 7.96781 66.9082 7.89929 66.8483 7.8265C66.9082 8.0877 66.9446 8.32322 66.9574 8.5309C66.9703 8.73858 66.9767 8.95268 66.9724 9.1732Z" fill="#FFBE17"/>
<path d="M67.818 14.0268C67.8052 14.0375 67.7731 14.0953 67.7238 14.2024C67.6746 14.3094 67.6126 14.3908 67.5398 14.4465C67.3964 14.5557 67.2252 14.5963 67.0241 14.5642C66.8229 14.5321 66.6539 14.4293 66.5191 14.2538C66.3885 14.0846 66.3286 13.9176 66.3393 13.7506C66.35 13.5836 66.4142 13.4552 66.5298 13.3653C66.701 13.2325 66.9342 13.1854 67.2295 13.2239C67.5248 13.2625 67.8351 13.3888 68.1668 13.6008C68.4963 13.8127 68.7981 14.0953 69.072 14.4508C69.271 14.7098 69.4122 14.9839 69.4957 15.2772C69.5791 15.5705 69.5813 15.8531 69.5 16.125C69.4208 16.397 69.2517 16.6346 68.9928 16.8337L66.472 18.7821C66.2709 18.9384 66.2131 19.0732 66.303 19.1889C66.3564 19.2574 66.4763 19.3002 66.6625 19.3152L66.5918 19.6642C66.3051 19.6278 66.0654 19.5721 65.8771 19.4993C65.6888 19.4265 65.5219 19.2959 65.3764 19.1054C65.2073 18.887 65.126 18.6793 65.1281 18.4802C65.1303 18.2832 65.2159 18.0798 65.3828 17.8721C64.636 17.7201 64.0903 17.4204 63.7458 16.9729C63.4997 16.656 63.3884 16.3391 63.4098 16.0244C63.4312 15.7097 63.5682 15.4528 63.8228 15.2579C64.0518 15.0824 64.2893 14.9882 64.5375 14.9774C64.7858 14.9667 65.0447 15.0074 65.3122 15.0995C65.5797 15.1916 65.9499 15.3457 66.4228 15.5619C66.8936 15.7782 67.2873 15.9516 67.6061 16.0822L68.3551 15.502C68.5798 15.3286 68.7103 15.1444 68.7467 14.9539C68.7831 14.7633 68.7232 14.5642 68.5648 14.3587C68.4279 14.181 68.2866 14.0654 68.1433 14.014C68.002 13.9647 67.8929 13.969 67.818 14.0268ZM64.3193 17.232C64.086 16.9301 63.9619 16.6432 63.9448 16.367C63.9277 16.0908 64.0347 15.866 64.2658 15.6861C64.4348 15.5555 64.6274 15.4763 64.8457 15.4485C65.064 15.4206 65.3336 15.4206 65.6546 15.4528C65.2929 15.305 64.9719 15.2194 64.698 15.198C64.422 15.1766 64.1738 15.2515 63.9512 15.4228C63.7501 15.5791 63.6495 15.7975 63.6516 16.0779C63.6538 16.3584 63.7372 16.6025 63.8977 16.8123C64.0539 17.0136 64.1952 17.1527 64.3193 17.232ZM65.6781 17.5767L67.2702 16.3456C66.7052 16.1058 66.2623 15.9773 65.9413 15.958C65.6203 15.9388 65.325 16.0351 65.0533 16.2449C64.8714 16.3862 64.7686 16.5447 64.7472 16.7202C64.7258 16.8958 64.7644 17.05 64.8671 17.1827C65.0276 17.3904 65.2972 17.521 65.6781 17.5767ZM68.1604 15.9195L66.2002 17.4354C65.8129 17.7351 65.5561 17.9984 65.4299 18.2297C65.3036 18.4588 65.3336 18.6943 65.5197 18.9362C65.6032 19.0454 65.6845 19.1225 65.7616 19.1696C65.6374 18.9469 65.6096 18.7457 65.6738 18.5637C65.738 18.3817 65.9092 18.1847 66.1831 17.9728L68.46 16.2128C68.8045 15.9473 69.0035 15.714 69.0591 15.517C69.1148 15.3179 69.0634 15.0888 68.9051 14.8319C68.9393 15.0117 68.9093 15.1723 68.8173 15.3114C68.7275 15.4463 68.5092 15.6497 68.1604 15.9195ZM67.0883 14.3458C66.9856 14.2345 66.9385 14.1253 66.9471 14.0183C66.9556 13.9112 66.9963 13.8299 67.0733 13.7699C67.176 13.6907 67.2894 13.6479 67.4136 13.6414C67.5377 13.635 67.7303 13.6436 67.9892 13.6629C67.6896 13.5194 67.4307 13.4316 67.2145 13.3974C66.9984 13.3631 66.8165 13.4038 66.6667 13.5194C66.6004 13.5708 66.564 13.6522 66.5597 13.7656C66.5533 13.8791 66.5876 13.9797 66.6582 14.0739C66.7801 14.2345 66.9235 14.3244 67.0883 14.3458Z" fill="#FFBE17"/>
<path d="M72.3607 19.4909L71.6138 19.8634C72.014 20.0561 72.3435 20.2552 72.6046 20.4586C72.8657 20.662 73.0882 20.9489 73.2723 21.3193C73.8008 22.377 73.5397 23.1692 72.4891 23.6959L69.9319 24.9741C69.6879 25.0961 69.5638 25.231 69.5595 25.3787C69.5531 25.5264 69.6109 25.717 69.7286 25.9547L69.4204 26.1088L68.0702 23.4047L68.3783 23.2505C68.4982 23.4903 68.6244 23.6466 68.7549 23.7173C68.8876 23.7901 69.0759 23.7644 69.322 23.6402L72.0311 22.2849C72.2301 22.1864 72.3821 22.0708 72.4869 21.9424C72.5918 21.8118 72.6517 21.6705 72.6624 21.5142C72.6731 21.3579 72.6367 21.1951 72.5511 21.0239C72.4441 20.8098 72.2858 20.6299 72.0739 20.48C71.8621 20.3302 71.5817 20.1889 71.2351 20.054L68.2735 21.5356C68.1044 21.6191 67.991 21.7133 67.9289 21.8139C67.8669 21.9145 67.8498 22.0194 67.8733 22.1243C67.8968 22.2293 67.9525 22.3748 68.0338 22.559L67.7256 22.7131L66.3711 20.0026L66.6792 19.8484C66.7927 20.0775 66.9125 20.236 67.0345 20.3302C67.1586 20.4222 67.3298 20.4137 67.5502 20.3045L70.0346 19.0627C70.2807 18.9385 70.4519 18.7843 70.5482 18.5959C70.6445 18.4075 70.668 18.1699 70.6209 17.8787L70.8071 17.7866L72.2537 19.2789L72.3607 19.4909ZM70.3149 19.1547L67.7406 20.4415C67.5716 20.525 67.4453 20.5742 67.3576 20.5871C67.2698 20.5999 67.1607 20.5871 67.0302 20.5507C67.2463 20.8997 67.5416 20.981 67.9161 20.7948L70.591 19.4566C70.7771 19.3624 70.9055 19.2168 70.9719 19.0177C71.0382 18.8186 71.0275 18.6302 70.9398 18.4546C70.9312 18.4354 70.9098 18.4032 70.8777 18.3583C70.8456 18.3133 70.8264 18.2833 70.8178 18.2684C70.8349 18.6837 70.6659 18.9792 70.3149 19.1547ZM72.1809 22.4412L69.4162 23.8243C69.3006 23.8821 69.2129 23.9228 69.1572 23.9442C69.0995 23.9656 69.0395 23.9763 68.9775 23.9785C68.9154 23.9785 68.8277 23.9635 68.7186 23.9292L68.7721 24.0363C68.8684 24.2311 69.0053 24.3232 69.1808 24.3146C69.3562 24.3061 69.5874 24.229 69.8762 24.0855L72.3542 22.8459C72.6752 22.6853 72.8849 22.4926 72.9812 22.2657C73.0775 22.0387 73.0454 21.7432 72.8807 21.3771C72.8999 21.6212 72.8528 21.8246 72.7437 21.9937C72.6346 22.1629 72.4463 22.3085 72.1809 22.4412Z" fill="#FFBE17"/>
<path d="M72.1913 30.5962L72.0693 30.8896C71.682 30.8018 71.3439 30.6626 71.0571 30.4721C70.7704 30.2815 70.535 30.0503 70.3467 29.7784C70.1584 29.5065 70.0214 29.2067 69.9315 28.8813C69.8095 28.4381 69.8031 27.997 69.9123 27.556C70.0214 27.1171 70.2461 26.7295 70.5885 26.3977C70.9309 26.0658 71.3567 25.8282 71.8703 25.689C72.2726 25.5777 72.6706 25.5413 73.0622 25.5798C73.4538 25.6183 73.8176 25.719 74.1535 25.886C74.4895 26.0508 74.7762 26.2714 75.0138 26.5476C75.2513 26.8237 75.4204 27.1385 75.5188 27.4982C75.6172 27.86 75.6386 28.2283 75.5766 28.5987C75.5145 28.9691 75.3797 29.2881 75.1657 29.5536C75.0116 29.7484 74.8404 29.9047 74.6543 30.0224C74.4681 30.1402 74.237 30.258 73.961 30.3714L72.9573 26.7188C72.5422 26.8494 72.2084 27.0186 71.9516 27.2263C71.6969 27.4339 71.5086 27.663 71.3867 27.9157C71.2647 28.1683 71.1983 28.4188 71.1834 28.6715C71.1705 28.922 71.1919 29.1532 71.2497 29.363C71.3931 29.8661 71.7055 30.2794 72.1913 30.5962ZM74.5623 26.3741C73.7598 25.7832 72.8739 25.6226 71.9066 25.8881C71.2048 26.0808 70.6933 26.4641 70.3723 27.0357C70.0514 27.6074 69.97 28.1876 70.1327 28.7764C70.2268 29.1189 70.3916 29.4444 70.6249 29.7505C70.8581 30.0567 71.1448 30.2922 71.4851 30.4549C71.2604 30.2515 71.0635 30.0353 70.8945 29.8083C70.7254 29.5814 70.5928 29.2881 70.4943 28.9327C70.3295 28.331 70.4023 27.7722 70.7104 27.2562C71.0186 26.7402 71.5108 26.3891 72.1827 26.205C72.6107 26.0872 73.0108 26.0487 73.3853 26.0894C73.7598 26.1258 74.1514 26.2221 74.5623 26.3741ZM73.3575 26.646L73.9374 28.7571L74.1364 28.7014C74.3697 28.6372 74.5665 28.5366 74.727 28.4017C74.8875 28.2668 74.9967 28.1126 75.0544 27.9371C75.1122 27.7637 75.1165 27.5817 75.063 27.3911C74.9795 27.085 74.772 26.8623 74.4403 26.7231C74.1107 26.5861 73.7491 26.5604 73.3575 26.646ZM73.9888 28.9498L74.1043 29.3737C74.5516 29.2367 74.8597 29.0526 75.0288 28.8213C75.1978 28.5901 75.262 28.2582 75.2213 27.8322C75.1743 28.1234 75.0737 28.3503 74.9175 28.5152C74.7613 28.68 74.4916 28.8149 74.1086 28.9198L73.9888 28.9498Z" fill="#FFBE17"/>
<path d="M71.8062 32.1848L77.6995 31.4097C78.0141 31.369 78.2537 31.2855 78.4206 31.1635C78.5854 31.0415 78.7117 30.791 78.7951 30.412L79.0369 30.3799L79.9678 32.3132L79.9999 32.5552L72.2235 33.5764C71.9004 33.6193 71.6821 33.6856 71.5666 33.7734C71.451 33.8612 71.4146 34.056 71.4531 34.3536L71.4745 34.5206L71.1322 34.5656L70.7256 31.4675L71.068 31.4226L71.0872 31.5724C71.1193 31.8165 71.1942 31.9857 71.3119 32.0799C71.4296 32.1805 71.5944 32.2126 71.8062 32.1848ZM72.1422 32.7629L77.7423 32.0263C78.0376 31.9878 78.2709 31.9428 78.442 31.8936C78.6154 31.8443 78.7523 31.748 78.8529 31.6046C78.9535 31.4632 78.9877 31.2534 78.9513 30.9751C78.9342 30.8381 78.915 30.7289 78.8957 30.6475C78.8379 31.0436 78.7074 31.2941 78.5062 31.3969C78.3051 31.4996 78.0333 31.5767 77.6888 31.6217L71.8704 32.386C71.588 32.4224 71.3569 32.3668 71.1728 32.219C71.2242 32.5081 71.3269 32.6793 71.4831 32.735C71.6393 32.7907 71.8597 32.7992 72.1422 32.7629Z" fill="#FFBE17"/>
<path d="M72.7091 39.6251L72.5101 39.8734C72.1613 39.6786 71.8767 39.4516 71.6563 39.1883C71.4338 38.925 71.2733 38.6381 71.1684 38.3233C71.0657 38.0107 71.0165 37.6832 71.0208 37.3449C71.0293 36.8846 71.1449 36.4585 71.3738 36.0667C71.6028 35.6749 71.9259 35.3687 72.3475 35.1439C72.7691 34.9212 73.2463 34.8142 73.7769 34.8227C74.1942 34.8292 74.5858 34.9062 74.9518 35.0518C75.3177 35.1974 75.6387 35.3965 75.9147 35.6513C76.1908 35.904 76.4047 36.1973 76.5567 36.527C76.7086 36.8567 76.7814 37.21 76.7749 37.5804C76.7685 37.9572 76.6851 38.3148 76.5224 38.653C76.3598 38.9913 76.1394 39.259 75.8612 39.4538C75.6579 39.5972 75.4503 39.7 75.2385 39.76C75.0266 39.822 74.772 39.8691 74.4746 39.9013L74.5366 36.1138C74.1022 36.1223 73.732 36.1909 73.4303 36.3193C73.1286 36.4478 72.8825 36.6126 72.6942 36.8225C72.5058 37.0301 72.371 37.2528 72.2876 37.4905C72.2041 37.7281 72.1613 37.9551 72.157 38.1713C72.1463 38.7001 72.3325 39.184 72.7091 39.6251ZM76.1694 36.238C75.5638 35.4458 74.7592 35.0411 73.7556 35.0261C73.028 35.0133 72.431 35.2381 71.9602 35.6963C71.4915 36.1545 71.2519 36.6897 71.2412 37.2999C71.2348 37.6553 71.3011 38.0129 71.4402 38.3726C71.5793 38.7323 71.7868 39.0384 72.0672 39.2889C71.9088 39.032 71.7804 38.7687 71.682 38.501C71.5836 38.2334 71.5386 37.9165 71.5429 37.5483C71.5536 36.9252 71.7783 36.4092 72.2191 36.0003C72.6599 35.5914 73.2291 35.3923 73.9289 35.403C74.3718 35.4094 74.7677 35.4865 75.1165 35.6299C75.4675 35.7755 75.8184 35.9768 76.1694 36.238ZM74.8961 38.5503L74.8897 38.9892C75.3583 38.9849 75.705 38.8928 75.9318 38.7173C76.1587 38.5417 76.3127 38.242 76.394 37.8223C76.2678 38.0878 76.1073 38.2784 75.9104 38.3918C75.7136 38.5053 75.4182 38.5588 75.0202 38.5524L74.8961 38.5503ZM74.9346 36.1609L74.8983 38.349L75.1058 38.3533C75.3476 38.3576 75.5659 38.3169 75.7563 38.2313C75.9489 38.1456 76.0966 38.0279 76.2015 37.878C76.3063 37.7281 76.3598 37.5526 76.3641 37.3577C76.3684 37.0408 76.2314 36.7689 75.9532 36.542C75.675 36.315 75.3348 36.1887 74.9346 36.1609ZM77.6009 36.4563L77.6074 36.1052L79.5568 36.846L79.5269 38.6959L77.6009 36.4563ZM77.9455 36.4478L79.1994 37.6232L79.2101 36.9145L77.9455 36.4478Z" fill="#FFBE17"/>
<path d="M71.41 40.2671L73.0321 40.5304L72.9786 40.8644C72.3708 41.0871 71.8979 41.3483 71.5598 41.6459C71.2217 41.9435 71.027 42.254 70.9735 42.5794C70.9393 42.7892 70.9778 42.9883 71.0869 43.1767C71.196 43.363 71.3373 43.4722 71.5106 43.5C71.7374 43.5364 71.9043 43.5 72.0113 43.3909C72.3965 42.9755 72.7068 42.5644 72.94 42.1619C73.5456 41.0957 74.2368 40.6246 75.0157 40.751C75.478 40.8259 75.8353 41.0657 76.0878 41.4703C76.3403 41.875 76.4174 42.3803 76.3189 42.9819C76.2697 43.2881 76.1906 43.5664 76.0857 43.8212C75.9787 44.076 75.8396 44.3522 75.6684 44.6562L74.1919 44.4806L74.2411 44.1766C74.7911 43.9218 75.2169 43.6521 75.5229 43.3652C75.8268 43.0783 76.0065 42.7742 76.0579 42.4574C76.09 42.2582 76.0515 42.0848 75.9423 41.9328C75.8332 41.7808 75.7005 41.693 75.5443 41.6673C75.3432 41.6352 75.1698 41.6887 75.0264 41.8322C74.8831 41.9735 74.6541 42.2839 74.3395 42.7635C74.025 43.241 73.7297 43.6585 73.4515 44.0117C73.2846 44.2344 73.0727 44.3993 72.8181 44.5063C72.5634 44.6134 72.3002 44.6455 72.0285 44.6005C71.7096 44.5491 71.4336 44.41 71.1939 44.183C70.9564 43.9561 70.783 43.667 70.6803 43.3181C70.5755 42.9691 70.5562 42.5922 70.6225 42.1876C70.7103 41.6117 70.9756 40.9715 71.41 40.2671ZM71.1725 43.5771C71.2581 43.7056 71.3373 43.8019 71.4143 43.8704C71.4892 43.9368 71.6005 43.9839 71.7438 44.0075C72.1847 44.0781 72.5891 43.8148 72.9529 43.211C73.2846 42.6715 73.5713 42.2497 73.8089 41.9457C74.0464 41.6416 74.2753 41.4297 74.4958 41.3141C74.7162 41.1984 74.973 41.162 75.2661 41.2091C75.4437 41.237 75.6342 41.3205 75.8353 41.4532C75.7198 41.3248 75.6042 41.2177 75.4844 41.1321C75.3646 41.0464 75.2105 40.9886 75.02 40.9586C74.6284 40.8944 74.2882 40.9843 73.9993 41.2263C73.7104 41.4682 73.3958 41.845 73.0577 42.3567C72.7196 42.8684 72.45 43.2346 72.251 43.4529C72.052 43.6713 71.8145 43.757 71.532 43.712C71.4293 43.6949 71.3095 43.6499 71.1725 43.5771ZM72.45 40.6696L71.6754 40.5433C71.5513 40.736 71.3865 41.0593 71.1811 41.5175C71.3993 41.2905 71.5898 41.1256 71.7503 41.025C71.9108 40.9265 72.144 40.8066 72.45 40.6696ZM74.8082 44.1145L75.5293 44.1745C75.6855 43.9197 75.7947 43.7206 75.861 43.5728C75.9273 43.4272 75.983 43.2067 76.0301 42.9134C75.8717 43.2046 75.7091 43.4315 75.5357 43.5921C75.3646 43.7548 75.1227 43.9282 74.8082 44.1145Z" fill="#FFBE17"/>
<path d="M74.2137 51.3707C74.3828 51.0067 74.5732 50.7562 74.7829 50.6213C74.9927 50.4864 75.2131 50.4736 75.4442 50.5806C75.6175 50.662 75.7352 50.7904 75.7973 50.966C75.8593 51.1416 75.8465 51.3236 75.7587 51.5077C75.6624 51.7154 75.5276 51.8802 75.3564 51.998C75.1852 52.1157 74.937 52.2592 74.6118 52.4219C74.2865 52.5846 74.0404 52.7366 73.8778 52.8715C74.019 52.9336 74.1795 52.9743 74.3592 52.9978C74.5369 53.0214 74.7444 53.0385 74.9841 53.0535C75.2216 53.0664 75.4057 53.0856 75.534 53.1049C75.6624 53.1263 75.7951 53.167 75.9321 53.2312C76.1375 53.3254 76.2744 53.4646 76.3451 53.6444C76.4157 53.8243 76.4178 53.987 76.3493 54.1304C76.2638 54.3124 76.1289 54.4388 75.9428 54.5116C75.7566 54.5843 75.5512 54.5694 75.3286 54.4644C75.1959 54.4024 75.0761 54.3296 74.967 54.2439C74.8578 54.1583 74.7487 54.0619 74.6396 53.9527C74.5283 53.8435 74.3978 53.7151 74.248 53.5695C74.0982 53.4239 73.9313 53.2826 73.7494 53.1477C73.7387 53.3276 73.7772 53.608 73.8628 53.9891C73.9484 54.3702 74.0019 54.6678 74.0211 54.8819C74.0404 55.096 74.0019 55.308 73.9056 55.5157C73.8285 55.6827 73.7023 55.7962 73.5311 55.8604C73.3599 55.9225 73.1887 55.9161 73.0218 55.839C72.795 55.7341 72.6644 55.5542 72.6302 55.3037C72.596 55.0532 72.6666 54.7428 72.8378 54.3767C72.9405 54.1754 73.0475 53.9656 73.1545 53.7472C73.2615 53.5288 73.3407 53.3147 73.3877 53.1049C73.1866 53.2098 72.887 53.3747 72.4868 53.5995C72.0867 53.8243 71.7892 53.9634 71.5924 54.0191C71.3955 54.0748 71.2072 54.0598 71.0253 53.9763C70.8734 53.9056 70.7642 53.7836 70.6979 53.6102C70.6315 53.4368 70.6358 53.2676 70.7129 53.1049C70.8284 52.8587 71.006 52.7174 71.2478 52.6831C71.4896 52.6489 71.8406 52.6638 72.3007 52.7302C72.7607 52.7966 73.1117 52.8223 73.3535 52.8051C73.2486 52.6638 73.0646 52.4754 72.8014 52.2399C72.5382 52.0044 72.3285 51.8074 72.1744 51.6469C72.0203 51.4884 71.9048 51.3171 71.8299 51.1373C71.755 50.9574 71.7593 50.7733 71.847 50.5892C71.924 50.4222 72.0524 50.3044 72.2322 50.2359C72.4119 50.1674 72.5874 50.1717 72.7565 50.253C72.964 50.3494 73.1095 50.5014 73.193 50.7048C73.2743 50.9082 73.3492 51.2165 73.4155 51.6254C73.4819 52.0344 73.5482 52.362 73.6188 52.606C73.6809 52.5332 73.7515 52.4069 73.835 52.2292C73.8714 52.1543 73.9291 52.0151 74.0147 51.8139C74.1025 51.619 74.1688 51.4691 74.2137 51.3707ZM73.3813 52.9957L73.3685 52.9336C73.1695 52.9465 72.9341 52.9957 72.6644 53.0792C72.3948 53.1627 72.1637 53.2376 71.969 53.3019C71.7743 53.3661 71.5859 53.4111 71.3998 53.4346C71.2136 53.4582 71.0445 53.4346 70.8926 53.364L70.8348 53.3233C70.8498 53.5567 70.944 53.7129 71.1152 53.7922C71.2864 53.8714 71.4704 53.8692 71.6673 53.7857C71.8641 53.7022 72.1573 53.5567 72.5446 53.3468C72.9341 53.1413 73.2123 53.0235 73.3813 52.9957ZM73.4605 52.7345L73.5161 52.7045C73.4541 52.5097 73.3407 52.2956 73.1759 52.0622C73.0111 51.8288 72.8656 51.6297 72.7436 51.4691C72.6195 51.3086 72.5189 51.1394 72.4419 50.966C72.3649 50.7904 72.3349 50.6042 72.3542 50.4051C72.2086 50.4714 72.1102 50.5571 72.061 50.6641C71.9647 50.8697 71.9818 51.0602 72.1102 51.2358C72.2386 51.4113 72.4654 51.6533 72.7928 51.9594C73.1202 52.2656 73.3428 52.5225 73.4605 52.7345ZM73.5996 53.167L73.5418 53.1413C73.4947 53.3126 73.4648 53.5074 73.4562 53.7279C73.4455 53.9463 73.4434 54.1711 73.4477 54.3981C73.4519 54.6272 73.4476 54.822 73.4369 54.9869C73.4241 55.1517 73.3877 55.3016 73.3257 55.4343C73.2872 55.5178 73.2272 55.5971 73.1438 55.6741C73.2722 55.7148 73.3856 55.7127 73.484 55.6634C73.5825 55.6142 73.6616 55.5285 73.7194 55.4022C73.8072 55.2117 73.8414 55.0404 73.8221 54.8819C73.8029 54.7256 73.7558 54.4559 73.683 54.0726C73.6124 53.6915 73.5825 53.3897 73.5996 53.167ZM73.7216 52.7259L73.7793 52.7516C73.9869 52.5718 74.2137 52.3084 74.4577 51.9616C74.7016 51.6147 74.8921 51.3664 75.0248 51.2165C75.1596 51.0666 75.3308 50.9746 75.5426 50.9382C75.4955 50.8611 75.4378 50.8054 75.3693 50.7755C75.2173 50.7048 75.0569 50.7219 74.8857 50.8268C74.7145 50.9317 74.5647 51.1202 74.4384 51.3942C74.3935 51.4884 74.3464 51.604 74.295 51.7389C74.2437 51.8738 74.1881 52.0087 74.126 52.1414C74.0789 52.2442 74.0318 52.3277 73.9848 52.3941C73.9377 52.4604 73.8927 52.5204 73.8478 52.5761C73.805 52.6274 73.7622 52.6788 73.7216 52.7259ZM73.8435 52.955L73.8114 53.0235C73.9034 53.0942 74.0169 53.1606 74.1538 53.2248C74.2758 53.2805 74.5026 53.3597 74.8386 53.4603C75.1745 53.5609 75.4206 53.6487 75.5811 53.7236C75.8272 53.8393 75.9941 53.9956 76.0797 54.199L76.1396 54.0684C76.1889 53.9613 76.1889 53.8435 76.1375 53.7151C76.0861 53.5845 75.9663 53.4774 75.778 53.3875C75.6603 53.3318 75.5105 53.2933 75.3265 53.2676C75.1424 53.2419 74.9777 53.2205 74.83 53.2055C74.6824 53.1905 74.5262 53.1648 74.3614 53.1327C74.1966 53.1006 74.0383 53.0471 73.8863 52.9786L73.8435 52.955Z" fill="#FFBE17"/>
</g>
<defs>
<clipPath id="clip0_933_2722">
<rect width="80" height="71.0244" fill="white"/>
</clipPath>
</defs>
</svg>
