<svg width="30" height="30" viewBox="0 0 30 30" fill="none" xmlns="http://www.w3.org/2000/svg">
<g clip-path="url(#clip0_2315_3083)">
<path d="M28.797 28.1245H1.203C0.884112 28.1242 0.578351 27.9975 0.352816 27.772C0.127281 27.5466 0.000394685 27.2409 0 26.922L0 25.1088C0.000370932 24.7898 0.127235 24.4841 0.352761 24.2585C0.578288 24.033 0.884061 23.9061 1.203 23.9058H5.15531C5.27963 23.9058 5.39886 23.9551 5.48677 24.0431C5.57468 24.131 5.62406 24.2502 5.62406 24.3745C5.62406 24.4988 5.57468 24.6181 5.48677 24.706C5.39886 24.7939 5.27963 24.8433 5.15531 24.8433H1.203C1.1326 24.8433 1.0651 24.8713 1.01532 24.9211C0.965536 24.9709 0.937548 25.0384 0.9375 25.1088V26.922C0.937646 26.9923 0.965681 27.0597 1.01545 27.1094C1.06523 27.1591 1.13268 27.187 1.203 27.187H28.797C28.8673 27.187 28.9348 27.1591 28.9845 27.1094C29.0343 27.0597 29.0624 26.9923 29.0625 26.922V25.1088C29.0624 25.0384 29.0345 24.9709 28.9847 24.9211C28.9349 24.8713 28.8674 24.8433 28.797 24.8433H24.3668C24.2424 24.8433 24.1232 24.7939 24.0353 24.706C23.9474 24.6181 23.898 24.4988 23.898 24.3745C23.898 24.2502 23.9474 24.131 24.0353 24.0431C24.1232 23.9552 24.2424 23.9058 24.3668 23.9058H28.797C29.1159 23.9061 29.4217 24.033 29.6472 24.2585C29.8728 24.4841 29.9996 24.7898 30 25.1088V26.922C29.9996 27.2409 29.8727 27.5466 29.6472 27.772C29.4216 27.9975 29.1159 28.1242 28.797 28.1245V28.1245Z" fill="black"/>
<path d="M11.0875 25.4897C10.5514 25.4898 10.0188 25.4037 9.51006 25.2347L8.9612 25.052C8.54795 24.9141 8.11512 24.8439 7.67946 24.8442L5.19335 24.8437C4.94903 24.8443 4.7086 24.7826 4.49475 24.6645C4.28089 24.5464 4.10068 24.3757 3.97112 24.1685C3.84266 23.9671 3.76764 23.7363 3.75314 23.4979C3.73864 23.2595 3.78515 23.0213 3.88826 22.8058C6.30799 17.7374 10.362 14.6434 14.7327 14.5299C15.3268 14.5165 15.9209 14.5563 16.5079 14.6489C16.7523 14.6917 17.0013 14.7023 17.2486 14.6805C17.7688 14.6266 18.2946 14.6881 18.7884 14.8605C19.2822 15.033 19.7319 15.3123 20.1055 15.6784L20.7834 16.3403C20.8743 16.4281 20.9718 16.5088 21.075 16.5816V16.5816C23.2383 18.2038 24.9594 20.3436 26.0802 22.8044C26.1836 23.02 26.2303 23.2585 26.2159 23.4972C26.2015 23.7359 26.1264 23.9669 25.9978 24.1685C25.8682 24.3758 25.6879 24.5466 25.474 24.6648C25.2601 24.783 25.0195 24.8448 24.7751 24.8442H14.448C13.9321 24.8438 13.4209 24.942 12.9419 25.1335C12.352 25.3689 11.7227 25.4898 11.0875 25.4897V25.4897ZM14.9822 15.4642C14.9071 15.4642 14.8325 15.4651 14.7574 15.4674C10.746 15.5713 6.99877 18.4657 4.73421 23.2095C4.69963 23.2823 4.68422 23.3626 4.68943 23.443C4.69463 23.5233 4.72029 23.601 4.76397 23.6687C4.80948 23.7415 4.87278 23.8015 4.9479 23.843C5.02302 23.8846 5.10749 23.9064 5.19335 23.9062L7.67946 23.9067C8.21594 23.9063 8.74895 23.9927 9.25783 24.1626L9.80623 24.3448C10.716 24.6477 11.7036 24.6187 12.594 24.2629C13.1836 24.027 13.8129 23.9062 14.448 23.9067H24.7751C24.8611 23.9069 24.9457 23.8851 25.0209 23.8435C25.0961 23.8018 25.1595 23.7417 25.205 23.6687C25.2488 23.6009 25.2745 23.523 25.2796 23.4425C25.2847 23.3619 25.2691 23.2814 25.2342 23.2086C24.1817 20.8907 22.5639 18.8743 20.5293 17.3442V17.3442C20.3876 17.2436 20.2537 17.1323 20.1288 17.0114L19.4504 16.349C19.1748 16.0791 18.8431 15.8733 18.4789 15.7461C18.1147 15.619 17.727 15.5737 17.3433 15.6134C17.0151 15.6434 16.6844 15.6303 16.3596 15.5745C15.9041 15.5013 15.4435 15.4644 14.9822 15.4642V15.4642Z" fill="black"/>
<path d="M11.7279 18.7505C11.6663 18.7508 11.6053 18.739 11.5483 18.7157C11.4913 18.6924 11.4395 18.6581 11.3958 18.6148C11.352 18.5715 11.3172 18.52 11.2934 18.4632C11.2696 18.4065 11.2571 18.3456 11.2568 18.284C11.2565 18.2225 11.2684 18.1615 11.2916 18.1045C11.3149 18.0475 11.3492 17.9956 11.3925 17.9519C11.4358 17.9082 11.4873 17.8734 11.5441 17.8495C11.6009 17.8257 11.6617 17.8133 11.7233 17.813H11.7279C11.8522 17.813 11.9714 17.8624 12.0593 17.9503C12.1472 18.0382 12.1966 18.1574 12.1966 18.2817C12.1966 18.4061 12.1472 18.5253 12.0593 18.6132C11.9714 18.7011 11.8522 18.7505 11.7279 18.7505ZM19.6966 22.9692C19.5723 22.9698 19.4528 22.921 19.3645 22.8336C19.2762 22.7461 19.2262 22.6271 19.2256 22.5028C19.225 22.3785 19.2738 22.259 19.3613 22.1706C19.4487 22.0823 19.5677 22.0323 19.6921 22.0317H19.6966C19.8209 22.0317 19.9402 22.0811 20.0281 22.169C20.116 22.2569 20.1654 22.3762 20.1654 22.5005C20.1654 22.6248 20.116 22.744 20.0281 22.8319C19.9402 22.9199 19.8209 22.9692 19.6966 22.9692ZM19.2279 20.1567C19.1036 20.1573 18.9841 20.1085 18.8958 20.0211C18.8074 19.9336 18.7574 19.8146 18.7568 19.6903C18.7562 19.566 18.805 19.4465 18.8925 19.3582C18.98 19.2698 19.099 19.2198 19.2233 19.2192H19.2279C19.3522 19.2192 19.4714 19.2686 19.5593 19.3565C19.6472 19.4444 19.6966 19.5637 19.6966 19.688C19.6966 19.8123 19.6472 19.9315 19.5593 20.0194C19.4714 20.1074 19.3522 20.1567 19.2279 20.1567ZM28.3827 7.03174H14.7889C14.6646 7.03174 14.5454 6.98235 14.4575 6.89445C14.3696 6.80654 14.3202 6.68731 14.3202 6.56299C14.3202 6.43867 14.3696 6.31944 14.4575 6.23153C14.5454 6.14362 14.6646 6.09424 14.7889 6.09424H28.3735C28.4984 6.09399 28.6182 6.14315 28.7069 6.23098C28.7956 6.31881 28.8459 6.43817 28.8469 6.56299C28.8474 6.62431 28.8358 6.68514 28.8127 6.74196C28.7897 6.79878 28.7556 6.85047 28.7124 6.89405C28.6693 6.93762 28.6179 6.97222 28.5613 6.99586C28.5047 7.01949 28.444 7.03169 28.3827 7.03174V7.03174Z" fill="black"/>
<path d="M28.5938 24.8442C28.5322 24.8443 28.4712 24.8322 28.4143 24.8086C28.3574 24.7851 28.3057 24.7506 28.2622 24.707C28.2187 24.6635 28.1842 24.6118 28.1606 24.5549C28.1371 24.498 28.125 24.4371 28.125 24.3755V7.53298C28.1256 7.28674 28.0759 7.04298 27.979 6.81661C27.8821 6.59024 27.74 6.38602 27.5615 6.21645L25.9163 4.54836C25.8298 4.46064 25.7813 4.34242 25.7812 4.21924V2.81299H17.3438V4.21924C17.3438 4.342 17.2956 4.45987 17.2096 4.54745L15.7004 6.08462C15.4798 6.29241 15.3039 6.543 15.1835 6.82108C15.0631 7.09915 15.0006 7.39886 15 7.70189V15.0096C15 15.134 14.9506 15.2532 14.8627 15.3411C14.7748 15.429 14.6556 15.4784 14.5313 15.4784C14.4069 15.4784 14.2877 15.429 14.1998 15.3411C14.1119 15.2532 14.0625 15.134 14.0625 15.0096V7.70189C14.0623 7.27498 14.1489 6.85249 14.317 6.46006C14.4851 6.06763 14.7311 5.71345 15.0403 5.41903L16.4063 4.02743V2.34424C16.4062 2.28267 16.4183 2.2217 16.4419 2.16481C16.4654 2.10793 16.4999 2.05624 16.5435 2.0127C16.587 1.96917 16.6387 1.93464 16.6956 1.9111C16.7525 1.88755 16.8134 1.87545 16.875 1.87549H26.25C26.3116 1.87545 26.3725 1.88755 26.4294 1.9111C26.4863 1.93464 26.538 1.96917 26.5815 2.0127C26.6251 2.05624 26.6596 2.10793 26.6831 2.16481C26.7067 2.2217 26.7188 2.28267 26.7188 2.34424V4.02697L28.2198 5.54903C28.4875 5.80527 28.7002 6.11329 28.8451 6.45436C28.99 6.79543 29.0639 7.16242 29.0625 7.53298V24.3755C29.0625 24.4371 29.0504 24.498 29.0269 24.5549C29.0033 24.6118 28.9688 24.6635 28.9253 24.707C28.8818 24.7506 28.8301 24.7851 28.7732 24.8086C28.7163 24.8322 28.6553 24.8443 28.5938 24.8442V24.8442Z" fill="black"/>
<path d="M26.25 4.68799H16.875C16.7507 4.68799 16.6315 4.6386 16.5435 4.55069C16.4556 4.46279 16.4062 4.34356 16.4062 4.21924C16.4062 4.09492 16.4556 3.97569 16.5435 3.88778C16.6315 3.79987 16.7507 3.75049 16.875 3.75049H26.25C26.3743 3.75049 26.4935 3.79987 26.5815 3.88778C26.6694 3.97569 26.7188 4.09492 26.7188 4.21924C26.7188 4.34356 26.6694 4.46279 26.5815 4.55069C26.4935 4.6386 26.3743 4.68799 26.25 4.68799ZM21.942 18.3518C21.8485 18.3518 21.7571 18.3238 21.6797 18.2715C21.6022 18.2192 21.5421 18.1449 21.5072 18.0582C21.4722 17.9715 21.464 17.8763 21.4836 17.7849C21.5031 17.6935 21.5496 17.61 21.617 17.5452C21.989 17.207 22.2892 16.7975 22.4997 16.341C22.7102 15.8845 22.8268 15.3903 22.8424 14.8878C22.8431 14.7802 22.8377 14.6726 22.8264 14.5656C22.7178 13.6273 22.2678 12.7617 21.562 12.1339C20.855 12.756 20.4049 13.6192 20.2995 14.555C20.2878 14.6467 20.2821 14.7391 20.2826 14.8315C20.279 15.2863 20.3674 15.7371 20.5426 16.1567C20.5902 16.2716 20.5902 16.4006 20.5427 16.5155C20.4951 16.6304 20.4039 16.7216 20.289 16.7692C20.1742 16.8168 20.0451 16.8168 19.9302 16.7693C19.8154 16.7217 19.7241 16.6305 19.6765 16.5156C19.4534 15.9811 19.3407 15.407 19.3451 14.8279C19.3444 14.7019 19.3521 14.5761 19.368 14.4511C19.5004 13.2685 20.0742 12.1794 20.9747 11.4015C21.1388 11.2629 21.3465 11.1867 21.5613 11.1863C21.776 11.186 21.984 11.2616 22.1485 11.3997C23.0501 12.1861 23.6248 13.2815 23.7593 14.4703C23.774 14.6105 23.7809 14.7514 23.7799 14.8924C23.7647 15.5204 23.6228 16.139 23.3629 16.7109C23.1029 17.2828 22.7302 17.7964 22.267 18.2208C22.1798 18.305 22.0632 18.352 21.942 18.3518V18.3518Z" fill="black"/>
<path d="M23.4192 18.5453C23.2101 18.5452 23.0012 18.5315 22.7939 18.5041C22.5919 18.4684 22.4063 18.3696 22.264 18.2219C22.1216 18.0742 22.0297 17.8852 22.0015 17.682C21.9905 17.573 21.9813 17.4632 21.9763 17.3428C21.9737 17.2812 21.9833 17.2198 22.0044 17.162C22.0256 17.1042 22.058 17.0511 22.0997 17.0058C22.1414 16.9606 22.1916 16.9239 22.2475 16.8981C22.3034 16.8723 22.3638 16.8577 22.4254 16.8553C22.5488 16.8528 22.6685 16.8982 22.7593 16.9818C22.8502 17.0655 22.9052 17.1811 22.9129 17.3043C22.917 17.4046 22.9252 17.4961 22.933 17.5758C23.3837 17.6539 23.8465 17.6246 24.2838 17.4903C24.7211 17.3561 25.1206 17.1206 25.4498 16.8031C25.7717 16.4172 26.007 15.9668 26.1397 15.4822C26.2725 14.9976 26.2996 14.4902 26.2193 13.9942C25.7692 13.9128 25.3061 13.9396 24.8684 14.0725C24.4307 14.2055 24.0309 14.4407 23.7021 14.7587C23.6865 14.7752 23.6732 14.788 23.6609 14.8035C23.5842 14.9011 23.4719 14.9643 23.3487 14.9792C23.2254 14.9941 23.1013 14.9595 23.0036 14.883C22.9059 14.8065 22.8425 14.6943 22.8274 14.5711C22.8122 14.4479 22.8466 14.3237 22.923 14.2258C22.9539 14.1867 22.9869 14.1492 23.0219 14.1137C23.4542 13.6858 23.9821 13.3669 24.5621 13.1834C25.142 12.9999 25.7573 12.9571 26.3571 13.0585C26.5589 13.0943 26.7441 13.193 26.8865 13.3404C27.0288 13.4878 27.1208 13.6764 27.1495 13.8793C27.2481 14.5128 27.2079 15.1601 27.0318 15.7765C26.8556 16.3929 26.5476 16.9637 26.1292 17.4494C25.7774 17.8091 25.3551 18.0921 24.8887 18.2807C24.4224 18.4693 23.922 18.5594 23.4192 18.5453ZM16.4397 15.5813C16.349 15.5813 16.2603 15.5551 16.1843 15.5058C16.1082 15.4565 16.0481 15.3862 16.0112 15.3034C15.9343 15.1313 15.5777 14.2432 16.0771 13.6353C16.2855 13.4077 16.5657 13.2584 16.8709 13.2124C17.4408 13.079 18.0351 13.091 18.5992 13.2473C19.1633 13.4036 19.679 13.6992 20.099 14.1068L20.1695 14.1824C20.254 14.2744 20.2988 14.3961 20.2942 14.5209C20.2895 14.6458 20.2359 14.7638 20.1448 14.8493C20.1003 14.8912 20.0479 14.9239 19.9907 14.9454C19.9335 14.9669 19.8726 14.9768 19.8115 14.9747C19.7504 14.9725 19.6903 14.9582 19.6348 14.9327C19.5793 14.9072 19.5293 14.8709 19.4879 14.826L19.4774 14.8145L19.4261 14.7596C19.1183 14.4686 18.7431 14.2584 18.3342 14.1478C17.9253 14.0372 17.4954 14.0295 17.0828 14.1256C16.9826 14.1395 16.8867 14.1751 16.8018 14.23C16.7043 14.3485 16.7601 14.6813 16.8672 14.9216C16.8923 14.9779 16.9061 15.0384 16.9078 15.1C16.9094 15.1615 16.899 15.2228 16.8769 15.2802C16.8549 15.3377 16.8218 15.3903 16.7794 15.435C16.7371 15.4796 16.6863 15.5155 16.6301 15.5405C16.5702 15.5675 16.5053 15.5814 16.4397 15.5813V15.5813Z" fill="black"/>
<path d="M17.8125 14.0666C17.7509 14.0667 17.69 14.0546 17.6331 14.031C17.5762 14.0075 17.5245 13.973 17.481 13.9294C17.4374 13.8859 17.4029 13.8342 17.3794 13.7773C17.3558 13.7204 17.3437 13.6595 17.3438 13.5979V10.7817C17.3438 10.6574 17.3931 10.5382 17.481 10.4503C17.569 10.3624 17.6882 10.313 17.8125 10.313C17.9368 10.313 18.056 10.3624 18.144 10.4503C18.2319 10.5382 18.2813 10.6574 18.2813 10.7817V13.5979C18.2813 13.6595 18.2692 13.7204 18.2456 13.7773C18.2221 13.8342 18.1876 13.8859 18.144 13.9294C18.1005 13.973 18.0488 14.0075 17.9919 14.031C17.935 14.0546 17.8741 14.0667 17.8125 14.0666V14.0666ZM25.3125 13.9774C25.2509 13.9774 25.19 13.9653 25.1331 13.9418C25.0762 13.9182 25.0245 13.8837 24.981 13.8402C24.9374 13.7966 24.9029 13.7449 24.8794 13.6881C24.8558 13.6312 24.8437 13.5702 24.8438 13.5086V10.7817C24.8438 10.6574 24.8931 10.5382 24.981 10.4503C25.069 10.3624 25.1882 10.313 25.3125 10.313C25.4368 10.313 25.556 10.3624 25.644 10.4503C25.7319 10.5382 25.7812 10.6574 25.7812 10.7817V13.5086C25.7813 13.5702 25.7692 13.6312 25.7456 13.6881C25.7221 13.7449 25.6876 13.7966 25.644 13.8402C25.6005 13.8837 25.5488 13.9182 25.4919 13.9418C25.435 13.9653 25.3741 13.9774 25.3125 13.9774V13.9774ZM21.562 12.1193C21.5005 12.1193 21.4395 12.1072 21.3826 12.0837C21.3257 12.0602 21.274 12.0256 21.2305 11.9821C21.187 11.9386 21.1524 11.8869 21.1289 11.83C21.1053 11.7731 21.0932 11.7121 21.0933 11.6506V8.43799C21.0933 8.31367 21.1427 8.19444 21.2306 8.10653C21.3185 8.01862 21.4377 7.96924 21.562 7.96924C21.6864 7.96924 21.8056 8.01862 21.8935 8.10653C21.9814 8.19444 22.0308 8.31367 22.0308 8.43799V11.6506C22.0308 11.7121 22.0187 11.7731 21.9952 11.83C21.9716 11.8869 21.9371 11.9386 21.8936 11.9821C21.85 12.0256 21.7983 12.0602 21.7415 12.0837C21.6846 12.1072 21.6236 12.1193 21.562 12.1193V12.1193Z" fill="black"/>
</g>
<defs>
<clipPath id="clip0_2315_3083">
<rect width="30" height="30" fill="white"/>
</clipPath>
</defs>
</svg>
