<svg width="30" height="50" viewBox="0 0 30 50" fill="none" xmlns="http://www.w3.org/2000/svg">
<path d="M29.999 27.1236V27.0845L29.9912 27.0767L29.999 27.1236Z" fill="white"/>
<path d="M29.9912 27.0767L29.999 27.1236V27.0845L29.9912 27.0767Z" fill="black"/>
<path d="M4.41406 1.48535V1.4916L4.41875 1.48848L4.41406 1.48535Z" fill="white"/>
<path d="M4.41406 1.48535V1.4916L4.41875 1.48848L4.41406 1.48535Z" fill="black"/>
<path d="M25.6634 1.48535H25.6572L25.6603 1.48845L25.6634 1.48535Z" fill="#998981"/>
<path d="M4.41406 22.7383V22.746L4.41872 22.7429L4.41406 22.7383Z" fill="white"/>
<path d="M4.41406 22.7383V22.746L4.41872 22.7429L4.41406 22.7383Z" fill="black"/>
<path d="M4.42182 1.48535H4.41406L4.41872 1.48845L4.42182 1.48535Z" fill="white"/>
<path d="M4.42182 1.48535H4.41406L4.41872 1.48845L4.42182 1.48535Z" fill="black"/>
<path d="M25.6633 1.48535L25.6602 1.48848L25.6633 1.4916V1.48535Z" fill="#998981"/>
<path d="M25.6633 22.7383L25.6602 22.7429L25.6633 22.746V22.7383Z" fill="#998981"/>
<path d="M4.41406 22.7463H4.42182L4.41872 22.7432L4.41406 22.7463Z" fill="white"/>
<path d="M4.41872 22.7432L4.41406 22.7463H4.42182L4.41872 22.7432Z" fill="black"/>
<path d="M25.6603 22.7437L25.6572 22.7468H25.6634L25.6603 22.7437Z" fill="#998981"/>
<path d="M15.0141 27.1235H8.797H0.0392573L0.0126953 27.1501C0.0314452 27.1689 0.0501951 27.1861 0.068945 27.2048C0.787689 27.4847 6.56421 29.3262 11.672 30.0032C12.8392 30.1579 13.9704 30.2517 14.9985 30.2517C15.011 30.2517 15.0251 30.2517 15.0376 30.2517V27.1517L15.0141 27.1235Z" fill="#FFBE17"/>
<path d="M29.114 27.2799C27.2718 27.8864 22.6281 29.259 18.4 29.8328C17.2109 29.9938 16.1344 30.0813 15.1969 30.0923V27.2799H21.2843H29.114ZM29.9999 27.1235H21.2828H15.0656L15.0391 27.1501V30.2502C16.0844 30.247 17.2344 30.1486 18.4187 29.9875C23.8921 29.245 30.0436 27.1657 29.9999 27.1235Z" fill="#FFBE17"/>
<path d="M25.6605 1.48828L25.6309 1.51798L25.6637 1.7134V1.49141L25.6605 1.48828Z" fill="#998981"/>
<path d="M15.0396 27.1235H15.0146L15.0396 27.1501V27.1235Z" fill="black"/>
<path d="M15.0656 27.1235H15.0391V27.1501L15.0656 27.1235Z" fill="black"/>
<path d="M15.1953 0.157895C16.0312 0.170402 17.0219 0.236061 18.1406 0.356436C20.5796 0.61751 23.1109 1.07243 24.4952 1.32726H19.439H15.1937V0.157895M15.0391 0V1.48515H19.4406H25.6577L25.5296 1.35696C24.9124 1.2616 21.4656 0.556541 18.1578 0.201668C17.0672 0.0844192 15.9922 0.00625326 15.0391 0Z" fill="#FFBE17"/>
<path d="M14.9218 0C14.0062 0 12.9827 0.0687867 11.9468 0.176655C8.42653 0.540908 4.7375 1.34914 4.48594 1.42105L4.42188 1.48515H10.639H15.0405V0C14.9999 0 14.9609 0 14.9218 0Z" fill="#FFBE17"/>
<path d="M7.52613 4.59928L4.41834 1.48828L4.41366 1.49141L4.36522 1.53987L3.08554 9.04223L2.56055 12.1157H4.41366H15.0386L7.52613 4.59928Z" fill="#FFBE17"/>
<path d="M25.2874 1.64168L22.4421 4.48848L15.1953 11.7391V1.64168H19.4406H25.2874ZM25.6577 1.48535H19.4406H15.0391V12.1159L22.5515 4.59948L25.6296 1.51974L25.6593 1.49004L25.6577 1.48535Z" fill="#FFBE17"/>
<path d="M4.41403 12.1157H2.56092L2.19061 14.2934L1.2828 19.6056L0 27.1236H0.0390622L4.41403 22.7463V22.7385L4.41872 22.7431L7.5265 19.6321L15.0389 12.1157H4.41403Z" fill="#FFBE17"/>
<path d="M10.6392 1.48535H4.42207L4.41895 1.48848L7.52673 4.59948L15.0392 12.1159V1.48535H10.6392Z" fill="#FFBE17"/>
<path d="M25.5284 1.84324L26.7456 8.97352L27.255 11.9595H25.6659H15.4176L22.6644 4.7088L25.5284 1.84324ZM25.6316 1.51807L22.5535 4.5978L15.041 12.1142H25.6659H27.4409L26.9003 8.94538L25.6659 1.71192L25.6316 1.51807Z" fill="#FFBE17"/>
<path d="M27.3077 12.2721L27.6687 14.3857L28.5749 19.6994L29.7561 26.6186L25.8202 22.6806L25.8171 22.3633L25.6609 22.5212L22.6624 19.5212L15.4156 12.2705H25.664H27.3077M27.439 12.1157H25.664H15.0391L22.5515 19.6321L25.6593 22.7416L25.6624 22.7385V22.7447L29.9905 27.0751L28.7265 19.6712L27.8202 14.3575L27.439 12.1157Z" fill="#FFBE17"/>
<path d="M7.5265 19.6321L4.41872 22.7431L4.42184 22.7463H4.41403L0.0390625 27.1236H8.79681H15.0139H15.0389V22.7463V12.1157L7.5265 19.6321Z" fill="#FFBE17"/>
<path d="M15.1953 12.4925L22.4421 19.7431L25.4421 22.7447L25.2874 22.9026H25.5999L29.6624 26.9672H21.2828H15.1953V22.7463V12.4925ZM15.0391 12.1157V22.7463V27.1236H15.0656H21.2828H29.9999L29.9921 27.0767L25.664 22.7463H25.6577L25.6609 22.7431L22.5531 19.6337L15.0391 12.1157Z" fill="#FFBE17"/>
<path d="M3.784 45C3.728 45 3.7 44.948 3.7 44.844C3.7 44.756 3.728 44.712 3.784 44.712H3.94C4.612 44.712 4.948 44.388 4.948 43.74V37.272C4.948 36.752 4.652 36.492 4.06 36.492C4.012 36.492 3.932 36.5 3.82 36.516C3.436 36.58 3.024 36.764 2.584 37.068C2.152 37.364 1.828 37.668 1.612 37.98C1.58 38.036 1.54 38.064 1.492 38.064C1.468 38.064 1.44 38.056 1.408 38.04C1.352 38.008 1.324 37.972 1.324 37.932L1.336 37.836L1.984 36.156H9.496L9.616 36.468C9.936 37.316 10.104 37.772 10.12 37.836C10.144 37.884 10.156 37.916 10.156 37.932C10.156 37.972 10.12 38.008 10.048 38.04C10.016 38.056 9.992 38.064 9.976 38.064C9.936 38.064 9.9 38.036 9.868 37.98C9.652 37.668 9.324 37.364 8.884 37.068C8.444 36.764 8.036 36.58 7.66 36.516C7.548 36.5 7.464 36.492 7.408 36.492C6.824 36.492 6.532 36.752 6.532 37.272V43.74C6.532 44.116 6.624 44.372 6.808 44.508C6.992 44.644 7.236 44.712 7.54 44.712H7.684C7.74 44.712 7.768 44.756 7.768 44.844C7.768 44.948 7.74 45 7.684 45H3.784ZM15.2102 45.156C14.5382 45.156 13.8782 44.98 13.2302 44.628C12.5822 44.276 12.0462 43.756 11.6222 43.068C11.2062 42.38 10.9982 41.556 10.9982 40.596C10.9982 39.636 11.2062 38.812 11.6222 38.124C12.0462 37.436 12.5822 36.916 13.2302 36.564C13.8782 36.212 14.5382 36.036 15.2102 36.036C15.8822 36.036 16.5382 36.212 17.1782 36.564C17.8262 36.916 18.3582 37.436 18.7742 38.124C19.1982 38.812 19.4102 39.636 19.4102 40.596C19.4102 41.556 19.1982 42.38 18.7742 43.068C18.3582 43.756 17.8262 44.276 17.1782 44.628C16.5382 44.98 15.8822 45.156 15.2102 45.156ZM15.2102 44.784C15.6822 44.784 16.1062 44.628 16.4822 44.316C16.8582 44.004 17.1582 43.536 17.3822 42.912C17.6062 42.28 17.7182 41.512 17.7182 40.608C17.7182 39.704 17.6062 38.936 17.3822 38.304C17.1582 37.672 16.8582 37.2 16.4822 36.888C16.1062 36.576 15.6862 36.42 15.2222 36.42C14.7502 36.42 14.3222 36.576 13.9382 36.888C13.5622 37.2 13.2622 37.672 13.0382 38.304C12.8222 38.928 12.7142 39.696 12.7142 40.608C12.7142 41.512 12.8222 42.28 13.0382 42.912C13.2622 43.536 13.5622 44.004 13.9382 44.316C14.3142 44.628 14.7382 44.784 15.2102 44.784ZM25.0478 36.156C25.5998 36.188 26.1118 36.3 26.5838 36.492C27.0638 36.676 27.4478 36.94 27.7358 37.284C28.0238 37.62 28.1678 38.024 28.1678 38.496C28.1678 39.064 27.9878 39.528 27.6278 39.888C27.2758 40.24 26.8438 40.496 26.3318 40.656C25.8278 40.808 25.3118 40.896 24.7838 40.92C24.5678 40.928 24.2598 40.932 23.8598 40.932H23.3918V43.74C23.3918 44.116 23.4838 44.372 23.6678 44.508C23.8518 44.644 24.0958 44.712 24.3998 44.712H24.5438C24.5998 44.712 24.6278 44.756 24.6278 44.844C24.6278 44.948 24.5998 45 24.5438 45H20.6558C20.5998 45 20.5718 44.948 20.5718 44.844C20.5718 44.756 20.5998 44.712 20.6558 44.712H20.8118C21.1078 44.712 21.3478 44.644 21.5318 44.508C21.7238 44.372 21.8198 44.116 21.8198 43.74V37.416C21.8198 37.04 21.7278 36.788 21.5438 36.66C21.3598 36.524 21.1158 36.456 20.8118 36.456H20.6558C20.5998 36.456 20.5718 36.404 20.5718 36.3C20.5718 36.204 20.5998 36.156 20.6558 36.156H23.7038H25.0478ZM24.2918 40.584C25.0838 40.552 25.6398 40.352 25.9598 39.984C26.2878 39.608 26.4518 39.096 26.4518 38.448C26.4518 37.992 26.3358 37.616 26.1038 37.32C25.8798 37.024 25.6078 36.812 25.2878 36.684C24.9678 36.556 24.6638 36.492 24.3758 36.492C23.7198 36.492 23.3918 36.748 23.3918 37.26V40.584H23.6918H24.2918Z" fill="#FFBE17"/>
</svg>
